<svg width="83" height="70" viewBox="0 0 83 70" fill="none" xmlns="http://www.w3.org/2000/svg">
<path fill-rule="evenodd" clip-rule="evenodd" d="M46.3504 31.4556H38.2483C37.5082 31.4556 36.91 30.8581 36.91 30.1189V21.1913C35.1385 21.4747 33.5587 22.3173 32.3433 23.5276C30.8325 25.0366 29.8969 27.1201 29.8969 29.4256C29.8969 31.7275 30.8325 33.8148 32.3433 35.3237C33.8541 36.8328 35.94 37.7673 38.2483 37.7673C40.4492 37.7673 42.4469 36.9208 43.9386 35.5344C45.1004 34.4544 45.9555 33.0449 46.3542 31.4555L46.3504 31.4556ZM47.911 28.7823C48.651 28.7823 49.2492 29.3797 49.2492 30.1189C49.2492 30.1802 49.2454 30.2377 49.2377 30.2951C49.0153 33.1292 47.7193 35.6609 45.756 37.4877C43.7851 39.3184 41.1471 40.4406 38.2483 40.4406C35.2037 40.4406 32.4467 39.2074 30.4529 37.2157C28.459 35.2241 27.2242 32.4705 27.2242 29.4295C27.2242 26.3884 28.4589 23.6347 30.4529 21.6432C32.4468 19.6517 35.2037 18.4183 38.2483 18.4183C38.9883 18.4183 39.5865 19.0158 39.5865 19.755V28.7898H47.9111L47.911 28.7823ZM47.6234 20.0232C48.9693 21.4862 49.9815 23.2442 50.457 25.0864L43.0259 25.0672L42.9416 16.7984C44.6785 17.4457 46.3044 18.5869 47.6234 20.0232ZM41.8373 13.7267C44.7476 14.2706 47.5045 15.9442 49.5905 18.2154C51.6611 20.4674 53.0913 23.3322 53.3751 26.2966C53.4441 27.0281 52.9073 27.6792 52.171 27.7482C52.1135 27.7558 52.0522 27.7558 51.9946 27.752L41.7073 27.7214C40.9749 27.7214 40.3806 27.1315 40.3729 26.4L40.2541 15.0442C40.2464 14.3089 40.8407 13.7076 41.577 13.7037C41.6652 13.7037 41.7495 13.7114 41.8339 13.7267V13.7229L41.8373 13.7267ZM7.08226 11.3292H1.4686C1.06598 11.3292 0.697878 11.4939 0.433294 11.762C0.164881 12.0301 0 12.3939 0 12.7961C0 13.1982 0.164881 13.5659 0.433294 13.8302C0.701706 14.0983 1.06597 14.2629 1.4686 14.2629H7.08226C7.48487 14.2629 7.85298 14.0983 8.11756 13.8302C8.38598 13.5621 8.55086 13.1982 8.55086 12.7961C8.55086 12.3939 8.38598 12.0262 8.11756 11.762C7.84915 11.4939 7.48488 11.3292 7.08226 11.3292ZM7.08226 33.4858H1.4686C1.06598 33.4858 0.697878 33.6504 0.433294 33.9185C0.164881 34.1866 0 34.5505 0 34.9526C0 35.3548 0.164881 35.7225 0.433294 35.9867C0.701706 36.2548 1.06597 36.4195 1.4686 36.4195H7.08226C7.48487 36.4195 7.85298 36.2548 8.11756 35.9867C8.38598 35.7186 8.55086 35.3548 8.55086 34.9526C8.55086 34.5505 8.38598 34.1828 8.11756 33.9185C7.84915 33.6504 7.48488 33.4858 7.08226 33.4858ZM7.08226 54.256H1.4686C1.06598 54.256 0.697878 54.4206 0.433294 54.6887C0.164881 54.9568 0 55.3207 0 55.7228C0 56.125 0.164881 56.4927 0.433294 56.7569C0.701706 57.025 1.06597 57.1897 1.4686 57.1897H7.08226C7.48487 57.1897 7.85298 57.025 8.11756 56.7569C8.38598 56.4888 8.55086 56.125 8.55086 55.7228C8.55086 55.3207 8.38598 54.953 8.11756 54.6887C7.84915 54.4206 7.48488 54.256 7.08226 54.256ZM17.6925 69.9052H8.91552C8.01059 69.9052 7.18621 69.5337 6.58801 68.9362C5.98982 68.3387 5.6179 67.5153 5.6179 66.6114V59.8669H7.0865C8.22919 59.8669 9.2645 59.3996 10.016 58.6528C10.7676 57.9021 11.2316 56.868 11.2316 55.7267C11.2316 54.5853 10.7638 53.5512 10.016 52.8006C9.26448 52.0499 8.22919 51.5865 7.0865 51.5865H5.6179V39.1012H7.0865C8.22919 39.1012 9.2645 38.634 10.016 37.8871C10.7676 37.1364 11.2316 36.1023 11.2316 34.961C11.2316 33.8196 10.7638 32.7855 10.016 32.0349C9.26448 31.2842 8.22919 30.8208 7.0865 30.8208H5.6179V16.9452H7.0865C8.22919 16.9452 9.2645 16.478 10.016 15.7311C10.7676 14.9804 11.2316 13.9464 11.2316 12.805C11.2316 11.6636 10.7638 10.6295 10.016 9.87889C9.26448 9.12823 8.22919 8.66478 7.0865 8.66478H5.6179V3.30673C5.6179 2.40286 5.98985 1.57944 6.58801 0.981944C7.18619 0.384467 8.01057 0.0129681 8.91552 0.0129681H17.6925V69.9134V69.9052ZM30.7293 54.3785H27.8267V64.0606H30.7293V54.3785ZM26.4885 51.7052H32.0676C32.8076 51.7052 33.4058 52.3027 33.4058 53.0418V65.3977C33.4058 66.1369 32.8076 66.7344 32.0676 66.7344H26.4885C25.7484 66.7344 25.1502 66.1369 25.1502 65.3977V53.0418C25.1502 52.3027 25.7484 51.7052 26.4885 51.7052ZM40.4843 49.8592H37.5817V64.0602H40.4843V49.8592ZM36.2435 47.1858H41.8226C42.5626 47.1858 43.1608 47.7833 43.1608 48.5225V65.4012C43.1608 66.1404 42.5626 66.7379 41.8226 66.7379H36.2435C35.5034 66.7379 34.9052 66.1404 34.9052 65.4012V48.5225C34.9052 47.7833 35.5034 47.1858 36.2435 47.1858ZM50.2118 45.7036H47.3092V64.0609H50.2118V45.7036ZM45.971 43.0303H51.5501C52.2901 43.0303 52.8883 43.6278 52.8883 44.367V65.397C52.8883 66.1362 52.2901 66.7337 51.5501 66.7337H45.971C45.2309 66.7337 44.6327 66.1362 44.6327 65.397V44.367C44.6327 43.6278 45.2309 43.0303 45.971 43.0303ZM40.1656 5.55394C39.4255 5.55394 38.8274 4.95646 38.8274 4.21727C38.8274 3.47808 39.4255 2.8806 40.1656 2.8806H53.2328C53.9729 2.8806 54.5711 3.47807 54.5711 4.21727C54.5711 4.95645 53.9729 5.55394 53.2328 5.55394H40.1656ZM27.4733 5.55394C26.7333 5.55394 26.1351 4.95646 26.1351 4.21727C26.1351 3.47808 26.7333 2.8806 27.4733 2.8806H32.4542C33.1943 2.8806 33.7925 3.47807 33.7925 4.21727C33.7925 4.95645 33.1943 5.55394 32.4542 5.55394H27.4733ZM40.1656 11.0001C39.4255 11.0001 38.8274 10.4027 38.8274 9.66346C38.8274 8.92427 39.4255 8.32679 40.1656 8.32679H53.2328C53.9729 8.32679 54.5711 8.92427 54.5711 9.66346C54.5711 10.4027 53.9729 11.0001 53.2328 11.0001H40.1656ZM27.4733 11.0001C26.7333 11.0001 26.1351 10.4027 26.1351 9.66346C26.1351 8.92427 26.7333 8.32679 27.4733 8.32679H32.4542C33.1943 8.32679 33.7925 8.92427 33.7925 9.66346C33.7925 10.4027 33.1943 11.0001 32.4542 11.0001H27.4733ZM71.1286 63.8571C71.1286 64.5963 70.5305 65.1938 69.7904 65.1938C69.0504 65.1938 68.4522 64.5963 68.4522 63.8571V63.2366C68.4253 63.2328 68.4023 63.2328 68.3755 63.229C67.5933 63.1371 66.8187 62.8536 66.14 62.3443C65.5495 61.9038 65.4307 61.0689 65.8716 60.4791C66.3126 59.8893 67.1485 59.7706 67.739 60.211C68.015 60.4178 68.341 60.5366 68.6784 60.5749C69.0388 60.617 69.4069 60.5672 69.7367 60.437C70.0396 60.3182 70.2965 60.1344 70.4729 59.9046C70.5956 59.7438 70.6761 59.5484 70.7029 59.3225C70.7145 59.2114 70.7068 59.3531 70.7106 59.2727C70.7451 58.8897 70.6646 58.5526 70.4806 58.3152C70.3042 58.0854 70.0013 57.9245 69.5795 57.8747C69.4644 57.8632 69.6063 57.8709 69.5258 57.8632C69.3839 57.8518 69.4491 57.8594 69.3992 57.8556C68.2527 57.7215 67.2558 57.1968 66.5656 56.4462C65.8371 55.6534 65.4383 54.6116 65.538 53.4971C65.5495 53.3707 65.538 53.4588 65.5456 53.3975C65.6338 52.643 65.9252 51.9805 66.3624 51.4328C66.8493 50.82 67.5051 50.3604 68.2413 50.0808C68.3141 50.054 68.3831 50.0272 68.456 50.0042V49.0697C68.456 48.3305 69.0542 47.733 69.7942 47.733C70.5343 47.733 71.1325 48.3305 71.1325 49.0697V49.9046C71.7421 50.0578 72.3327 50.3336 72.858 50.7511C73.437 51.2107 73.5328 52.0494 73.0727 52.6239C72.6126 53.2023 71.7728 53.298 71.1976 52.8384C70.9139 52.6125 70.5726 52.4861 70.2237 52.4439C69.8709 52.4056 69.5143 52.4516 69.1922 52.5742C68.8931 52.6891 68.6324 52.8652 68.4521 53.0912C68.3179 53.2597 68.2259 53.4665 68.1991 53.6963C68.1876 53.7959 68.1991 53.6389 68.1914 53.7231C68.1607 54.0563 68.2911 54.3781 68.5288 54.6347C68.8011 54.9334 69.2152 55.1402 69.6983 55.1977C69.8095 55.2092 69.6715 55.2015 69.752 55.2053C69.8977 55.2168 69.8249 55.2092 69.8785 55.2168C71.0672 55.3547 71.9836 55.8947 72.5895 56.6799C73.1876 57.4535 73.4599 58.4455 73.364 59.4949C73.3525 59.6328 73.3602 59.56 73.3563 59.6175C73.272 60.3298 73.0036 60.9579 72.6048 61.4942C72.2137 62.0112 71.7037 62.4287 71.1285 62.7236L71.1286 63.8571ZM76.0597 49.8697C74.3687 48.1807 72.0335 47.1351 69.4529 47.1351C66.8724 47.1351 64.5372 48.1807 62.8462 49.8697C61.1551 51.5588 60.1083 53.8912 60.1083 56.4688C60.1083 59.0463 61.1551 61.3788 62.8462 63.0678C64.5372 64.7569 66.8724 65.8024 69.4529 65.8024C72.0335 65.8024 74.3687 64.7569 76.0597 63.0678C77.7507 61.3788 78.7975 59.0463 78.7975 56.4688C78.7975 53.8912 77.7507 51.5588 76.0597 49.8697ZM69.4529 44.4619C66.1323 44.4619 63.13 45.8062 60.9559 47.9777C58.7818 50.1493 57.4359 53.152 57.4359 56.4649C57.4359 59.7816 58.7818 62.7804 60.9559 64.952C63.13 67.1235 66.1361 68.4678 69.4529 68.4678C72.7735 68.4678 75.7759 67.1235 77.95 64.952C80.124 62.7804 81.4699 59.7778 81.4699 56.4649C81.4699 53.1481 80.124 50.1493 77.95 47.9777C75.7759 45.8062 72.7697 44.4619 69.4529 44.4619ZM79.0313 46.9016C76.5811 44.4542 73.1953 42.9375 69.4529 42.9375C66.0671 42.9375 62.9727 44.1784 60.5993 46.2275L60.5877 46.239C60.3423 46.4496 60.1046 46.6718 59.8746 46.9016C57.4243 49.3489 55.9059 52.7307 55.9059 56.4688C55.9059 60.2068 57.4243 63.5886 59.8746 66.036C62.3248 68.4833 65.7105 70 69.4529 70C73.1953 70 76.5811 68.4833 79.0313 66.036C81.4815 63.5886 83 60.2068 83 56.4688C83 52.7307 81.4815 49.3489 79.0313 46.9016ZM58.1642 68.1081C58.0261 68.5753 57.7692 68.9469 57.428 69.2226C56.8605 69.6745 56.036 69.9081 55.0775 69.9081L20.3725 69.9043V0H55.0814C55.9863 0 56.8107 0.371508 57.4089 0.968975C58.0071 1.56644 58.379 2.38987 58.379 3.29376V44.6185C58.2448 44.7448 58.1106 44.8712 57.9802 45.0014C55.0431 47.9352 53.2294 51.9835 53.2294 56.4611C53.2294 60.9345 55.047 64.9866 57.9802 67.9208L58.1643 68.1047L58.1642 68.1081Z" fill="#C6A95F"/>
</svg>
