<svg width="91" height="73" viewBox="0 0 91 73" fill="none" xmlns="http://www.w3.org/2000/svg">
<path d="M54.0621 22.5526C54.3803 22.5764 54.6805 22.6942 54.9047 22.9139L57.1811 25.1552C57.778 25.7453 57.778 26.6943 57.1811 27.2844L46.3098 38.2848L43.4365 41.123C42.842 41.7131 41.8793 41.7131 41.2847 41.123L32.9854 32.8407C32.3953 32.2438 32.3953 31.2834 32.9854 30.6877L35.3037 28.3456C35.8926 27.751 36.8485 27.751 37.4386 28.3456L42.3753 33.2722L52.5739 23.0917C52.9522 22.718 53.5309 22.5118 54.0621 22.5526ZM45.0663 7.42858C44.9428 7.42858 44.8182 7.45802 44.7118 7.50446L24.2784 16.3723C23.8299 16.5252 23.5229 16.9544 23.5229 17.4278V23.4088C23.5229 32.4567 26.2184 39.5658 30.3896 44.7086C34.571 49.8572 39.4318 53.6037 45.0833 56.6831C50.746 53.6037 55.6012 49.864 59.7781 44.7086C63.9538 39.5533 66.6447 32.4511 66.6447 23.4088V17.4278C66.6447 16.9488 66.348 16.5252 65.8893 16.3723L45.4547 7.50446C45.32 7.44556 45.1909 7.42291 45.0663 7.42858Z" fill="#C6A95F"/>
<path d="M81.8683 7.16354C84.9409 10.0595 86.3917 13.3563 86.2264 16.3723C86.0565 19.3622 84.2739 21.9931 81.5037 23.2015C78.7312 24.4111 76.277 24.0159 74.483 22.5062C72.6721 20.9772 71.5033 18.3882 71.5157 15.114C71.5157 14.4481 72.0163 14.3643 72.3878 14.5002C74.8545 15.4277 76.8953 16.2285 78.6009 17.8163C77.8625 14.0517 79.6678 10.2225 80.8355 7.38665C81.037 6.88493 81.5501 6.86908 81.8683 7.16354Z" fill="#C6A95F"/>
<path d="M88.4813 39.1039C89.4315 43.2218 88.7939 46.7667 86.9818 49.179C85.1833 51.5744 82.2398 52.7658 79.2612 52.2358C76.2815 51.6978 74.4592 50.0058 73.8103 47.752C73.1557 45.4756 73.6211 42.6725 75.457 39.9612C75.8285 39.4051 76.2928 39.6124 76.525 39.9374C78.0517 42.0791 79.3077 43.8708 79.8456 46.1427C81.3191 42.6046 84.9477 40.4267 87.496 38.7154C87.9501 38.4153 88.3805 38.6803 88.4813 39.1039Z" fill="#C6A95F"/>
<path d="M81.9216 55.4847C81.0189 59.6071 78.9248 62.545 76.2532 63.9425C73.6053 65.3344 70.4262 65.151 67.9663 63.3944C65.5064 61.631 64.5845 59.324 64.9685 57.0125C65.3456 54.676 66.9742 52.3407 69.7954 50.6702C70.3673 50.335 70.6969 50.7189 70.7682 51.113C71.2348 53.7032 71.5939 55.8618 71.1046 58.145C73.9541 55.5775 78.166 55.1653 81.2024 54.7111C81.7381 54.6296 82.0144 55.0611 81.9216 55.4847Z" fill="#C6A95F"/>
<path fill-rule="evenodd" clip-rule="evenodd" d="M48.9599 69.1166C48.9599 71.2594 47.2248 73.0001 45.0832 73.0001C42.9415 73.0001 41.2087 71.2594 41.2087 69.1166C41.2087 66.975 42.9427 65.2422 45.0832 65.2422C47.2237 65.2422 48.9599 66.975 48.9599 69.1166Z" fill="#C6A95F"/>
<path d="M74.6474 12.5139C69.1569 10.7788 68.6721 7.11053 68.6721 1.21222C68.6721 0.00378798 68.8737 -0.120792 69.8047 0.0751388C75.9929 1.37757 78.4834 7.08221 76.2058 11.9669C75.8287 12.7608 75.3677 12.737 74.6474 12.5139Z" fill="#C6A95F"/>
<path d="M87.607 22.0518C89.9729 25.5446 90.6637 29.0827 89.837 31.9854C89.0227 34.8655 86.7044 37.0468 83.7314 37.6198C80.7585 38.1918 78.4526 37.2653 77.0358 35.3955C75.6088 33.5144 75.0301 30.7238 75.7628 27.5334C75.9146 26.8833 76.4163 26.9139 76.7538 27.1324C78.9487 28.5776 80.7653 29.7985 82.0858 31.7261C82.1866 27.8924 84.787 24.5536 86.5515 22.0405C86.864 21.5977 87.3646 21.6872 87.607 22.0518Z" fill="#C6A95F"/>
<path d="M69.7888 68.1797C67.0571 71.3938 63.835 73.01 60.8156 72.9998C57.8257 72.9805 55.1064 71.3349 53.7564 68.6281C52.4053 65.9202 52.6771 63.449 54.0917 61.5792C55.5243 59.6969 58.0556 58.3933 61.323 58.2404C61.9901 58.2121 62.1022 58.707 61.9776 59.0842C61.1803 61.5905 60.486 63.6732 58.9865 65.4536C62.7024 64.5215 66.6199 66.1388 69.517 67.1524C70.03 67.337 70.0708 67.8422 69.7888 68.1797Z" fill="#C6A95F"/>
<path d="M8.29919 7.16354C5.22658 10.0595 3.78145 13.3563 3.94567 16.3723C4.11102 19.3622 5.89252 21.9931 8.67066 23.2015C11.4431 24.4111 13.8974 24.0159 15.6891 22.5062C17.4955 20.9772 18.6688 18.3882 18.6507 15.114C18.6507 14.4481 18.149 14.3643 17.7775 14.5002C15.3176 15.4277 13.2779 16.2285 11.5677 17.8163C12.3107 14.0517 10.4997 10.2225 9.3366 7.38665C9.13161 6.88493 8.61743 6.86908 8.29919 7.16354Z" fill="#C6A95F"/>
<path d="M1.68723 39.1039C0.743816 43.2218 1.37465 46.7667 3.18559 49.179C4.98521 51.5744 7.93436 52.7658 10.9118 52.2358C13.8916 51.6978 15.7082 50.0058 16.3571 47.752C17.0117 45.4756 16.5463 42.6725 14.7115 39.9612C14.3401 39.4051 13.8791 39.6124 13.6435 39.9374C12.1146 42.0791 10.8586 43.8708 10.3297 46.1427C8.85399 42.6046 5.22078 40.4267 2.67141 38.7154C2.22406 38.4153 1.78576 38.6803 1.68723 39.1039Z" fill="#C6A95F"/>
<path d="M8.24594 55.4847C9.15424 59.6071 11.2483 62.545 13.9155 63.9425C16.5702 65.3344 19.7436 65.151 22.2023 63.3944C24.6679 61.631 25.5818 59.324 25.2036 57.0125C24.8208 54.676 23.199 52.3407 20.3789 50.6702C19.807 50.335 19.4763 50.7189 19.4049 51.113C18.9395 53.7032 18.5748 55.8618 19.0629 58.145C16.2134 55.5775 12.0026 55.1653 8.96963 54.7111C8.43507 54.6296 8.1508 55.0611 8.24594 55.4847Z" fill="#C6A95F"/>
<path d="M15.519 12.5139C21.0108 10.7788 21.5012 7.11053 21.5012 1.21222C21.5012 0.00378798 21.2939 -0.120792 20.3686 0.0751388C14.1758 1.37757 11.6854 7.08221 13.9686 11.9669C14.3389 12.7608 14.7999 12.737 15.519 12.5139Z" fill="#C6A95F"/>
<path d="M2.56063 22.0518C0.19587 25.5446 -0.488188 29.0827 0.331776 31.9854C1.15174 34.8655 3.47007 37.0468 6.44187 37.6198C9.40915 38.1918 11.7173 37.2653 13.1375 35.3955C14.5645 33.5144 15.1364 30.7238 14.4059 27.5334C14.2576 26.8833 13.7502 26.9139 13.4218 27.1324C11.2224 28.5776 9.40348 29.7985 8.0886 31.7261C7.98327 27.8924 5.38067 24.5536 3.62296 22.0405C3.30811 21.5977 2.80753 21.6872 2.56063 22.0518Z" fill="#C6A95F"/>
<path d="M20.3802 68.1797C23.1119 71.3938 26.3374 73.01 29.3511 72.9998C32.3422 72.9805 35.0682 71.3349 36.4182 68.6281C37.7693 65.9202 37.4918 63.449 36.075 61.5792C34.6412 59.6969 32.1168 58.3933 28.8426 58.2404C28.1766 58.2121 28.0713 58.707 28.1891 59.0842C28.9909 61.5905 29.6807 63.6732 31.1858 65.4536C27.4631 64.5215 23.5536 66.1388 20.6577 67.1524C20.1446 67.337 20.0959 67.8422 20.3802 68.1797Z" fill="#C6A95F"/>
</svg>
