<svg width="62" height="84" viewBox="0 0 62 84" fill="none" xmlns="http://www.w3.org/2000/svg">
<path fill-rule="evenodd" clip-rule="evenodd" d="M57.3965 30.6639H53.6418V28.2007C53.6418 27.1715 54.484 26.3342 55.5191 26.3342C56.5543 26.3342 57.3964 27.1715 57.3964 28.2007L57.3965 30.6639ZM51.5223 30.6639V27.3354C51.5223 26.2294 50.617 25.3293 49.5046 25.3293C48.3922 25.3293 47.4869 26.2294 47.4869 27.3354V31.6547C48.2098 31.0371 49.1502 30.6638 50.1749 30.6638L51.5223 30.6639ZM41.6902 28.0298V33.8109C41.6902 34.8192 42.5149 35.6392 43.529 35.6392C44.5431 35.6392 45.3713 34.8193 45.3713 33.8109V28.0298C45.3713 27.0215 44.5431 26.2016 43.529 26.2016C42.5149 26.2016 41.6902 27.0215 41.6902 28.0298ZM38.0057 27.7611C37.146 27.7611 36.4441 28.4589 36.4441 29.3137V34.1319C36.4441 34.9901 37.1459 35.6845 38.0057 35.6845C38.8689 35.6845 39.5707 34.9867 39.5707 34.1319V29.3137C39.5707 28.4554 38.8689 27.7611 38.0057 27.7611ZM39.9426 2.87142C39.9426 1.84223 39.1005 1.0049 38.0653 1.0049C37.0302 1.0049 36.188 1.84223 36.188 2.87142V5.33458H39.9427L39.9426 2.87142ZM34.0684 5.33458V2.00613C34.0684 0.900128 33.1631 0 32.0507 0C30.9383 0 30.033 0.900128 30.033 2.00613V6.32885C30.7559 5.71131 31.6963 5.33798 32.7209 5.33798H34.0649L34.0684 5.33458ZM26.0748 10.3098C27.0889 10.3098 27.9136 9.48986 27.9136 8.48154V2.70038C27.9136 1.69209 27.089 0.872172 26.0748 0.872172C25.0607 0.872172 24.2361 1.69207 24.2361 2.70038V8.48154C24.2361 9.48983 25.0607 10.3098 26.0748 10.3098ZM20.5516 10.3551C21.4148 10.3551 22.1166 9.65733 22.1166 8.80253V3.98437C22.1166 3.1261 21.4148 2.43179 20.5516 2.43179C19.6884 2.43179 18.99 3.12957 18.99 3.98437V8.80253C18.99 9.6608 19.6919 10.3551 20.5516 10.3551ZM21.7061 29.8617L21.6605 32.8412H34.3178V29.314C34.3178 27.2939 35.9705 25.6506 38.0024 25.6506C38.5357 25.6506 39.041 25.7657 39.5008 25.9681C39.964 25.2528 40.4166 24.6109 40.8587 23.9863C42.5326 21.6244 43.8555 19.7612 44.3994 15.5362C44.7538 12.8044 44.4661 10.4948 43.5923 9.03294C42.9537 7.95838 41.8273 7.43847 40.1499 7.43847H32.7213C31.6089 7.43847 30.7036 8.3386 30.7036 9.4446C30.7036 10.5506 31.6089 11.4507 32.7213 11.4507H36.5708C37.5287 11.4507 38.1358 11.7682 38.3709 12.3962C38.5323 12.8358 38.5393 13.5196 37.634 14.2942C37.4796 14.4268 37.3217 14.5594 37.1568 14.6989C35.2198 16.3247 32.8126 18.3518 32.1424 22.4513C32.0476 23.0269 31.5037 23.4142 30.9247 23.3235C30.3457 23.2293 29.9527 22.6885 30.0474 22.1128C30.7738 17.6644 33.2196 15.2746 35.2268 13.558H32.7178C31.0544 13.558 29.6158 12.5741 28.9596 11.1611C28.2367 11.9322 27.2086 12.4136 26.068 12.4136C24.9768 12.4136 23.9837 11.9705 23.2678 11.2553C22.5941 11.9914 21.6256 12.459 20.5448 12.459C20.0535 12.459 19.5869 12.3613 19.1622 12.1869C18.1656 21.6731 19.4219 23.756 20.4465 25.4485C21.0817 26.4987 21.7379 27.5837 21.7028 29.8585L21.7061 29.8617ZM21.1412 40.8521C21.1412 39.8229 20.299 38.9856 19.2638 38.9856C18.2287 38.9856 17.3865 39.8229 17.3865 40.8521V43.3153H21.1412L21.1412 40.8521ZM15.267 43.3153V39.9868C15.267 38.8808 14.3616 37.9807 13.2492 37.9807C12.1368 37.9807 11.2315 38.8808 11.2315 39.9868V44.3095C11.9544 43.692 12.8948 43.3186 13.9195 43.3186H15.2634L15.267 43.3153ZM7.27334 48.2904C8.28746 48.2904 9.11211 47.4705 9.11211 46.4622V40.6811C9.11211 39.6728 8.28749 38.8528 7.27334 38.8528C6.25923 38.8528 5.43458 39.6727 5.43458 40.6811V46.4622C5.43458 47.4705 6.25921 48.2904 7.27334 48.2904ZM1.75012 48.3358C2.61335 48.3358 3.31167 47.6415 3.31167 46.7832V41.9685C3.31167 41.1102 2.60985 40.4159 1.75012 40.4159C0.886887 40.4159 0.188569 41.1137 0.188569 41.9685V46.7832C0.188569 47.6415 0.890382 48.3358 1.75012 48.3358ZM2.90464 67.8424L2.85902 70.8219H17.9867C18.106 69.2938 18.5166 67.8913 19.2499 66.4503C20.2009 64.5873 21.1869 63.1987 22.0572 61.9706C23.731 59.6121 25.0539 57.7455 25.5978 53.5205C25.9522 50.7887 25.6645 48.479 24.7907 47.0172C24.1486 45.9426 23.0257 45.4227 21.3484 45.4227H13.9197C12.8073 45.4227 11.902 46.3229 11.902 47.4289C11.902 48.5349 12.8073 49.435 13.9197 49.435H17.7692C18.7272 49.435 19.3343 49.7525 19.5693 50.384C19.7343 50.8201 19.7378 51.5074 18.8324 52.2819C18.678 52.411 18.5201 52.5471 18.3552 52.6832C16.4218 54.3125 14.011 56.336 13.3443 60.4355C13.2495 61.0112 12.7056 61.4019 12.1266 61.3078C11.5476 61.2136 11.1546 60.6693 11.2494 60.0971C11.9757 55.6487 14.4215 53.2589 16.4287 51.5423H13.9197C12.2564 51.5423 10.8177 50.5584 10.1615 49.1454C9.43863 49.9165 8.41049 50.3944 7.26999 50.3944C6.17871 50.3944 5.18561 49.9513 4.46974 49.2396C3.796 49.9757 2.82753 50.4398 1.74676 50.4398C1.25549 50.4398 0.792293 50.3421 0.364154 50.1711C-0.632441 59.6574 0.623821 61.7402 1.64848 63.4328C2.28362 64.483 2.93976 65.5711 2.90464 67.8424ZM18.1653 72.9292H2.52195C1.6868 72.9292 1.00954 73.6061 1.00954 74.433V83.9925H19.6739V74.433C19.6739 73.6026 18.9967 72.9292 18.1615 72.9292H18.1653ZM34.6863 35.7201C34.567 35.4759 34.4757 35.2212 34.4126 34.9526H21.3205C20.4853 34.9526 19.8081 35.6259 19.8081 36.4563V36.9168C21.7521 37.1855 23.2574 38.8462 23.2574 40.8523V43.5353C25.0611 43.9783 26.0647 45.0285 26.6121 45.9426C27.7245 47.8091 28.1105 50.5968 27.6999 53.7927C27.0893 58.5341 25.4857 60.7984 23.7908 63.1887C22.9205 64.4168 22.0221 65.6833 21.1414 67.4103C20.4747 68.7117 20.1413 69.9782 20.0817 71.3737C21.1098 72.0157 21.8012 73.1461 21.8012 74.4405V84H35.1457V61.7898C35.1457 60.4431 35.8896 59.2743 36.988 58.6498L37.0406 55.1644C37.0652 53.4932 36.6546 52.8164 36.0861 51.8743C34.8439 49.8194 33.2999 47.2654 34.6895 35.7278L34.6863 35.7201ZM54.4179 60.2785H38.7781C37.943 60.2785 37.2657 60.9519 37.2657 61.7822V83.9925H55.9301V61.7822C55.9301 60.9519 55.253 60.2785 54.4179 60.2785ZM61.043 34.3661C60.4043 33.2916 59.278 32.7716 57.6006 32.7716H50.1755C49.0631 32.7716 48.1577 33.6718 48.1577 34.7778C48.1577 35.8838 49.0631 36.7839 50.1755 36.7839H54.0249C54.9829 36.7839 55.59 37.1014 55.8251 37.7329C55.9865 38.169 55.9935 38.8563 55.0882 39.6309C54.9338 39.7634 54.7759 39.896 54.611 40.0356C52.6775 41.6614 50.2668 43.6884 49.6 47.7879C49.5053 48.3636 48.9579 48.7543 48.3824 48.6602C47.8034 48.566 47.4104 48.0252 47.5051 47.4495C48.2315 43.0011 50.6773 40.6113 52.6845 38.8947H50.1754C48.5086 38.8947 47.0735 37.9108 46.4172 36.4978C45.6944 37.2654 44.6662 37.7503 43.5257 37.7503C42.4344 37.7503 41.4414 37.3072 40.7255 36.5919C40.0517 37.3281 39.0833 37.7957 38.0025 37.7957C37.5112 37.7957 37.0445 37.698 36.6199 37.527C35.6233 47.0133 36.8796 49.0961 37.9042 50.7887C38.5394 51.8388 39.1956 52.9273 39.1604 55.1986L39.1148 58.1781H54.2425C54.3618 56.65 54.7689 55.2475 55.5057 53.8066C56.4602 51.9435 57.4427 50.5549 58.313 49.3268C59.9868 46.9684 61.3097 45.1017 61.8536 40.8767C62.2045 38.1449 61.9203 35.8353 61.0465 34.3734L61.043 34.3661Z" fill="#C6A95F"/>
</svg>
