<svg width="67" height="72" viewBox="0 0 67 72" fill="none" xmlns="http://www.w3.org/2000/svg">
<path d="M29.5958 46.5466C29.5958 50.2988 31.0893 53.8991 33.7418 56.5511C36.3974 59.2065 39.9949 60.6968 43.7504 60.6968C47.5029 60.6968 51.1004 59.2065 53.7558 56.5511C56.4083 53.8989 57.9018 50.2986 57.9018 46.5466C57.9018 42.7944 56.4083 39.1941 53.7558 36.5421C51.1002 33.8867 47.5027 32.3964 43.7504 32.3964C39.9948 32.3964 36.3973 33.8867 33.7418 36.5421C31.0893 39.1944 29.5958 42.7947 29.5958 46.5466ZM51.6896 38.6147C55.4793 42.404 56.0619 48.344 53.0809 52.7994C50.1031 57.2549 44.3892 58.9838 39.4408 56.9295C34.4892 54.8753 31.6818 49.6079 32.7291 44.3534C33.7796 39.0985 38.3966 35.3182 43.757 35.3245C46.7349 35.3183 49.5888 36.4988 51.6896 38.6057V38.6147ZM66.142 71.1356C65.5905 71.6871 64.8406 72 64.0597 72C63.2789 72 62.5321 71.6871 61.9774 71.1356L51.182 60.3252C52.9296 59.3832 54.4821 58.1222 55.7587 56.604L66.1424 66.9623C67.2858 68.1149 67.2858 69.9709 66.1424 71.1203L66.142 71.1356ZM36.8628 53.4315C40.1474 56.7065 45.288 57.2085 49.1425 54.6306C52.9973 52.0496 54.4939 47.1076 52.7183 42.8223C50.9397 38.5373 46.3846 36.1049 41.8356 37.0097C37.2836 37.9145 34.0084 41.9083 34.0084 46.5463C34.0022 49.1304 35.0315 51.6096 36.8628 53.4315ZM37.0364 45.6173H37.0395C37.1696 45.3168 37.3617 45.0472 37.6034 44.8241C38.4462 44.0433 39.4254 43.4175 40.4883 42.9775C42.5768 42.1223 44.9162 42.1223 47.0016 42.9775C48.0676 43.4206 49.0467 44.0434 49.8989 44.8241C50.1344 45.0503 50.3234 45.3199 50.4535 45.6173C50.7076 46.2153 50.7076 46.8877 50.4535 47.4826C50.3234 47.7831 50.1344 48.0527 49.8989 48.2758C49.0406 49.0504 48.0552 49.667 46.9861 50.1007C44.9007 50.9559 42.5612 50.9559 40.4727 50.1007C39.4099 49.6608 38.4307 49.0349 37.5848 48.251C37.3462 48.0279 37.154 47.7584 37.0239 47.4578C36.7698 46.8629 36.7698 46.1905 37.0239 45.5957L37.0364 45.6173ZM5.15682 11.6774C4.87794 11.9563 4.71991 12.3374 4.71991 12.7339V65.2488C4.71991 66.0792 5.39233 66.7484 6.21965 66.7484H46.2729C46.6696 66.7515 47.0507 66.5904 47.3265 66.3054C47.6115 66.0265 47.7758 65.6485 47.7789 65.2488V61.6795C44.1813 62.6307 40.3637 62.2713 37.008 60.6663C33.6521 59.0614 30.9779 56.313 29.4627 52.9141C27.9475 49.5152 27.6934 45.6886 28.7407 42.1196H9.16943C8.95872 42.1413 8.74801 42.0731 8.58997 41.9306C8.43194 41.788 8.33898 41.5835 8.33898 41.3729C8.33898 41.1591 8.43194 40.9546 8.58997 40.812C8.74801 40.6695 8.95871 40.6014 9.16943 40.6231H9.79536L9.79845 35.5231C9.80465 34.86 10.3407 34.324 11.0038 34.3147H15.2552C15.9183 34.3209 16.4544 34.86 16.4544 35.5231V40.6231H18.5553V25.5524C18.5583 24.8924 19.0944 24.3564 19.7544 24.3533H23.981C24.6379 24.3657 25.1647 24.8955 25.1802 25.5524V40.6231H27.281V30.5257C27.281 30.2097 27.4081 29.906 27.6312 29.6829C27.8512 29.4537 28.158 29.3266 28.4802 29.3266H32.7068C33.0259 29.3235 33.3327 29.4537 33.5558 29.6829C33.7789 29.906 33.9029 30.2097 33.906 30.5257V34.3956C34.566 33.8627 35.2725 33.3856 36.0162 32.9672V20.5458C36.01 20.2205 36.1401 19.9045 36.3694 19.6752C36.6018 19.4459 36.9179 19.3188 37.2433 19.325H41.4885C42.1485 19.3281 42.6815 19.8642 42.6846 20.5241V30.9165H43.7474L43.7505 30.9134C45.1077 30.9134 46.4587 31.09 47.7695 31.437V12.7352C47.7633 11.9109 47.097 11.2448 46.2728 11.2355H36.9583C36.8871 12.8065 35.5949 14.0427 34.0239 14.052H18.4689C16.8947 14.0489 15.6026 12.8065 15.5345 11.2355H6.22001C5.82028 11.2386 5.43914 11.3967 5.1572 11.6786L5.15682 11.6774ZM9.16961 45.2612H25.5679C25.7786 45.2395 25.9924 45.3076 26.1504 45.4533C26.3085 45.5958 26.3983 45.7972 26.3983 46.011C26.3983 46.2248 26.3085 46.4293 26.1504 46.5718C25.9924 46.7143 25.7786 46.7825 25.5679 46.7608H9.16961C8.9589 46.7825 8.74819 46.7143 8.59016 46.5718C8.43212 46.4293 8.33916 46.2248 8.33916 46.011C8.33916 45.7972 8.43212 45.5958 8.59016 45.4533C8.74819 45.3076 8.95889 45.2395 9.16961 45.2612ZM9.16961 49.9088H26.0264C26.2402 49.8871 26.4509 49.9584 26.6089 50.1009C26.767 50.2434 26.8599 50.4448 26.8599 50.6586C26.8599 50.8724 26.767 51.0769 26.6089 51.2194C26.4509 51.362 26.2402 51.4301 26.0264 51.4084H9.16961C8.9589 51.4301 8.74819 51.3619 8.59016 51.2194C8.43212 51.0769 8.33916 50.8724 8.33916 50.6586C8.33916 50.4448 8.43212 50.2434 8.59016 50.1009C8.74819 49.9584 8.95889 49.8871 9.16961 49.9088ZM9.16961 54.5502H27.8049C28.1891 54.5905 28.4804 54.9128 28.4804 55.3001C28.4804 55.6874 28.1891 56.0096 27.8049 56.0499H9.16961C8.9589 56.0716 8.74819 56.0034 8.59016 55.8578C8.43212 55.7152 8.33916 55.5138 8.33916 55.3001C8.33916 55.0863 8.43212 54.8818 8.59016 54.7392C8.74819 54.5967 8.95889 54.5285 9.16961 54.5502ZM9.16961 59.1979H31.5792C31.793 59.1762 32.0037 59.2444 32.1618 59.3869C32.3198 59.5325 32.4127 59.7339 32.4127 59.9477C32.4127 60.1615 32.3198 60.3629 32.1618 60.5085C32.0037 60.651 31.793 60.7192 31.5792 60.6975H9.16961C8.9589 60.7192 8.74819 60.651 8.59016 60.5085C8.43212 60.3629 8.33916 60.1615 8.33916 59.9477C8.33916 59.7339 8.43212 59.5325 8.59016 59.3869C8.74819 59.2443 8.95889 59.1762 9.16961 59.1979ZM47.3421 48.2669C47.6054 47.734 47.7418 47.1421 47.7387 46.5472C47.7387 45.9493 47.6023 45.3636 47.3421 44.8245C47.9122 45.1406 48.4421 45.5186 48.9286 45.9524C49.0122 46.0267 49.0742 46.1197 49.1207 46.2219C49.1672 46.3242 49.1889 46.4357 49.1827 46.5472C49.1889 46.6619 49.1672 46.7765 49.1207 46.8788C49.0742 46.981 49.0122 47.074 48.9286 47.1483C48.4452 47.5821 47.9123 47.957 47.3421 48.2669ZM41.9876 48.3072C41.3957 47.7216 41.1354 46.8757 41.2966 46.0578C41.4577 45.2398 42.0155 44.5581 42.787 44.239C43.5555 43.9198 44.4355 44.0066 45.1265 44.4682C45.8206 44.933 46.2358 45.7138 46.2327 46.5473C46.2358 47.2072 45.9755 47.8424 45.5107 48.3103C45.0428 48.7782 44.4107 49.0384 43.7506 49.0384C43.0875 49.0384 42.4555 48.775 41.9876 48.3072ZM38.4117 46.8788C38.3683 46.7734 38.3466 46.6619 38.3466 46.5473C38.3466 46.4357 38.3683 46.3242 38.4117 46.2219C38.4582 46.1197 38.5264 46.0298 38.61 45.9524C39.081 45.5217 39.5954 45.1437 40.147 44.8245C39.8929 45.3636 39.7596 45.9524 39.7596 46.5473C39.7565 47.1422 39.8898 47.7309 40.147 48.2669C39.5954 47.954 39.0779 47.5791 38.61 47.1483C38.5264 47.074 38.4582 46.981 38.4117 46.8788ZM11.2886 40.6231V35.8144H14.9295V40.62L11.2886 40.6231ZM20.0145 25.8372H23.6648V40.6231H20.0145V25.8372ZM49.7459 61.0074L52.4913 63.7432V65.249C52.4851 68.6821 49.7025 71.4644 46.2723 71.4675H6.219C2.78569 71.4644 0.00618743 68.6821 0 65.249V12.7342C0.00619774 9.30113 2.78569 6.51877 6.219 6.51568H15.5335V9.73493H6.219C4.56434 9.73803 3.22571 11.0796 3.21952 12.7342V65.249C3.21952 66.0453 3.53559 66.8075 4.10266 67.3684C4.66352 67.9292 5.42582 68.2483 6.21908 68.2483H46.2724C47.9239 68.2452 49.2656 66.9036 49.2687 65.2491V61.1964C49.4268 61.1437 49.5878 61.0817 49.7459 61.0074ZM41.1937 31.1112C39.9357 31.3156 38.7055 31.6751 37.5373 32.1832V20.8493H41.1937V31.1112ZM17.0303 11.114V5.84051C17.0303 5.04732 17.6748 4.40595 18.468 4.40595H21.1639C21.5388 4.40904 21.858 4.13329 21.9106 3.76148C22.2174 1.60495 24.0642 0 26.2456 0C28.424 0 30.2739 1.60495 30.5807 3.76148C30.6271 4.13329 30.9463 4.40905 31.3181 4.40595H34.0233C34.4044 4.40595 34.7701 4.55467 35.0396 4.82423C35.3092 5.09379 35.458 5.4594 35.458 5.84047V11.1542C35.4549 11.9474 34.8134 12.5857 34.0233 12.5919H18.4682C18.0809 12.5888 17.7091 12.4308 17.4395 12.155C17.1699 11.8762 17.0241 11.5013 17.0303 11.114ZM32.4465 30.8264V35.7281C31.0862 37.1441 30.0109 38.8048 29.2734 40.6236H28.7962V30.8261L32.4465 30.8264ZM46.273 9.73541H36.9585V6.51616H46.273C49.7032 6.51925 52.4858 9.30161 52.492 12.7346V33.6027C51.4849 32.9304 50.4035 32.3726 49.2694 31.9451V12.7348C49.2663 11.0803 47.9246 9.7385 46.273 9.73541Z" fill="#C6A95F"/>
</svg>
