<svg width="56" height="55" viewBox="0 0 56 55" fill="none" xmlns="http://www.w3.org/2000/svg">
<path d="M25.9241 14.5615L38.0919 19.6384C38.2638 19.7107 38.3998 19.8477 38.4717 20.0209C38.5435 20.1941 38.5436 20.388 38.4717 20.5638C38.3639 20.83 38.1073 21.0006 37.8224 21.0006C37.73 21.0006 37.6402 20.9825 37.5529 20.9463L25.3851 15.8695L25.9215 14.5615L25.9241 14.5615ZM51.6755 0.00046322H51.6601C49.5787 0.0599171 47.4794 1.51268 47.4794 4.62494V31.2112H53.4156C54.84 31.2112 55.9974 30.0454 55.9974 28.6108L56 4.62779C56 1.45862 53.7594 0.00820564 51.6755 0.00046322ZM14.7595 27.7058H38.9506V25.4181L14.7595 25.4207V27.7084V27.7058ZM26.4648 10.7922L27.0448 9.38084L22.2019 7.35941L21.6219 8.77078L21.6142 9.51782L25.9489 11.3247L26.4674 10.7922L26.4648 10.7922ZM25.179 12.5758L21.2755 10.9473L19.5611 15.1143L23.4646 16.7428L25.179 12.5758ZM47.8255 0L47.2377 0.7755C46.4422 1.82754 46.0392 3.12006 46.0392 4.62448V50.8977C46.0392 53.1595 44.2119 55 41.9663 55C39.7206 55 37.8934 53.1595 37.8934 50.8977V46.8109C37.8934 46.4102 37.57 46.0845 37.1722 46.0845L7.45303 46.0819V4.62487C7.45303 1.81503 9.09555 0.000392538 11.6389 0.000392538H47.8283L47.8255 0ZM16.6175 19.6247L22.3817 22.0313C22.4972 22.0778 22.6153 22.1037 22.7385 22.1037C23.1209 22.1037 23.4622 21.8736 23.6085 21.5195L24.5042 19.3429C24.5401 19.2576 24.5581 19.1672 24.5581 19.0741L24.5735 17.8385L24.8327 17.2078L37.0005 22.2846C37.2623 22.3932 37.5369 22.4475 37.8166 22.4475C38.6866 22.4475 39.4668 21.9253 39.7979 21.1162C40.2496 20.0176 39.7312 18.7536 38.6379 18.2987L26.4701 13.2218L26.7293 12.5911L27.5865 11.7071C27.6507 11.6398 27.702 11.5649 27.7379 11.477L28.5617 9.47369C28.7568 8.99806 28.5361 8.45004 28.069 8.24324L22.2868 5.83151C22.1713 5.7824 22.0507 5.75913 21.9275 5.75913C21.8043 5.75913 21.6837 5.78498 21.5682 5.83151C21.3372 5.92715 21.155 6.11069 21.06 6.34333L20.2362 8.34663C20.2003 8.43194 20.1823 8.5224 20.1823 8.61547L20.1669 9.85108L18.0085 15.0985L17.1513 15.9825C17.0871 16.0498 17.0358 16.1247 16.9999 16.2126L16.1042 18.3892C15.9066 18.8725 16.135 19.4257 16.6123 19.6273L16.6175 19.6247ZM40.352 42.1552C40.352 41.7545 40.0286 41.4288 39.6308 41.4288H14.079C13.6812 41.4288 13.3578 41.7545 13.3578 42.1552C13.3578 42.5559 13.6812 42.8816 14.079 42.8816H39.6334C40.0312 42.8816 40.3546 42.5559 40.3546 42.1552H40.352ZM40.352 38.0865C40.352 37.6858 40.0286 37.3601 39.6308 37.3601L14.079 37.3627C13.6812 37.3627 13.3578 37.6884 13.3578 38.0891C13.3578 38.4898 13.6812 38.8155 14.079 38.8155H39.6334C40.0312 38.8155 40.3546 38.4898 40.3546 38.0891L40.352 38.0865ZM40.3905 34.0204C40.3905 33.6197 40.0671 33.294 39.6693 33.294H14.1175C13.7197 33.294 13.3963 33.6197 13.3963 34.0204C13.3963 34.4211 13.7197 34.7468 14.1175 34.7468H39.6719C40.0697 34.7468 40.3931 34.4211 40.3931 34.0204H40.3905ZM40.3905 24.6938C40.3905 24.2931 40.0671 23.9674 39.6693 23.9674H14.0407C13.6429 23.9674 13.3195 24.2931 13.3195 24.6938V28.4316C13.3195 28.8322 13.6428 29.158 14.0407 29.158H39.6719C40.0697 29.158 40.3931 28.8323 40.3931 28.4316V24.6938H40.3905ZM36.4561 50.8949V47.5319H0V50.8949C0 53.1568 1.82727 54.9972 4.07293 54.9972H38.1375L37.5601 54.2243C36.8389 53.2576 36.4561 52.1072 36.4561 50.8949ZM23.1234 18.9167L23.1311 18.1697L18.7964 16.3628L18.278 16.8953L17.6261 18.4773L22.469 20.4987L23.1208 18.9167L23.1234 18.9167Z" fill="#C6A95F"/>
</svg>
