<svg width="77" height="77" viewBox="0 0 77 77" fill="none" xmlns="http://www.w3.org/2000/svg">
<path fill-rule="evenodd" clip-rule="evenodd" d="M14.2863 30.5634L7.19733 29.1469C6.4356 28.9943 5.69009 29.4946 5.53774 30.258L0.0273732 57.9724C-0.12497 58.7359 0.374204 59.4831 1.1359 59.6358L8.22487 61.0522C8.9866 61.2049 9.73212 60.7046 9.88447 59.9412L15.3948 32.2267C15.5439 31.4632 15.048 30.7128 14.2863 30.5634ZM38.4998 13.7903C44.665 13.7903 49.6631 18.7998 49.6631 24.982C49.6631 27.045 49.1056 28.9779 48.1331 30.638C47.07 30.0175 45.9743 29.2476 44.8464 28.3152C43.7994 27.4478 42.6131 26.863 41.3845 26.5804L44.9047 23.0199C45.6827 22.2369 45.6794 20.9667 44.8982 20.1871C44.1171 19.4074 42.8496 19.4106 42.0718 20.1936L36.7915 25.5344L34.9083 23.6925C34.1174 22.9225 32.8532 22.9388 32.0818 23.7314C31.3136 24.5241 31.3298 25.7912 32.1207 26.5643L34.3022 28.6954L32.0008 30.6219H28.8599C27.8907 28.965 27.3364 27.0353 27.3364 24.9789C27.3364 18.7998 32.3348 13.7903 38.4998 13.7903ZM36.6069 30.0211L26.6784 38.328C25.855 39.0168 25.3558 39.9264 25.5892 40.9952L28.3153 53.5126C33.8711 51.5471 33.8095 46.8463 34.3055 41.8793C34.4546 40.4856 35.44 39.6019 36.8241 39.5012C39.2356 39.3258 42.3863 41.4861 44.6359 43.5394C50.412 48.8055 56.5352 55.6376 62.1131 61.3129L64.3886 59.0323L59.6205 35.0404C53.8962 36.2132 48.6032 34.6505 43.2643 30.2388C41.2838 28.5982 38.6197 28.335 36.6069 30.0211ZM29.0156 33.1236L25.0837 36.4145C23.5668 37.6847 22.7239 39.5333 23.1583 41.5215L26.1696 55.3513C26.3219 56.0595 27.0188 56.4883 27.7644 56.2772C35.7188 54.2793 36.1852 48.9741 36.6914 43.2042C36.7497 42.5447 36.7594 42.3985 36.7821 42.1387C36.8016 41.9632 36.8243 41.999 37.0025 41.986C37.3656 41.96 37.8582 42.0639 38.4644 42.3043C39.6897 42.7949 41.2358 43.802 42.9603 45.3744L61.0897 63.8074C61.3328 64.3402 61.4106 64.9348 61.3231 65.513C60.96 67.9268 57.9942 68.9046 56.2665 67.1731L43.6668 54.5551C43.1806 54.0677 42.3896 54.0677 41.9035 54.5551C41.4173 55.0424 41.4173 55.8351 41.9035 56.3223L54.4998 68.9471C55.657 70.1068 55.657 72.0138 54.4998 73.1768C53.3362 74.3431 51.4464 74.3431 50.2795 73.1768L36.9704 59.8344C36.4842 59.3471 35.6932 59.3471 35.2071 59.8344C34.7209 60.3217 34.7209 61.1144 35.2071 61.6017L45.2518 71.669C46.4089 72.8288 46.4089 74.7358 45.2518 75.8988C44.0882 77.065 42.1984 77.065 41.0315 75.8988L30.2732 65.1162C29.787 64.6289 28.996 64.6289 28.5098 65.1162C28.0236 65.6035 28.0236 66.3962 28.5098 66.8835L33.5113 71.8962C34.0947 72.481 34.3865 73.2477 34.3865 74.0112C34.3865 75.6648 33.0542 77 31.4044 77C30.6102 77 29.8549 76.6849 29.2942 76.1228L12.5455 59.3398L17.7576 33.1232L29.0156 33.1236ZM38.5002 0C36.7919 0 35.3527 1.15003 34.9055 2.71914C27.943 3.59305 21.7424 6.97494 17.2432 11.9748C16.8607 11.8448 16.4523 11.7701 16.0277 11.7701C12.8641 11.7701 11.1591 15.4671 13.1364 17.8874C11.6453 20.7398 10.6211 23.8748 10.1608 27.1888L12.6113 27.6793C13.0132 24.6548 13.9338 21.7927 15.2757 19.1839C18.5106 19.8466 20.9157 16.2892 19.201 13.5343C23.2625 9.07062 28.8284 6.03961 35.0709 5.21767C36.361 8.23246 40.6494 8.23246 41.9394 5.21767C48.1791 6.03959 53.745 9.07062 57.8093 13.5343C56.0914 16.2892 58.4965 19.8465 61.7347 19.1839C63.0767 21.7893 63.994 24.6514 64.3991 27.6793L66.8496 27.1888C66.3893 23.8718 65.365 20.7401 63.874 17.8874C64.4024 17.2409 64.72 16.4158 64.72 15.5158C64.72 12.9266 62.169 11.1463 59.7671 11.9748C55.268 6.97503 49.0668 3.59323 42.1048 2.71914C41.6478 1.15004 40.2084 0 38.5002 0ZM62.7137 30.5638L69.8027 29.1474C70.5644 28.9947 71.3099 29.495 71.4623 30.2584L76.9726 57.9729C77.125 58.7363 76.6258 59.4835 75.8641 59.6362L68.7751 61.0526C68.0134 61.2053 67.2679 60.705 67.1155 59.9416L61.6052 32.2271C61.4561 31.4637 61.952 30.7132 62.7137 30.5638Z" fill="#C6A95F"/>
</svg>
