<svg width="74" height="84" viewBox="0 0 74 84" fill="none" xmlns="http://www.w3.org/2000/svg">
<path d="M24.2664 14.2509V32.2035C24.2664 35.487 26.9359 38.161 30.2238 38.161C33.5073 38.161 36.1813 35.487 36.1813 32.2035V14.2509C36.1813 10.9674 33.5117 8.29786 30.2238 8.29786C26.9403 8.29341 24.2664 10.9674 24.2664 14.2509ZM30.2238 34.6011C28.9024 34.6011 27.8257 33.5244 27.8257 32.203C27.8257 30.8815 28.9024 29.8048 30.2238 29.8048C31.5453 29.8048 32.6219 30.8815 32.6219 32.203C32.6219 33.5244 31.5453 34.6011 30.2238 34.6011ZM32.6219 26.7617C31.8878 26.4369 31.0781 26.25 30.2238 26.25C29.3696 26.25 28.5599 26.4369 27.8257 26.7617V19.6965C28.5598 20.0213 29.3696 20.2081 30.2238 20.2081C31.0781 20.2081 31.8878 20.0213 32.6219 19.6965V26.7617ZM32.6219 14.2511C32.6219 15.5725 31.5453 16.6492 30.2238 16.6492C28.9024 16.6492 27.8257 15.5725 27.8257 14.2511C27.8257 12.9296 28.9024 11.8574 30.2238 11.8574C31.5453 11.853 32.6219 12.9297 32.6219 14.2511Z" fill="#C6A95F"/>
<path d="M0.0366211 73.1442C0.392554 76.5434 3.25778 79.2128 6.76369 79.2128H36.9285V67.4141H6.1942L0.0366211 73.1442Z" fill="#C6A95F"/>
<path d="M3.11544 13.49C4.28996 14.8603 5.99844 15.6611 7.83152 15.6611H20.7157V14.2551C20.7157 9.00509 24.9691 4.7339 30.2192 4.7339C35.4692 4.7339 39.7404 9.00509 39.7404 14.2551V15.6611H52.6246C54.4576 15.6611 56.1661 14.8602 57.3584 13.4721L58.1593 12.5111C59.6364 10.7314 60.455 8.52461 60.455 6.24664V3.7017C60.455 1.65506 58.7999 0 56.7533 0H3.7017C1.65506 0 0 1.65506 0 3.7017V6.24664C0 8.52461 0.800842 10.7314 2.27797 12.4933L3.11544 13.49Z" fill="#C6A95F"/>
<path d="M42.1074 55.063C42.1074 46.7519 48.8701 39.9896 57.1989 39.9896C58.3201 39.9896 59.4057 40.1142 60.4558 40.3456V15.3062L60.082 15.7511C58.2134 17.9756 55.4906 19.2214 52.6252 19.2214H39.741V32.2127C39.741 37.4449 35.4698 41.7161 30.2198 41.7161C24.9698 41.7161 20.7164 37.4449 20.7164 32.2127V19.2214H7.83217C4.96694 19.2214 2.24408 17.9756 0.393235 15.7867L0.00170898 15.324V68.3403L4.29067 64.3361C4.61101 64.0335 5.05593 63.8556 5.50084 63.8556H36.93V63.3039C36.93 60.1005 39.1367 57.3597 42.1088 56.5946L42.1074 55.063Z" fill="#C6A95F"/>
<path d="M70.4933 59.9031H68.7226V55.0713C68.7226 48.7135 63.5526 43.5391 57.1903 43.5391C50.8325 43.5391 45.6627 48.709 45.6627 55.0713V59.9031H43.8875C42.0188 59.9031 40.4883 61.4336 40.4883 63.3023V80.5829C40.4883 82.4693 42.0188 83.9999 43.8875 83.9999H70.493C72.3794 83.9999 73.8922 82.4693 73.8922 80.5829V63.3023C73.8922 61.4336 72.3798 59.9031 70.4933 59.9031ZM58.9793 74.9593V79.3729C58.9793 80.3517 58.1785 81.1525 57.1997 81.1525C56.2031 81.1525 55.42 80.3517 55.42 79.3729V74.9593C53.9251 74.283 52.8751 72.7882 52.8751 71.044C52.8751 68.6415 54.8149 66.7194 57.1997 66.7194C59.5845 66.7194 61.5064 68.6415 61.5064 71.044C61.5064 72.7881 60.4743 74.2831 58.9793 74.9593ZM65.1637 59.9031H49.2225V55.0713C49.2225 50.6755 52.7996 47.0984 57.1909 47.0984C61.5867 47.0984 65.1638 50.6755 65.1638 55.0713L65.1637 59.9031Z" fill="#C6A95F"/>
</svg>
