<svg width="94" height="58" viewBox="0 0 94 58" fill="none" xmlns="http://www.w3.org/2000/svg">
<path d="M25.8656 19.833C25.8656 19.4348 25.9834 19.0456 26.2042 18.7145C26.4249 18.3835 26.7386 18.1254 27.1057 17.973C27.4727 17.8207 27.8766 17.7808 28.2663 17.8585C28.656 17.9362 29.0139 18.1279 29.2948 18.4095C29.5758 18.691 29.7671 19.0497 29.8446 19.4403C29.9221 19.8308 29.8823 20.2356 29.7303 20.6035C29.5782 20.9713 29.3208 21.2858 28.9904 21.507C28.6601 21.7282 28.2717 21.8463 27.8744 21.8463C27.3417 21.846 26.831 21.6338 26.4543 21.2563C26.0777 20.8788 25.8659 20.3669 25.8656 19.833ZM94 4.98511V53.0149C93.9985 54.3366 93.474 55.6037 92.5415 56.5382C91.609 57.4728 90.3447 57.9985 89.0259 58H4.97407C3.65533 57.9985 2.39103 57.4728 1.45854 56.5382C0.526045 55.6037 0.00150869 54.3366 0 53.0149V4.98511C0.00150869 3.66344 0.526045 2.39634 1.45854 1.46178C2.39103 0.527214 3.65533 0.00151204 4.97407 0H89.0259C90.3447 0.00151204 91.609 0.527214 92.5415 1.46178C93.474 2.39634 93.9985 3.66344 94 4.98511ZM23.9401 19.833C23.9416 20.6359 24.1874 21.4192 24.6447 22.0785C25.102 22.7377 25.7491 23.2414 26.4995 23.5224C29.0246 27.7583 30.5036 32.5375 30.8135 37.462H29.8444C28.9838 37.4781 28.1638 37.832 27.5608 38.4477C26.9578 39.0634 26.62 39.8916 26.62 40.7544C26.62 41.6171 26.9578 42.4453 27.5608 43.061C28.1638 43.6767 28.9838 44.0307 29.8444 44.0467H64.1476C65.0083 44.0307 65.8283 43.6767 66.4312 43.061C67.0342 42.4453 67.372 41.6171 67.372 40.7544C67.372 39.8916 67.0342 39.0634 66.4312 38.4477C65.8283 37.832 65.0083 37.4781 64.1476 37.462H63.3028C63.6244 32.512 65.1219 27.7108 67.6704 23.4585C68.3562 23.1653 68.9448 22.6828 69.3675 22.0673C69.7903 21.4518 70.0299 20.7285 70.0583 19.9818C70.0867 19.2351 69.9028 18.4957 69.5281 17.8497C69.1533 17.2037 68.6031 16.6777 67.9416 16.333C67.28 15.9883 66.5344 15.8391 65.7915 15.9028C65.0486 15.9665 64.3391 16.2404 63.7455 16.6927C63.152 17.145 62.6989 17.757 62.4391 18.4574C62.1793 19.1578 62.1234 19.9178 62.2779 20.6488C60.2612 23.3271 57.8317 24.5611 55.7693 23.9509C53.4641 23.2654 51.9091 20.498 51.5625 16.4955C52.5272 15.5896 53.1978 14.4139 53.4872 13.1211C53.7766 11.8284 53.6715 10.4782 53.1855 9.24609C52.6995 8.01395 51.8551 6.95672 50.7619 6.21171C49.6687 5.4667 48.3773 5.06833 47.0553 5.06833C45.7333 5.06833 44.4419 5.4667 43.3487 6.21171C42.2555 6.95672 41.4111 8.01395 40.9251 9.24609C40.4391 10.4782 40.334 11.8284 40.6234 13.1211C40.9128 14.4139 41.5834 15.5896 42.5481 16.4955C42.2061 20.4797 40.6567 23.2368 38.3652 23.9223C36.2641 24.5451 33.7924 23.2619 31.7529 20.4946C31.8433 19.9569 31.8215 19.4063 31.6887 18.8776C31.5559 18.3488 31.3151 17.8535 30.9815 17.4228C30.6478 16.9921 30.2287 16.6355 29.7505 16.3755C29.2723 16.1155 28.7454 15.9578 28.2033 15.9123C27.6612 15.8669 27.1155 15.9347 26.6009 16.1114C26.0862 16.2882 25.6138 16.5701 25.2134 16.9392C24.813 17.3083 24.4934 17.7567 24.2748 18.256C24.0562 18.7553 23.9434 19.2946 23.9435 19.8399L23.9401 19.833ZM78.8464 50.5538C78.8455 49.7557 78.5288 48.9907 77.9659 48.4263C77.403 47.8619 76.6397 47.5443 75.8435 47.543H18.1566C17.3598 47.543 16.5957 47.8602 16.0324 48.4249C15.469 48.9895 15.1525 49.7553 15.1525 50.5538C15.1525 51.3523 15.469 52.118 16.0324 52.6827C16.5957 53.2473 17.3598 53.5645 18.1566 53.5645H75.8435C76.6397 53.5633 77.403 53.2457 77.9659 52.6813C78.5288 52.1169 78.8455 51.3518 78.8464 50.5538ZM28.4855 40.7561C28.4861 41.1171 28.6294 41.4632 28.8842 41.7185C29.1389 41.9738 29.4842 42.1174 29.8444 42.118H64.1476C64.5014 42.1078 64.8372 41.9597 65.0838 41.7053C65.3304 41.4509 65.4683 41.1102 65.4683 40.7555C65.4683 40.4008 65.3304 40.0601 65.0838 39.8057C64.8372 39.5513 64.5014 39.4032 64.1476 39.393H29.8444C29.484 39.3936 29.1385 39.5374 28.8838 39.793C28.629 40.0485 28.4858 40.3949 28.4855 40.7561ZM66.1256 21.8463C66.5229 21.8463 66.9113 21.7282 67.2416 21.507C67.572 21.2858 67.8294 20.9713 67.9815 20.6035C68.1335 20.2356 68.1733 19.8308 68.0958 19.4403C68.0183 19.0497 67.827 18.691 67.546 18.4095C67.2651 18.1279 66.9072 17.9362 66.5175 17.8585C66.1278 17.7808 65.7239 17.8207 65.3569 17.973C64.9898 18.1254 64.6761 18.3835 64.4554 18.7145C64.2346 19.0456 64.1168 19.4348 64.1168 19.833C64.1174 20.3668 64.3293 20.8785 64.7058 21.2559C65.0824 21.6334 65.593 21.8457 66.1256 21.8463ZM47.0547 16.3618C47.9777 16.3621 48.8801 16.088 49.6476 15.5742C50.4151 15.0604 51.0134 14.33 51.3667 13.4754C51.72 12.6208 51.8125 11.6804 51.6325 10.7732C51.4525 9.86588 51.0081 9.03248 50.3554 8.37838C49.7028 7.72427 48.8712 7.27884 47.9659 7.09843C47.0607 6.91802 46.1223 7.01073 45.2696 7.36483C44.4169 7.71894 43.6882 8.31853 43.1755 9.08777C42.6629 9.85701 42.3894 10.7613 42.3896 11.6864C42.3929 12.9251 42.8856 14.112 43.7599 14.9876C44.6341 15.8631 45.8188 16.356 47.0547 16.3584V16.3618ZM32.7413 37.4631H61.3647C61.6445 32.6321 63.0084 27.9266 65.3549 23.6973C64.5485 23.5329 63.814 23.1188 63.2549 22.5135C62.5036 23.529 61.542 24.3694 60.4361 24.9773C59.3301 25.5851 58.106 25.946 56.8478 26.035C56.3008 26.0369 55.7564 25.96 55.2312 25.8065C52.3628 24.9598 50.3803 21.9788 49.7692 17.7067C48.9183 18.0933 47.9947 18.2934 47.0604 18.2934C46.1261 18.2934 45.2026 18.0933 44.3517 17.7067C43.7429 21.9605 41.7694 24.929 38.9159 25.7733C38.3896 25.9269 37.844 26.0038 37.2958 26.0019C35.0841 26.0019 32.7903 24.745 30.8351 22.4267C30.295 23.0459 29.575 23.4802 28.7762 23.6687C31.1188 27.9084 32.4743 32.6242 32.7413 37.4631ZM75.8435 49.4717H18.1566C17.8702 49.4717 17.5956 49.5857 17.3931 49.7887C17.1907 49.9916 17.0769 50.2668 17.0769 50.5538C17.0769 50.8407 17.1907 51.116 17.3931 51.3189C17.5956 51.5218 17.8702 51.6358 18.1566 51.6358H75.8435C76.1298 51.6358 76.4044 51.5218 76.6069 51.3189C76.8093 51.116 76.9231 50.8407 76.9231 50.5538C76.9231 50.2668 76.8093 49.9916 76.6069 49.7887C76.4044 49.5857 76.1298 49.4717 75.8435 49.4717Z" fill="#C6A95F"/>
</svg>
