<svg width="77" height="80" viewBox="0 0 77 80" fill="none" xmlns="http://www.w3.org/2000/svg">
<path fill-rule="evenodd" clip-rule="evenodd" d="M19.9001 58.5168L11.9548 66.4695C18.8669 73.0707 27.9899 76.8541 37.5405 77.0802V65.8313C30.9701 65.6092 24.7029 63.0106 19.9001 58.5168ZM65.0452 10.6088C58.1331 4.0079 49.0099 0.225089 39.4595 0V11.248C46.0299 11.47 52.2971 14.0687 57.0999 18.5624L65.0452 10.6088ZM11.2363 39.4997C11.4583 46.077 14.0546 52.3508 18.5441 57.1584L10.5987 65.112C4.0044 58.1927 0.225196 49.0601 0 39.4997H11.2363ZM77 37.5777H65.7637C65.5414 31.0001 62.9452 24.7262 58.4559 19.918L66.4013 11.9644C72.9954 18.8842 76.7746 28.017 77 37.5777ZM11.9548 10.6088L19.9001 18.5624C24.7029 14.0687 30.9701 11.47 37.5405 11.248V0C27.9901 0.225089 18.8669 4.0079 11.9548 10.6088ZM18.5441 19.9199C14.0553 24.7276 11.459 31.0008 11.2363 37.5777H0.000930182C0.225888 28.0179 4.00479 18.8859 10.5987 11.9672L18.5441 19.9199ZM30.4393 25.1512H25.2572V51.9253H30.4393V25.1512ZM32.3574 51.9253H37.5395V30.5213H32.3574V51.9253ZM39.4586 51.9253H44.6426V37.0662H39.4595L39.4586 51.9253ZM46.5589 51.9253H51.7419V41.6481H46.5598L46.5589 51.9253ZM48.9573 63.7574C47.5259 64.3534 46.0459 64.825 44.5337 65.167C42.8661 65.5427 41.167 65.7611 39.4586 65.8192V77.0802C43.5669 76.9873 47.6334 76.2322 51.5018 74.8442C50.1123 72.1079 49.2551 68.4763 48.9573 63.7686V63.7574ZM62.7799 45.9067C62.7075 45.9356 62.6391 45.9735 62.5761 46.0195L53.661 52.5094V40.6876C53.661 40.4331 53.56 40.189 53.3802 40.009C53.2005 39.8291 52.9566 39.728 52.7024 39.728H46.5598V36.1066C46.5598 35.852 46.4588 35.6078 46.2791 35.4277C46.0993 35.2476 45.8555 35.1463 45.6012 35.146H39.4586V29.5654C39.459 29.439 39.4345 29.3139 39.3865 29.197C39.3385 29.0802 39.268 28.9739 39.1789 28.8844C39.0899 28.7948 38.9841 28.7237 38.8676 28.6751C38.7511 28.6265 38.6262 28.6014 38.5 28.6011H32.3574V24.1906C32.3574 23.936 32.2565 23.6919 32.0767 23.5117C31.897 23.3316 31.6531 23.2303 31.3988 23.2301H24.2976C24.1717 23.2301 24.0471 23.2549 23.9308 23.3031C23.8145 23.3513 23.7088 23.422 23.6198 23.5111C23.5308 23.6003 23.4601 23.706 23.412 23.8225C23.3638 23.9389 23.339 24.0637 23.339 24.1897V52.8849C23.339 53.0109 23.3638 53.1357 23.412 53.2521C23.4601 53.3685 23.5308 53.4743 23.6198 53.5634C23.7088 53.6525 23.8145 53.7232 23.9308 53.7715C24.0471 53.8197 24.1717 53.8445 24.2976 53.8445H51.8229L49.3035 55.678C49.1862 55.7629 49.0897 55.8733 49.0213 56.001C48.953 56.1286 48.9145 56.2702 48.9089 56.415C48.8332 58.305 48.8186 60.072 48.8651 61.7161C44.1736 63.8117 38.9576 64.4341 33.9054 63.5011C28.8532 62.5682 24.2023 60.1238 20.5665 56.4904C18.2112 54.1329 16.3429 51.3341 15.0682 48.2538C13.7936 45.1734 13.1375 41.8719 13.1375 38.5378C13.1375 35.2036 13.7936 31.9021 15.0682 28.8218C16.3429 25.7414 18.2112 22.9426 20.5665 20.5851C25.3229 15.8242 31.7737 13.1496 38.5 13.1496C45.2263 13.1496 51.6771 15.8242 56.4335 20.5851C58.7921 22.94 60.6626 25.7383 61.9375 28.8191C63.2124 31.8999 63.8665 35.2026 63.8623 38.5373C63.8636 39.927 63.7519 41.3145 63.5282 42.686C63.3504 43.7741 63.1017 44.8493 62.7837 45.9049L62.7799 45.9067ZM74.0004 53.5184C75.8697 49.0752 76.8873 44.3196 77 39.4997H65.7637C65.722 40.6711 65.606 41.8386 65.4166 42.9953C65.2145 44.2296 64.9281 45.4486 64.5594 46.6437L74.0004 53.5184ZM65.8298 64.8027C66.2833 64.4408 66.6626 63.9944 66.9467 63.4881C67.3305 62.8078 67.5296 62.0386 67.524 61.2572C67.5185 60.4758 67.3085 59.7095 66.915 59.0347C66.5215 58.3598 65.9582 57.7999 65.2813 57.4109C64.6044 57.0218 63.8374 56.817 63.0568 56.817C62.2762 56.817 61.5093 57.0218 60.8323 57.4109C60.1554 57.7999 59.5921 58.3598 59.1986 59.0347C58.8051 59.7095 58.5952 60.4758 58.5896 61.2572C58.5841 62.0386 58.7831 62.8078 59.167 63.4881C59.4511 63.9943 59.8303 64.4407 60.2838 64.8027V72.556C60.2838 72.8108 60.3849 73.0551 60.5649 73.2352C60.7448 73.4154 60.9889 73.5166 61.2434 73.5166H64.8628C65.1173 73.5166 65.3614 73.4154 65.5413 73.2352C65.7213 73.0551 65.8224 72.8108 65.8224 72.556V64.8027H65.8298ZM63.9079 64.3043C63.9079 64.1317 63.9544 63.9622 64.0425 63.8138C64.1307 63.6654 64.2571 63.5436 64.4086 63.4611C64.8826 63.1673 65.2479 62.7268 65.4492 62.2065C65.6506 61.6861 65.677 61.1142 65.5244 60.5775C65.3718 60.0408 65.0486 59.5685 64.6037 59.2322C64.1589 58.8959 63.6166 58.714 63.0591 58.714C62.5017 58.714 61.9594 58.8959 61.5146 59.2322C61.0697 59.5685 60.7465 60.0408 60.5939 60.5775C60.4413 61.1142 60.4677 61.6861 60.669 62.2065C60.8704 62.7268 61.2357 63.1673 61.7096 63.4611C61.861 63.5437 61.9874 63.6656 62.0755 63.814C62.1636 63.9623 62.2102 64.1317 62.2104 64.3043V71.5964H63.9079V64.3043ZM53.6805 74.8246C53.6461 74.7669 53.6117 74.7091 53.5782 74.6513C51.4636 71.0178 50.5069 65.3347 50.8038 56.9609L63.1383 47.9816L75.4718 56.9609C75.7678 65.3394 74.8129 71.1222 72.6974 74.8004C70.6499 78.3631 67.4436 79.9357 63.1727 80C58.9548 79.768 55.769 78.2503 53.7066 74.8665C53.6987 74.8521 53.69 74.8381 53.6805 74.8246Z" fill="#C6A95F"/>
</svg>
