<svg width="69" height="69" viewBox="0 0 69 69" fill="none" xmlns="http://www.w3.org/2000/svg">
<path d="M67.5625 66.1249H64.4718V1.4349C64.4718 0.974869 64.2563 0.54362 63.8825 0.270481C63.5087 0.0117312 63.0343 -0.0745185 62.6031 0.0692897L25.9469 11.9578C25.3431 12.1591 24.9406 12.7054 24.9406 13.3235V66.1249H22.0656V33.7512L5.00247 49.248C4.70057 49.5211 4.52807 49.9093 4.52807 50.3118V66.1249H1.4375C0.646893 66.1249 0 66.7718 0 67.5624C0 68.3675 0.646893 69 1.4375 69H5.96557H22.3243H26.3781H63.0343H67.5625C68.3531 69 69 68.3675 69 67.5624C69 66.7718 68.3531 66.1249 67.5625 66.1249ZM52.0662 21.3451C52.0662 21.0001 52.3537 20.727 52.6987 20.727H57.3994C57.7444 20.727 58.0175 21.0001 58.0175 21.3451V26.0458C58.0175 26.3909 57.7444 26.6784 57.3994 26.6784H52.6987C52.3537 26.6784 52.0662 26.3909 52.0662 26.0458V21.3451ZM52.0662 33.1043C52.0662 32.7593 52.3537 32.4718 52.6987 32.4718H57.3994C57.7444 32.4718 58.0175 32.7593 58.0175 33.1043V37.7907C58.0175 38.1357 57.7444 38.4233 57.3994 38.4233H52.6987C52.3537 38.4233 52.0662 38.1357 52.0662 37.7907V33.1043ZM52.0662 44.8491C52.0662 44.5041 52.3537 44.2166 52.6987 44.2166H57.3994C57.7444 44.2166 58.0175 44.5041 58.0175 44.8491V49.5499C58.0175 49.8949 57.7444 50.1681 57.3994 50.1681H52.6987C52.3537 50.1681 52.0662 49.8949 52.0662 49.5499V44.8491ZM52.0662 56.5939C52.0662 56.2489 52.3537 55.9758 52.6987 55.9758H57.3994C57.7444 55.9758 58.0175 56.2489 58.0175 56.5939V61.2947C58.0175 61.6397 57.7444 61.9273 57.3994 61.9273H52.6987C52.3537 61.9273 52.0662 61.6397 52.0662 61.2947V56.5939ZM41.7306 21.3451C41.7306 21.0001 42.0181 20.727 42.3631 20.727H47.0637C47.4087 20.727 47.6819 21.0001 47.6819 21.3451V26.0458C47.6819 26.3909 47.4087 26.6784 47.0637 26.6784H42.3631C42.0181 26.6784 41.7306 26.3909 41.7306 26.0458V21.3451ZM41.7306 33.1043C41.7306 32.7593 42.0181 32.4718 42.3631 32.4718H47.0637C47.4087 32.4718 47.6819 32.7593 47.6819 33.1043V37.7907C47.6819 38.1357 47.4087 38.4233 47.0637 38.4233H42.3631C42.0181 38.4233 41.7306 38.1357 41.7306 37.7907V33.1043ZM41.7306 44.8491C41.7306 44.5041 42.0181 44.2166 42.3631 44.2166H47.0637C47.4087 44.2166 47.6819 44.5041 47.6819 44.8491V49.5499C47.6819 49.8949 47.4087 50.1681 47.0637 50.1681H42.3631C42.0181 50.1681 41.7306 49.8949 41.7306 49.5499V44.8491ZM41.7306 56.5939C41.7306 56.2489 42.0181 55.9758 42.3631 55.9758H47.0637C47.4087 55.9758 47.6819 56.2489 47.6819 56.5939V61.2947C47.6819 61.6397 47.4087 61.9273 47.0637 61.9273H42.3631C42.0181 61.9273 41.7306 61.6397 41.7306 61.2947V56.5939ZM31.395 21.3451C31.395 21.0001 31.6825 20.727 32.0275 20.727H36.7281C37.0731 20.727 37.3462 21.0001 37.3462 21.3451V26.0458C37.3462 26.3909 37.0731 26.6784 36.7281 26.6784H32.0275C31.6825 26.6784 31.395 26.3909 31.395 26.0458V21.3451ZM31.395 33.1043C31.395 32.7593 31.6825 32.4718 32.0275 32.4718H36.7281C37.0731 32.4718 37.3462 32.7593 37.3462 33.1043V37.7907C37.3462 38.1357 37.0731 38.4233 36.7281 38.4233H32.0275C31.6825 38.4233 31.395 38.1357 31.395 37.7907V33.1043ZM31.395 44.8491C31.395 44.5041 31.6825 44.2166 32.0275 44.2166H36.7281C37.0731 44.2166 37.3462 44.5041 37.3462 44.8491V49.5499C37.3462 49.8949 37.0731 50.1681 36.7281 50.1681H32.0275C31.6825 50.1681 31.395 49.8949 31.395 49.5499V44.8491ZM31.395 56.5939C31.395 56.2489 31.6825 55.9758 32.0275 55.9758H36.7281C37.0731 55.9758 37.3462 56.2489 37.3462 56.5939V61.2947C37.3462 61.6397 37.0731 61.9273 36.7281 61.9273H32.0275C31.6825 61.9273 31.395 61.6397 31.395 61.2947V56.5939Z" fill="#C6A95F"/>
</svg>
