<svg width="75" height="80" viewBox="0 0 75 80" fill="none" xmlns="http://www.w3.org/2000/svg">
<path fill-rule="evenodd" clip-rule="evenodd" d="M36.0168 56.1261C36.0201 52.4664 37.3564 48.9339 39.7745 46.1878C42.1925 43.438 45.5282 41.6616 49.1618 41.19V3.5092C49.1551 1.57232 47.5844 0.00333989 45.6452 0H12.0534V7.44984C12.0635 8.66085 11.5846 9.82827 10.7272 10.6847C9.86977 11.541 8.70429 12.0227 7.49196 12.0127H0V63.9712C0.00334889 65.9114 1.58082 67.4837 3.52328 67.4837H41.1704C37.885 64.6236 36.0067 60.4785 36.0168 56.1261ZM25.7283 9.66736H40.6552C41.1843 9.71754 41.5895 10.1591 41.5895 10.691C41.5895 11.2229 41.1843 11.6644 40.6552 11.7146H25.7618C25.4737 11.7414 25.1891 11.6444 24.9747 11.4504C24.7604 11.2563 24.6398 10.9787 24.6398 10.691C24.6398 10.4033 24.7604 10.1256 24.9747 9.93161C25.1891 9.73759 25.4737 9.64058 25.7618 9.66734L25.7283 9.66736ZM8.47717 17.3748H40.6552C41.2178 17.3748 41.6766 17.8298 41.6766 18.3951C41.6766 18.9571 41.2178 19.412 40.6552 19.412H8.51403C7.94803 19.412 7.49256 18.9571 7.49256 18.3951C7.49256 17.8297 7.94804 17.3748 8.51403 17.3748H8.47717ZM8.47717 25.0822H40.6552C41.2178 25.0822 41.6766 25.5372 41.6766 26.1025C41.6766 26.6645 41.2178 27.1195 40.6552 27.1195H8.51403C7.94803 27.1195 7.49256 26.6645 7.49256 26.1025C7.49256 25.5372 7.94804 25.0822 8.51403 25.0822H8.47717ZM8.47717 32.7897H40.6552C41.1843 32.8399 41.5895 33.2814 41.5895 33.8133C41.5895 34.3452 41.1843 34.7868 40.6552 34.8369H8.51403C8.22601 34.8637 7.93799 34.7667 7.72699 34.5727C7.51265 34.3787 7.38874 34.101 7.38874 33.8133C7.38874 33.5256 7.51265 33.248 7.72699 33.0539C7.93799 32.8599 8.22601 32.7629 8.51403 32.7897L8.47717 32.7897ZM8.47717 40.4971H40.6552C41.1843 40.5473 41.5895 40.9889 41.5895 41.5208C41.5895 42.0526 41.1843 42.4942 40.6552 42.5444H8.51403C8.22601 42.5711 7.93799 42.4741 7.72699 42.2801C7.51265 42.0861 7.38874 41.8084 7.38874 41.5207C7.38874 41.2331 7.51265 40.9554 7.72699 40.7614C7.93799 40.5674 8.22601 40.4703 8.51403 40.4971L8.47717 40.4971ZM30.4276 57.7721H8.51403C8.22601 57.7955 7.93799 57.7018 7.72699 57.5078C7.51265 57.3104 7.38874 57.0361 7.38874 56.7484C7.38874 56.4574 7.51265 56.1831 7.72699 55.9891C7.93799 55.795 8.22601 55.698 8.51403 55.7248H30.4276C30.9567 55.7716 31.3619 56.2165 31.3619 56.7484C31.3619 57.277 30.9567 57.7219 30.4276 57.7721ZM34.5503 50.0646H8.51455C7.94855 50.0646 7.49308 49.6063 7.49308 49.0443C7.49308 48.4823 7.94856 48.024 8.51455 48.024H34.5503C35.1163 48.024 35.5718 48.4823 35.5718 49.0443C35.5718 49.6063 35.1163 50.0646 34.5503 50.0646ZM51.0984 43.0932C47.6422 43.0898 44.3266 44.4581 41.8817 46.8967C39.4368 49.3353 38.0604 52.6471 38.0571 56.0994C38.0571 59.5483 39.4235 62.8601 41.865 65.3055C44.3065 67.7476 47.6187 69.1224 51.0749 69.1257C54.5311 69.1291 57.8467 67.7608 60.295 65.3255C62.7399 62.8868 64.1163 59.5784 64.123 56.1263C64.123 52.6774 62.7499 49.3689 60.3084 46.927C57.8669 44.4883 54.5513 43.1168 51.0985 43.1168L51.0984 43.0932ZM58.5502 63.5427C54.9935 67.092 49.4235 67.6407 45.2438 64.8507C41.0641 62.0607 39.4398 56.7117 41.3622 52.0717C43.288 47.4318 48.2245 44.7992 53.1545 45.7759C58.0844 46.7561 61.6344 51.0782 61.6344 56.0996C61.6478 58.9029 60.5359 61.5926 58.5499 63.5696L58.5502 63.5427ZM57.1 50.1318C54.2366 47.2682 49.7421 46.8233 46.3692 49.0746C43 51.3226 41.6872 55.6381 43.2412 59.3778C44.7918 63.1211 48.7739 65.2454 52.7494 64.4525C56.7248 63.663 59.5883 60.1773 59.5883 56.1262C59.5883 53.8782 58.6942 51.7208 57.1 50.1318ZM57.0498 57.1802L56.5608 57.2672C56.3565 57.3006 56.1891 57.4512 56.1322 57.6519C56.0283 57.9797 55.8944 58.2975 55.7303 58.602C55.6231 58.7826 55.6231 59.0034 55.7303 59.184L56.0116 59.5855C56.1656 59.8063 56.1422 60.1073 55.9513 60.298L55.2312 61.0072C55.0471 61.2012 54.749 61.2313 54.5279 61.0774L54.116 60.7964V60.7931C53.9418 60.6827 53.7175 60.6827 53.5433 60.7931C53.2352 60.957 52.9137 61.0875 52.5821 61.1878C52.3845 61.2481 52.2371 61.412 52.2036 61.616L52.1099 62.1111C52.0663 62.3754 51.8386 62.5661 51.5706 62.5661H50.586C50.3181 62.5627 50.0937 62.3721 50.0435 62.1111L49.9564 61.616H49.9598C49.9229 61.412 49.7722 61.2447 49.5713 61.1878C49.2531 61.0741 48.9416 60.9303 48.6469 60.7597C48.4728 60.6493 48.2484 60.6493 48.0709 60.7597L47.659 61.0406H47.6623C47.4413 61.1979 47.1432 61.1678 46.959 60.9737L46.2389 60.2646C46.048 60.0705 46.0246 59.7728 46.1787 59.552L46.46 59.1506C46.5738 58.9699 46.5738 58.7458 46.46 58.5685C46.2992 58.2775 46.1686 57.9697 46.0748 57.6519C46.0145 57.4512 45.8437 57.3007 45.6361 57.2672L45.1471 57.1802H45.1505C44.8825 57.1334 44.6916 56.9026 44.695 56.6316V55.6214C44.6917 55.3537 44.8859 55.1229 45.1505 55.0828L45.6394 54.9891H45.6361C45.8437 54.9523 46.0145 54.8051 46.0748 54.6011C46.1719 54.2866 46.2992 53.9822 46.46 53.6945C46.5738 53.5205 46.5738 53.2964 46.46 53.1191L46.1787 52.7076V52.711C46.0246 52.4935 46.0514 52.1958 46.2389 52.0085L46.959 51.2893C47.1465 51.1019 47.4446 51.0752 47.6623 51.229L48.0742 51.51H48.0709C48.2484 51.6204 48.4728 51.6204 48.6469 51.51C48.945 51.3562 49.2531 51.229 49.5713 51.1253C49.7722 51.0685 49.9229 50.9012 49.9598 50.6972L50.0468 50.2087H50.0435C50.0904 49.9478 50.3181 49.7538 50.586 49.7538H51.6075H51.6042C51.8721 49.7504 52.1032 49.9445 52.1434 50.2087L52.2372 50.6972H52.2405C52.274 50.9012 52.418 51.0651 52.6156 51.1253C52.9472 51.229 53.2687 51.3595 53.5768 51.5201C53.751 51.6305 53.9753 51.6305 54.1529 51.5201L54.5648 51.2391L54.5614 51.2357C54.7791 51.0852 55.0772 51.1086 55.2648 51.2959L55.9848 52.0152C56.1724 52.2058 56.1992 52.5002 56.0451 52.7177L55.7638 53.1291C55.6566 53.3064 55.6566 53.5272 55.7638 53.7045C55.9279 54.0056 56.0652 54.3234 56.1657 54.6546C56.2193 54.8553 56.3867 55.0092 56.5944 55.0393L57.0833 55.133C57.3479 55.1765 57.5421 55.4039 57.5388 55.6716V56.6818C57.5154 56.9428 57.311 57.1535 57.0498 57.1802ZM53.7911 56.1264C53.7911 57.2271 53.128 58.2172 52.1099 58.6354C51.0951 59.0535 49.9263 58.8227 49.1493 58.0433C48.3724 57.2638 48.1412 56.0964 48.5632 55.0828C48.9885 54.0691 49.9832 53.4068 51.0817 53.4135C51.8018 53.4135 52.4917 53.6978 53.0008 54.2063C53.5099 54.7181 53.7944 55.4072 53.7911 56.1264ZM7.49308 10.0188H1.02928L10.0051 1.00025V7.44984C10.0084 8.10885 9.74721 8.74109 9.27499 9.20611C8.81951 9.7079 8.17289 10.0021 7.49308 10.0188ZM68.2189 68.5774L63.5637 73.2273L62.5791 72.2438C62.2509 71.9093 62.2509 71.3774 62.5791 71.0462L63.1618 70.4642L60.5462 67.895V67.8917C61.3868 67.2126 62.1537 66.4465 62.837 65.6069L65.4091 68.176L65.9851 67.5939H65.9818C66.3167 67.2627 66.8559 67.2627 67.1908 67.5939L68.2189 68.5774ZM51.0715 71.1465C52.716 71.1499 54.3503 70.8856 55.9076 70.3604C55.9043 72.2939 54.3302 73.8628 52.3944 73.8628H10.2957C8.35328 73.8628 6.77581 72.2906 6.77246 70.3503V69.4939H44.1615C46.305 70.6046 48.6828 71.1833 51.0975 71.1833L51.0715 71.1465ZM55.9345 41.8685C54.414 41.3534 52.8231 41.0857 51.2189 41.0724V6.42228H52.4179C54.357 6.42562 55.9311 7.99451 55.9345 9.93147V41.8685ZM74.043 79.0441C72.7536 80.3186 70.6771 80.3186 69.3877 79.0441L65.0071 74.6752L69.6623 70.0253L74.043 74.3942C75.319 75.6821 75.319 77.7562 74.043 79.0441Z" fill="#C6A95F"/>
</svg>
