<svg width="80" height="67" viewBox="0 0 80 67" fill="none" xmlns="http://www.w3.org/2000/svg">
<path d="M25.5623 21.7773L27.4891 18.6664L27.4522 18.5809H23.3293C22.8956 18.5822 22.4689 18.472 22.0902 18.2608C21.7114 18.0496 21.3933 17.7445 21.1665 17.3749L18.1617 12.522H18.0879L15.0828 17.3749C14.8561 17.7445 14.5381 18.0496 14.1593 18.2608C13.7806 18.472 13.354 18.5823 12.9203 18.5809H8.79742L8.7605 18.6664L10.6874 21.7773C10.9395 22.1815 11.0732 22.6483 11.0733 23.1246C11.0735 23.601 10.94 24.0678 10.688 24.472L8.7605 27.5836L8.79742 27.6691H12.9203C13.354 27.6678 13.7807 27.778 14.1595 27.9892C14.5382 28.2005 14.8563 28.5055 15.0831 28.8751L18.0879 33.728H18.1617L21.1668 28.8751C21.3936 28.5055 21.7116 28.2004 22.0903 27.9892C22.469 27.778 22.8957 27.6677 23.3293 27.6691H27.4522L27.4892 27.5836L25.5623 24.4727C25.3101 24.0685 25.1764 23.6017 25.1763 23.1254C25.1762 22.649 25.3097 22.1822 25.5617 21.778L25.5623 21.7773Z" fill="#C6A95F"/>
<path d="M60.625 27.5C56.793 27.5 53.047 28.6363 49.8608 30.7653C46.6746 32.8942 44.1913 35.9202 42.7248 39.4605C41.2584 43.0008 40.8747 46.8965 41.6223 50.6549C42.3699 54.4132 44.2152 57.8655 46.9248 60.5752C49.6345 63.2848 53.0868 65.1301 56.8451 65.8777C60.6035 66.6253 64.4992 66.2416 68.0395 64.7752C71.5798 63.3087 74.6058 60.8254 76.7347 57.6392C78.8637 54.453 80 50.707 80 46.875C79.9942 41.7382 77.9511 36.8135 74.3188 33.1812C70.6865 29.5489 65.7618 27.5058 60.625 27.5ZM70.885 40.8826L57.1707 54.6326C57.0546 54.749 56.9167 54.8414 56.7648 54.9045C56.613 54.9675 56.4501 55 56.2857 55C56.1213 55 55.9585 54.9675 55.8066 54.9045C55.6547 54.8414 55.5168 54.749 55.4007 54.6326L49.115 48.3307C48.9984 48.2146 48.9059 48.0767 48.8428 47.9248C48.7796 47.7729 48.7471 47.61 48.747 47.4455C48.747 47.281 48.7794 47.1181 48.8424 46.9661C48.9054 46.8142 48.9978 46.6762 49.1143 46.56C49.2308 46.4438 49.3691 46.3518 49.5212 46.2892C49.6733 46.2266 49.8363 46.1946 50.0008 46.1951C50.1653 46.1957 50.3281 46.2286 50.4798 46.2922C50.6316 46.3558 50.7693 46.4487 50.885 46.5655L56.2857 51.98L69.115 39.1174C69.2308 39.0005 69.3684 38.9076 69.5202 38.8441C69.6719 38.7805 69.8347 38.7475 69.9992 38.747C70.1637 38.7465 70.3267 38.7785 70.4788 38.8411C70.6309 38.9037 70.7692 38.9957 70.8857 39.1119C71.0022 39.228 71.0946 39.3661 71.1576 39.518C71.2206 39.67 71.253 39.8329 71.253 39.9974C71.2529 40.1619 71.2204 40.3247 71.1572 40.4766C71.0941 40.6285 71.0016 40.7665 70.885 40.8826Z" fill="#C6A95F"/>
<path d="M36.25 35.625C36.251 35.2938 36.383 34.9764 36.6172 34.7422C36.8514 34.508 37.1688 34.376 37.5 34.375H42.6812C43.639 33.003 44.7504 31.7448 45.9937 30.625H37.5C37.1685 30.625 36.8505 30.4933 36.6161 30.2589C36.3817 30.0245 36.25 29.7065 36.25 29.375C36.25 29.0435 36.3817 28.7255 36.6161 28.4911C36.8505 28.2567 37.1685 28.125 37.5 28.125H49.3625C52.6563 26.1447 56.414 25.0679 60.2568 25.0031C64.0995 24.9384 67.8914 25.888 71.25 27.7562V3.75C71.2492 2.75568 70.8539 1.80231 70.1508 1.09922C69.4477 0.396129 68.4943 0.00078789 67.5 0H3.75C2.75568 0.00078789 1.80231 0.396129 1.09922 1.09922C0.396129 1.80231 0.00078789 2.75568 0 3.75L0 42.5C0.00078789 43.4943 0.396129 44.4477 1.09922 45.1508C1.80231 45.8539 2.75568 46.2492 3.75 46.25H38.7562C38.8485 42.9838 39.6729 39.78 41.1687 36.875H37.5C37.1688 36.874 36.8514 36.742 36.6172 36.5078C36.383 36.2736 36.251 35.9562 36.25 35.625ZM37.5 9.375H63.75C64.0815 9.375 64.3995 9.5067 64.6339 9.74112C64.8683 9.97554 65 10.2935 65 10.625C65 10.9565 64.8683 11.2745 64.6339 11.5089C64.3995 11.7433 64.0815 11.875 63.75 11.875H37.5C37.1685 11.875 36.8505 11.7433 36.6161 11.5089C36.3817 11.2745 36.25 10.9565 36.25 10.625C36.25 10.2935 36.3817 9.97554 36.6161 9.74112C36.8505 9.5067 37.1685 9.375 37.5 9.375ZM37.5 15.625H63.75C64.0815 15.625 64.3995 15.7567 64.6339 15.9911C64.8683 16.2255 65 16.5435 65 16.875C65 17.2065 64.8683 17.5245 64.6339 17.7589C64.3995 17.9933 64.0815 18.125 63.75 18.125H37.5C37.1685 18.125 36.8505 17.9933 36.6161 17.7589C36.3817 17.5245 36.25 17.2065 36.25 16.875C36.25 16.5435 36.3817 16.2255 36.6161 15.9911C36.8505 15.7567 37.1685 15.625 37.5 15.625ZM37.5 21.875H57.5C57.8315 21.875 58.1495 22.0067 58.3839 22.2411C58.6183 22.4755 58.75 22.7935 58.75 23.125C58.75 23.4565 58.6183 23.7745 58.3839 24.0089C58.1495 24.2433 57.8315 24.375 57.5 24.375H37.5C37.1685 24.375 36.8505 24.2433 36.6161 24.0089C36.3817 23.7745 36.25 23.4565 36.25 23.125C36.25 22.7935 36.3817 22.4755 36.6161 22.2411C36.8505 22.0067 37.1685 21.875 37.5 21.875ZM29.6125 26.2687C29.8533 26.6547 29.9864 27.0981 29.9981 27.5529C30.0098 28.0077 29.8997 28.4573 29.6791 28.8552C29.4585 29.2531 29.1354 29.5847 28.7435 29.8156C28.3515 30.0466 27.9049 30.1685 27.45 30.1687H23.3312L20.2875 35.0437C20.0598 35.4125 19.7416 35.7169 19.3631 35.928C18.9846 36.1391 18.5584 36.25 18.125 36.25C17.6916 36.25 17.2654 36.1391 16.8869 35.928C16.5084 35.7169 16.1902 35.4125 15.9625 35.0437L12.9562 30.1937L8.8 30.1687C8.34506 30.1685 7.89847 30.0466 7.50652 29.8156C7.11457 29.5847 6.79154 29.2531 6.57093 28.8552C6.35032 28.4573 6.24015 28.0077 6.25186 27.5529C6.26356 27.0981 6.39671 26.6547 6.6375 26.2687L8.5625 23.1562C8.5686 23.147 8.57185 23.1361 8.57185 23.125C8.57185 23.1139 8.5686 23.103 8.5625 23.0937L6.6375 19.9812C6.39672 19.5953 6.26358 19.1519 6.25187 18.6971C6.24017 18.2423 6.35034 17.7927 6.57095 17.3948C6.79156 16.9969 7.11459 16.6653 7.50653 16.4344C7.89847 16.2034 8.34506 16.0815 8.8 16.0812H12.9187L15.9625 11.2062C16.1902 10.8375 16.5084 10.5331 16.8869 10.322C17.2654 10.1109 17.6916 10 18.125 10C18.5584 10 18.9846 10.1109 19.3631 10.322C19.7416 10.5331 20.0598 10.8375 20.2875 11.2062L23.2937 16.0562L27.45 16.0812C27.9049 16.0815 28.3515 16.2034 28.7435 16.4344C29.1354 16.6653 29.4584 16.9969 29.679 17.3948C29.8997 17.7927 30.0098 18.2423 29.9981 18.6971C29.9864 19.1519 29.8533 19.5953 29.6125 19.9812L27.6875 23.0937C27.6814 23.103 27.6781 23.1139 27.6781 23.125C27.6781 23.1361 27.6814 23.147 27.6875 23.1562L29.6125 26.2687Z" fill="#C6A95F"/>
</svg>
