<svg width="70" height="70" viewBox="0 0 70 70" fill="none" xmlns="http://www.w3.org/2000/svg">
<path fill-rule="evenodd" clip-rule="evenodd" d="M13.6294 55.0644C13.1218 55.0644 12.6841 55.4288 12.5868 55.9352C12.4865 56.4416 12.754 56.948 13.2251 57.1456C13.6932 57.3432 14.2343 57.1765 14.517 56.7442C14.7997 56.315 14.7419 55.7438 14.3832 55.3794C14.1826 55.1756 13.9121 55.0614 13.6294 55.0644ZM14.5078 50.8188V50.8157C16.4744 51.1492 18.0915 52.5696 18.6993 54.4963C19.3072 56.4229 18.8057 58.5351 17.3984 59.9647C15.988 61.3974 13.912 61.91 12.0153 61.2925C10.1156 60.6749 8.71736 59.0353 8.38907 57.0375H6.64435C6.15802 57.0375 5.76592 56.6392 5.76592 56.1452C5.76592 55.6511 6.15803 55.2528 6.64435 55.2528H10.9453C11.2249 54.3851 11.8967 53.7028 12.7508 53.4187V47.1968C12.7508 46.7028 13.1429 46.3045 13.6292 46.3045C14.1155 46.3045 14.5076 46.7028 14.5076 47.1968L14.5078 50.8188ZM10.1734 57.0375H10.9454C11.2524 57.9855 12.0214 58.7019 12.9729 58.9334C13.9273 59.165 14.9334 58.8778 15.6264 58.1707C16.3195 57.4667 16.6052 56.4477 16.3772 55.4782C16.1492 54.5086 15.441 53.7275 14.5079 53.4187V52.6313C15.7511 52.9555 16.7268 53.9281 17.0672 55.1849C17.4077 56.4385 17.0581 57.7848 16.1493 58.7049C15.2435 59.6251 13.9213 59.9802 12.6842 59.6374C11.4471 59.2916 10.4895 58.3005 10.1734 57.0375ZM12.7509 42.2992V43.5034C12.7509 43.9975 13.1431 44.3989 13.6294 44.3989C14.1157 44.3989 14.5078 43.9975 14.5078 43.5034V42.2992C17.52 42.4907 20.3833 43.698 22.6447 45.7235L21.8058 46.5758H21.8088C21.4623 46.9247 21.4623 47.4897 21.8088 47.8387C22.1523 48.1907 22.7085 48.1907 23.052 47.8387L23.8909 46.9865C25.8849 49.2869 27.0703 52.1924 27.2588 55.2524H26.0734C25.587 55.2524 25.1949 55.6507 25.1949 56.1448C25.1949 56.6388 25.587 57.0371 26.0734 57.0371H27.2588C27.0703 60.0971 25.8849 63.0058 23.8879 65.3031L23.049 64.4509C22.7055 64.1019 22.1493 64.1019 21.8058 64.4509C21.4623 64.7998 21.4623 65.368 21.8058 65.7169L22.6447 66.5691C20.3802 68.5947 17.517 69.7989 14.5078 69.9934V68.7861C14.5078 68.2921 14.1127 67.8907 13.6263 67.8907C13.1431 67.8907 12.7479 68.2921 12.7479 68.7861V69.9903C9.73874 69.7958 6.87546 68.5916 4.61103 66.566L5.44993 65.7138C5.79644 65.3649 5.79644 64.7999 5.44993 64.4509C5.10646 64.0989 4.55026 64.0989 4.20672 64.4509L3.37085 65.3031C1.3769 63.0058 0.191497 60.0971 0 57.0371H1.18844C1.67172 57.0371 2.06686 56.6388 2.06686 56.1448C2.06686 55.6507 1.67172 55.2524 1.18844 55.2524H0C0.19149 52.1924 1.3769 49.2837 3.37085 46.9865L4.20975 47.8387C4.55322 48.1876 5.11253 48.1876 5.456 47.8387C5.79947 47.4898 5.79947 46.9216 5.456 46.5727L4.6171 45.7205H4.61406C6.87857 43.6949 9.74177 42.4907 12.7509 42.2962V42.2992ZM66.0068 46.3473C63.0067 43.2997 58.7848 41.8453 54.5808 42.4073C50.3771 42.9693 46.6688 45.4858 44.5499 49.2158C42.4283 52.9459 42.1365 57.4668 43.7597 61.4468C45.3828 65.4269 48.7354 68.4128 52.8295 69.5277C56.9268 70.6425 61.2979 69.7593 64.6625 67.1378C68.0273 64.5163 70 60.4528 70 56.1456C70.003 52.4712 68.5653 48.9449 66.006 46.3477L66.0068 46.3473ZM60.8608 50.5219C61.0189 50.982 60.7848 51.4854 60.3319 51.6521C59.879 51.8188 59.3805 51.5841 59.2103 51.1271C58.8273 50.0464 57.8821 49.2744 56.7635 49.1231C55.6419 48.9718 54.5325 49.4659 53.882 50.4046C53.2316 51.3433 53.1525 52.5722 53.6723 53.5943C54.1951 54.6133 55.2316 55.2524 56.3623 55.2524C58.8365 55.2494 60.9034 57.1638 61.1313 59.6648C61.3593 62.1691 59.6724 64.4355 57.2407 64.8955V66.2634C57.2407 66.7544 56.8456 67.1558 56.3623 67.1558C55.8759 67.1558 55.4808 66.7544 55.4808 66.2634V64.8955C53.8182 64.5744 52.4413 63.3856 51.8638 61.7707C51.6966 61.3076 51.9337 60.7981 52.3866 60.6283C52.8425 60.4615 53.3441 60.6993 53.5112 61.1625C53.8942 62.2432 54.8395 63.0182 55.958 63.1695C57.0796 63.3208 58.1921 62.8268 58.8425 61.8881C59.49 60.9463 59.572 59.7174 59.0492 58.6984C58.5295 57.6794 57.493 57.0402 56.3623 57.0402C53.8881 57.0402 51.8212 55.1258 51.5932 52.6248C51.3652 50.1206 53.0492 47.8541 55.4808 47.3941V46.0292C55.4808 45.5352 55.876 45.1338 56.3623 45.1338C56.8456 45.1338 57.2407 45.5352 57.2407 46.0292V47.3971C58.9064 47.7152 60.2802 48.9039 60.8608 50.5219ZM31.5931 5.01779C33.2131 3.37204 35.7481 3.11885 37.654 4.4095C39.5568 5.70327 40.2984 8.17965 39.423 10.3288C38.5446 12.4779 36.2983 13.7006 34.0521 13.2467C31.8059 12.7928 30.1889 10.7919 30.1889 8.46374C30.1858 7.17306 30.6903 5.93181 31.5931 5.01779ZM34.9853 5.37598C33.5354 5.37598 32.2892 6.41655 32.0065 7.86161C31.7238 9.30667 32.4868 10.7517 33.8272 11.3168C35.1646 11.8788 36.7087 11.4033 37.5142 10.1774C38.3197 8.95467 38.1616 7.32124 37.1373 6.28067C36.5658 5.70017 35.7937 5.37598 34.9853 5.37598ZM26.6173 24.7607C29.0094 26.6534 31.9548 27.6817 34.9853 27.6817C38.0187 27.6817 40.9641 26.6534 43.3564 24.7607C43.2074 20.1753 39.5022 16.5382 34.9853 16.5382C30.4685 16.5382 26.7667 20.1756 26.6173 24.7607ZM34.9853 0C31.432 0 28.0156 1.41115 25.4711 3.93385C22.927 6.45655 21.4527 9.89019 21.3647 13.5025C21.2796 17.1121 22.5835 20.6136 25.0061 23.26C25.8602 18.3412 30.0669 14.753 34.9848 14.753C39.9028 14.753 44.1122 18.341 44.9666 23.26C47.3861 20.6138 48.6931 17.1123 48.608 13.5025C48.5199 9.88979 47.0457 6.45616 44.5016 3.93385C41.9575 1.41115 38.5411 0 34.9853 0ZM19.9059 16.9366C20.8512 21.6887 23.9151 25.7242 28.1945 27.8609C32.4773 30.0007 37.4924 30.0007 41.7752 27.8609C46.0549 25.7242 49.1188 21.6884 50.0638 16.9366C58.2497 22.1858 63.2103 31.3381 63.201 41.1692C63.201 41.5181 63.1979 41.8331 63.1888 42.1171C58.7906 39.9032 53.6139 39.9557 49.2587 42.253C44.9 44.5534 41.8817 48.8238 41.1343 53.7551C40.3896 58.6832 42.0006 63.6795 45.4748 67.2057C45.6116 67.3447 45.7514 67.4806 45.8942 67.6164C42.4413 69.0893 38.7331 69.8427 34.9849 69.8334C32.8937 69.8365 30.8085 69.6019 28.7659 69.1387C27.1732 68.7743 25.6169 68.2679 24.1123 67.6287C24.2552 67.4929 24.395 67.357 24.5318 67.2181C27.9999 63.6856 29.6048 58.6865 28.851 53.7556C28.1003 48.8244 25.0789 44.5537 20.7204 42.2535C16.3616 39.9562 11.1852 39.9036 6.78099 42.1145C6.77187 41.8335 6.76883 41.5186 6.76883 41.1728C6.75971 31.3385 11.7202 22.1885 19.9059 16.9366Z" fill="#C6A95F"/>
</svg>
