<svg width="59" height="56" viewBox="0 0 59 56" fill="none" xmlns="http://www.w3.org/2000/svg">
<path d="M34.4394 55.1806C32.2661 54.1441 30.465 52.4675 29.2803 50.3776L21.303 36.2998C20.4961 34.8668 20.945 33.0544 22.3314 32.1624C23.7177 31.2731 25.5586 31.6101 26.5358 32.9327L29.9591 37.5997L29.9619 21.2506C29.9193 20.452 30.2091 19.6732 30.7631 19.0927C31.3142 18.5149 32.0812 18.1864 32.8824 18.1864C33.6835 18.1864 34.4477 18.5149 35.0017 19.0927C35.5528 19.6732 35.8426 20.452 35.8029 21.2506V32.1167C36.3029 31.74 36.9164 31.5361 37.5443 31.5361C38.442 31.5446 39.2829 31.9723 39.817 32.6916C40.3596 31.9638 41.2119 31.539 42.121 31.539C43.0272 31.539 43.8823 31.9638 44.4221 32.6916C45.1607 31.7032 46.4505 31.2954 47.6237 31.6806C48.797 32.0658 49.5924 33.1589 49.5981 34.3908V40.3493C49.6152 45.2685 47.6634 49.9952 44.1721 53.473C41.621 56.0444 37.7179 56.7268 34.4394 55.1806ZM49.4901 14.1284C50.3907 14.1284 51.2032 13.5875 51.5497 12.7577C51.8935 11.928 51.7031 10.9736 51.0668 10.3393C50.4276 9.70208 49.4702 9.51236 48.6378 9.85784C47.8055 10.2005 47.2629 11.0104 47.2629 11.9082C47.2629 12.4972 47.4987 13.0607 47.9163 13.4771C48.3339 13.8934 48.8992 14.1284 49.4901 14.1284ZM11.6498 14.1284C12.5504 14.1284 13.3629 13.5875 13.7095 12.7577C14.0532 11.928 13.8629 10.9736 13.2265 10.3393C12.5873 9.70208 11.6299 9.51236 10.7976 9.85784C9.96523 10.2005 9.42262 11.0104 9.42262 11.9082C9.42262 12.4972 9.65842 13.0607 10.076 13.4771C10.4936 13.8934 11.0589 14.1284 11.6498 14.1284ZM24.2635 14.1284C25.1641 14.1284 25.9766 13.5875 26.3231 12.7577C26.6669 11.928 26.4765 10.9736 25.8402 10.3393C25.201 9.70208 24.2436 9.51236 23.4113 9.85784C22.5789 10.2005 22.0363 11.0104 22.0363 11.9082C22.0363 12.4972 22.2721 13.0607 22.6897 13.4771C23.1073 13.8934 23.6726 14.1284 24.2635 14.1284ZM36.8772 14.1284C37.7777 14.1284 38.5902 13.5875 38.9368 12.7577C39.2805 11.928 39.0902 10.9736 38.4538 10.3393C37.8146 9.70208 36.8573 9.51236 36.0249 9.85784C35.1926 10.2005 34.6499 11.0104 34.6499 11.9082C34.6499 12.4972 34.8857 13.0607 35.3034 13.4771C35.721 13.8934 36.2863 14.1284 36.8772 14.1284ZM-0.000197674 11.9081C0.00264302 8.75047 1.26401 5.72316 3.5026 3.49181C5.74402 1.26024 8.77809 0.00282743 11.9454 0H47.0526C51.3196 0 55.2627 2.2684 57.3994 5.95276C59.5329 9.63713 59.5329 14.1799 57.3994 17.8642C55.2631 21.5486 51.3199 23.817 47.0526 23.817H36.9393V21.2484V21.2512C36.9847 20.1468 36.5813 19.0734 35.8143 18.2748C35.0472 17.479 33.9876 17.0287 32.8825 17.0287C31.7746 17.0287 30.7149 17.479 29.9479 18.2748C29.1837 19.0734 28.7774 20.1467 28.8257 21.2512V23.8198L11.9452 23.817C8.77758 23.817 5.74075 22.5596 3.49947 20.328C1.26088 18.0936 0.00263865 15.0656 -0.000197674 11.9081ZM46.1665 11.9081C46.1665 13.2647 46.9847 14.4881 48.2432 15.0063C49.4989 15.5245 50.9448 15.2385 51.908 14.2785C52.871 13.3213 53.158 11.877 52.6381 10.6252C52.1153 9.37063 50.891 8.55502 49.5302 8.55502C47.6722 8.55502 46.1665 10.056 46.1665 11.9081ZM33.5528 11.9081C33.5528 13.2647 34.371 14.4881 35.6295 15.0063C36.8852 15.5245 38.3312 15.2385 39.2943 14.2785C40.2573 13.3213 40.5443 11.877 40.0244 10.6252C39.5017 9.37063 38.2773 8.55502 36.9165 8.55502C36.0159 8.54369 35.1523 8.89486 34.5131 9.52353C33.8739 10.1522 33.5131 11.0131 33.5131 11.9081L33.5528 11.9081ZM20.9392 11.9081C20.9392 13.2647 21.7574 14.4881 23.0159 15.0063C24.2716 15.5245 25.7175 15.2385 26.6806 14.2785C27.6437 13.3213 27.9307 11.877 27.4107 10.6252C26.888 9.37063 25.6636 8.55502 24.3028 8.55502C23.4023 8.54369 22.5387 8.89486 21.8995 9.52353C21.2603 10.1522 20.8995 11.0131 20.8995 11.9081L20.9392 11.9081ZM8.28625 11.9081C8.28625 13.2647 9.10725 14.4881 10.3629 15.0063C11.6215 15.5245 13.0675 15.2385 14.0305 14.2785C14.9907 13.3213 15.2777 11.877 14.7578 10.6252C14.2379 9.37063 13.0107 8.55502 11.6499 8.55502C9.79197 8.55502 8.28625 10.056 8.28625 11.9081Z" fill="#C6A95F"/>
</svg>
