<svg width="82" height="62" viewBox="0 0 82 62" fill="none" xmlns="http://www.w3.org/2000/svg">
<path d="M8.21767 10.7181L18.9358 0H4.11461C1.84591 0 0.000976562 1.84502 0.000976562 4.11364V10.7181L8.21767 10.7181Z" fill="#C6A95F"/>
<path d="M20.4043 10.7181L31.1224 0H22.7994L12.0813 10.7181H20.4043Z" fill="#C6A95F"/>
<path d="M24.2686 10.7181H81.9999V4.11364C81.9999 1.84493 80.1549 0 77.8863 0H34.9866L24.2686 10.7181ZM70.8891 5.3812H73.2431C73.9982 5.3812 74.6098 5.99278 74.6098 6.74786C74.6098 7.50295 73.9982 8.11453 73.2431 8.11453H70.8891C70.134 8.11453 69.5224 7.50295 69.5224 6.74786C69.5224 5.99278 70.134 5.3812 70.8891 5.3812ZM64.1514 5.3812H66.5055C67.2606 5.3812 67.8722 5.99278 67.8722 6.74786C67.8722 7.50295 67.2606 8.11453 66.5055 8.11453H64.1514C63.3964 8.11453 62.7848 7.50295 62.7848 6.74786C62.7848 5.99278 63.3964 5.3812 64.1514 5.3812ZM57.4138 5.3812H59.7679C60.523 5.3812 61.1345 5.99278 61.1345 6.74786C61.1345 7.50295 60.523 8.11453 59.7679 8.11453H57.4138C56.6587 8.11453 56.0471 7.50295 56.0471 6.74786C56.0471 5.99278 56.6587 5.3812 57.4138 5.3812Z" fill="#C6A95F"/>
<path d="M40.9422 25.8262C39.7464 26.6086 38.4686 27.2714 37.1394 27.801C35.5062 28.4536 33.8013 28.9046 32.0588 29.1438V35.1605C32.0588 38.7309 33.6066 42.1202 36.3058 44.4573L41.0037 48.5265L45.7016 44.4573C48.3973 42.1203 49.9485 38.731 49.9485 35.1605V29.2121C48.329 28.9968 46.7403 28.5937 45.213 28.0162C43.7096 27.4457 42.2781 26.7111 40.949 25.8262H40.9422ZM45.0183 36.1411L40.8739 40.2855C40.6074 40.552 40.2589 40.6853 39.9069 40.6853C39.5584 40.6853 39.2065 40.552 38.94 40.2855L36.9822 38.3278C36.4492 37.7948 36.4492 36.9303 36.9822 36.394C37.5152 35.861 38.3797 35.861 38.916 36.394L39.9069 37.3848L43.0843 34.2073C43.6173 33.6743 44.4818 33.6743 45.0181 34.2073C45.5511 34.7403 45.5513 35.6047 45.0183 36.1411Z" fill="#C6A95F"/>
<path d="M0 13.4512V57.536C0 59.8047 1.84502 61.6497 4.11364 61.6497H77.8864C80.1551 61.6497 82 59.8046 82 57.536V13.4512H0ZM58.1416 35.1604C58.1416 41.1122 55.562 46.7602 51.0657 50.655L45.4761 55.4999C44.2017 56.6035 42.6026 57.1569 41.0037 57.1569C39.4047 57.1569 37.8057 56.6034 36.5278 55.4999L30.9382 50.655C26.4419 46.7601 23.8623 41.1124 23.8623 35.1604V22.0334C23.8623 21.6097 24.0571 21.21 24.3919 20.9537C24.7268 20.694 25.1607 20.6052 25.5707 20.7111C27.2073 21.1348 30.4941 21.6302 34.0987 20.1884C36.996 19.0301 38.8615 17.1305 39.9138 15.7399C40.1735 15.3982 40.5766 15.2001 41.0037 15.2001H41.014C41.4479 15.2035 41.8511 15.4119 42.1073 15.7604C43.1734 17.2193 45.0866 19.201 48.1206 20.3524C51.6603 21.6952 54.8378 21.1587 56.4129 20.718C56.8229 20.6052 57.2636 20.6872 57.6053 20.9469C57.947 21.2066 58.1452 21.6097 58.1452 22.0368V35.1638L58.1416 35.1604Z" fill="#C6A95F"/>
<path d="M47.1462 22.9046C44.3514 21.8421 42.3458 20.2021 40.9825 18.7021C39.6569 20.1167 37.7367 21.6746 35.1093 22.727C31.8054 24.0458 28.7304 24.0151 26.5916 23.7008V35.1606C26.5916 40.3197 28.8261 45.2123 32.7244 48.5885L38.3141 53.4333C39.8447 54.759 42.1544 54.759 43.6816 53.4333L49.2747 48.5885C53.1731 45.2128 55.4076 40.3168 55.4076 35.1606V23.7253C53.3268 24.0567 50.3613 24.1244 47.1462 22.9046ZM52.6743 35.1605C52.6743 39.527 50.7815 43.668 47.4844 46.5241L41.8948 51.3689C41.6385 51.591 41.3208 51.7038 40.9996 51.7038C40.6819 51.7038 40.3607 51.591 40.1045 51.3689L34.5149 46.5241C31.2144 43.6678 29.325 39.5268 29.325 35.1605V27.9172C29.325 27.2031 29.8751 26.612 30.5857 26.5539C32.4922 26.4036 34.3577 25.9697 36.1241 25.2624C37.5522 24.6918 38.9053 23.9504 40.1524 23.0553C40.6341 22.7102 41.2799 22.7102 41.7582 23.0621C43.1078 24.0529 44.594 24.8593 46.1759 25.4606C47.8535 26.0961 49.6131 26.4856 51.4103 26.6188C52.1243 26.6701 52.6778 27.2646 52.6778 27.9821V35.1605L52.6743 35.1605Z" fill="#C6A95F"/>
</svg>
