<svg width="82" height="72" viewBox="0 0 82 72" fill="none" xmlns="http://www.w3.org/2000/svg">
<path fill-rule="evenodd" clip-rule="evenodd" d="M40.9992 0L59.4602 10.4297L75.6421 19.5704L6.3553 19.5746L22.5372 10.4339L40.9992 0ZM35.6416 56.2421H46.3568C47.6562 56.2421 48.7202 57.3044 48.7202 58.6018V59.6473H33.2779V58.6018C33.2779 57.3044 34.3422 56.2421 35.6416 56.2421ZM61.012 56.2421H71.7314C73.0308 56.2421 74.0948 57.3044 74.0948 58.6018V59.6473H58.6525V58.6018C58.6525 57.3044 59.7125 56.2421 61.012 56.2421ZM10.2701 56.2421H20.9895C22.2889 56.2421 23.3529 57.3044 23.3529 58.6018V59.6473H7.90631V58.6018C7.90631 57.3044 8.96649 56.2421 10.2701 56.2421ZM70.5579 54.5164V32.1159H62.1851V54.5164H70.5579ZM19.8118 54.5164V32.1159H11.439V54.5164H19.8118ZM45.1821 54.5164V32.1159H36.8094V54.5164H45.1821ZM2.22925 67.5493H79.7712C80.9949 67.5493 82 68.5487 82 69.7747V72H0V69.7747C0 68.5487 1.0013 67.5493 2.22925 67.5493ZM35.6405 30.3563H46.3599C47.6593 30.3563 48.7233 29.294 48.7233 27.9966V26.9511L33.2767 26.9553V28.0008C33.2767 29.294 34.3411 30.3563 35.6405 30.3563ZM61.0109 30.3563H71.7303C73.0297 30.3563 74.0937 29.294 74.0937 27.9966V26.9511L58.6514 26.9553V28.0008C58.6514 29.294 59.7115 30.3563 61.0109 30.3563ZM10.2691 30.3563H20.9842C22.2837 30.3563 23.3476 29.294 23.3476 27.9966V26.9511L7.90534 26.9553V28.0008C7.90534 29.294 8.96542 30.3563 10.2691 30.3563ZM6.29921 61.372H75.6958C76.9196 61.372 77.9247 62.3713 77.9247 63.5973V65.8227H4.07427V63.5973C4.07427 62.3713 5.07547 61.372 6.29921 61.372ZM4.07459 21.3326H77.925V23.2641C77.925 24.3264 77.0545 25.1914 75.9905 25.1914H6.00499C4.94104 25.1914 4.0705 24.3222 4.0705 23.2641L4.07459 21.3326ZM40.9976 6.9518C38.4324 6.9518 36.3549 9.026 36.3549 11.5872C36.3549 14.1485 38.4324 16.2227 40.9976 16.2227C43.5629 16.2227 45.6403 14.1485 45.6403 11.5872C45.6403 9.026 43.5629 6.9518 40.9976 6.9518Z" fill="#C6A95F"/>
</svg>
