<svg width="52" height="72" viewBox="0 0 52 72" fill="none" xmlns="http://www.w3.org/2000/svg">
<path fill-rule="evenodd" clip-rule="evenodd" d="M10.4904 54.8314C10.8876 54.4342 11.5314 54.4342 11.9286 54.8314C12.3258 55.2286 12.3258 55.8724 11.9286 56.2696L8.2866 59.9116C8.24817 59.95 8.20653 59.9884 8.16168 60.0205C8.12004 60.0493 8.0784 60.0781 8.03356 60.1005C7.89262 60.1742 7.73246 60.2159 7.5627 60.2159C7.39293 60.2159 7.23277 60.1742 7.09183 60.1005C7.04699 60.0781 7.00214 60.0493 6.96371 60.0205C6.91886 59.9884 6.87722 59.95 6.83879 59.9116L3.19682 56.2696C2.79963 55.8724 2.79963 55.2286 3.19682 54.8314C3.59401 54.4342 4.23782 54.4342 4.63503 54.8314L6.55047 56.7468V44.719C6.55047 44.1585 7.00532 43.7036 7.56588 43.7036C8.12645 43.7036 8.5813 44.1585 8.5813 44.719V56.7468L10.4967 54.8314H10.4904Z" fill="#C6A95F"/>
<path fill-rule="evenodd" clip-rule="evenodd" d="M45.693 54.8314C46.0902 54.4342 46.734 54.4342 47.1312 54.8314C47.5284 55.2286 47.5284 55.8724 47.1312 56.2696L43.4892 59.9116C43.4508 59.95 43.4092 59.9884 43.3643 60.0205C43.3259 60.0493 43.2778 60.0781 43.2362 60.1005C43.0953 60.1742 42.9351 60.2159 42.7653 60.2159C42.5956 60.2159 42.4354 60.1742 42.2945 60.1005C42.2496 60.0781 42.2048 60.0493 42.1663 60.0205C42.1215 59.9884 42.0799 59.95 42.0414 59.9116L38.3995 56.2696C38.0023 55.8724 38.0023 55.2286 38.3995 54.8314C38.7966 54.4342 39.4405 54.4342 39.8377 54.8314L41.7531 56.7468V44.719C41.7531 44.1585 42.208 43.7036 42.7685 43.7036C43.3291 43.7036 43.7839 44.1585 43.7839 44.719V56.7468L45.6994 54.8314H45.693Z" fill="#C6A95F"/>
<path fill-rule="evenodd" clip-rule="evenodd" d="M46.446 21.9321H3.8763C3.36059 21.9321 2.89295 22.1435 2.55339 22.4831C2.21386 22.8226 2.00244 23.2903 2.00244 23.806C2.00244 24.3217 2.21385 24.7893 2.55339 25.1289C2.89292 25.4684 3.36058 25.6798 3.8763 25.6798H46.446C46.9617 25.6798 47.4293 25.4684 47.7689 25.1289C48.1084 24.7894 48.3198 24.3217 48.3198 23.806C48.3198 23.2903 48.1084 22.8226 47.7689 22.4831C47.4294 22.1435 46.9617 21.9321 46.446 21.9321Z" fill="#C6A95F"/>
<path fill-rule="evenodd" clip-rule="evenodd" d="M19.001 56.5131H31.3175L32.7013 43.6816C32.7173 43.5279 32.7685 43.3773 32.8582 43.2364L42.9164 27.7104H7.40283L17.4348 43.1979C17.5341 43.3356 17.5981 43.499 17.6173 43.6815L19.001 56.5131Z" fill="#C6A95F"/>
<path d="M0 3.26392H4.96488V8.22879H0V3.26392Z" fill="#C6A95F"/>
<path d="M11.2915 9.47795L15.7759 7.32544L17.9285 11.8099L13.444 13.9624L11.2915 9.47795Z" fill="#C6A95F"/>
<path d="M35.6929 8.53305L40.3887 6.89624L42.0255 11.5921L37.3297 13.2289L35.6929 8.53305Z" fill="#C6A95F"/>
<path d="M46.1704 0H51.1353V4.96488H46.1704V0Z" fill="#C6A95F"/>
<path fill-rule="evenodd" clip-rule="evenodd" d="M31.8235 19.8978L28.7229 16.3647L24.9849 19.6448L25.2059 19.8978L31.8235 19.8978Z" fill="#C6A95F"/>
<path d="M12.563 69.649L14.9141 68.5215L16.0416 70.8726L13.6905 72.0001L12.563 69.649Z" fill="#C6A95F"/>
<path d="M23.6777 68.8387L26.2851 68.7778L26.346 71.3852L23.7386 71.4461L23.6777 68.8387Z" fill="#C6A95F"/>
<path d="M35.6987 68.6434L38.3061 68.5825L38.367 71.1899L35.7596 71.2507L35.6987 68.6434Z" fill="#C6A95F"/>
<path fill-rule="evenodd" clip-rule="evenodd" d="M22.291 58.5437L23.0758 60.1805L25.4269 59.0498L25.1835 58.5437L22.291 58.5437Z" fill="#C6A95F"/>
</svg>
