<svg width="64" height="64" viewBox="0 0 64 64" fill="none" xmlns="http://www.w3.org/2000/svg">
<path d="M6.78803 23.3951H12.1766V36.5555H6.78803V23.3951ZM2.08355 16.2046L12.0948 16.7926L12.0922 16.7953C12.8052 16.835 13.4946 16.5436 13.9682 16.0086L13.9761 16.0007L19.8882 9.87195H19.8856C19.9619 9.79249 20.0856 9.78454 20.1724 9.8534L26.8897 15.1107H26.8923C27.8316 15.847 29.1709 15.7464 29.9944 14.883H29.9971L38.4638 6.3385L39.9136 7.78724C40.032 7.90642 40.2056 7.9435 40.3609 7.89053C40.5187 7.83491 40.6292 7.69454 40.6477 7.52768L41.4344 0.485045C41.4475 0.35262 41.4028 0.220195 41.3081 0.127496C41.2134 0.0347964 41.0844 -0.0128754 40.9529 0.00301748L33.9619 0.83997C33.7988 0.861158 33.6593 0.972394 33.6067 1.13131C33.5515 1.28757 33.5909 1.46237 33.7093 1.58156L35.1749 3.04887L28.2573 10.0223C28.181 10.1018 28.06 10.1097 27.9731 10.0409L21.248 4.77827C20.3139 4.02871 18.9694 4.11613 18.1406 4.97691L18.1222 4.99545L10.9547 12.8137C10.9205 12.8535 10.8731 12.8773 10.8232 12.8826L2.00613 14.0083C1.45622 14.093 1.05626 14.5777 1.07472 15.1392C1.09317 15.7007 1.52464 16.1562 2.08244 16.2039L2.08355 16.2046ZM26.6769 31.8656C28.003 29.7415 29.8606 28.0094 32.0628 26.836V21.2715H26.6769V31.8656ZM36.6202 25.3608H36.6228C37.2727 25.2708 37.9305 25.2231 38.5883 25.2231C39.7407 25.2231 40.8905 25.3661 42.0087 25.6495V15.8629H36.6202L36.6202 25.3608ZM16.7317 36.5509H22.1176V18.5541H16.7317V36.5509ZM24.5538 39.8589H0.973503C0.723548 39.8377 0.47622 39.9198 0.292053 40.092C0.105245 40.2615 0 40.5025 0 40.7541C0 41.0057 0.105245 41.2467 0.292053 41.4189C0.476234 41.5884 0.723555 41.6731 0.973503 41.652H24.7303C24.6356 41.0587 24.5751 40.4601 24.5566 39.8589L24.5538 39.8589ZM35.6233 62.7605L35.6259 62.7579C35.6285 63.4438 36.1784 63.9974 36.8573 64H40.3145C40.9934 63.9974 41.5459 63.4438 41.5485 62.7579V59.5743L35.6258 59.577L35.6233 62.7605ZM40.6329 54.8358L40.6356 53.3394C39.2779 53.5433 37.8966 53.5433 36.5363 53.3394V54.8384C35.9995 54.9867 35.6285 55.4741 35.6259 56.0355V57.7888H41.5486V56.0355C41.546 55.4741 41.1723 54.9841 40.6356 54.8384L40.6329 54.8358ZM50.847 39.3578C50.847 42.6314 49.555 45.7699 47.2555 48.0847C44.9558 50.3995 41.838 51.6999 38.586 51.6999C35.334 51.6999 32.216 50.3995 29.9164 48.0847C27.6168 45.7699 26.325 42.6313 26.325 39.3578C26.325 36.0844 27.6169 32.9458 29.9164 30.631C32.2161 28.3162 35.334 27.0158 38.586 27.0158C41.838 27.0158 44.9559 28.3162 47.2555 30.631C49.5551 32.9458 50.847 36.0844 50.847 39.3578ZM47.0923 39.3578C47.0923 35.8936 45.0217 32.771 41.8406 31.444C38.6621 30.1197 35.0025 30.8533 32.5682 33.3032C30.137 35.7505 29.4082 39.4346 30.7264 42.6342C32.042 45.8363 35.1441 47.9207 38.5856 47.9207C43.2822 47.9154 47.087 44.0856 47.0923 39.3578ZM45.3137 39.3578C45.3137 42.0965 43.6745 44.5649 41.1591 45.6137C38.6464 46.6625 35.7522 46.0825 33.8287 44.1464C31.9053 42.2103 31.3291 39.297 32.371 36.7647C33.413 34.2354 35.8652 32.5853 38.5858 32.5853C42.2983 32.5906 45.3085 35.6208 45.3137 39.3578ZM42.4063 36.6643C42.2379 36.4948 42.0117 36.4021 41.7748 36.4021C41.5407 36.4021 41.3144 36.4948 41.146 36.6643L37.6782 40.155L36.0259 38.5076C35.6707 38.2083 35.1471 38.2348 34.8208 38.5659C34.4945 38.8969 34.4735 39.424 34.7734 39.7816L37.0572 42.054C37.4072 42.3983 37.965 42.3983 38.3123 42.0514L42.4063 37.9303C42.5721 37.7634 42.6668 37.5357 42.6668 37.2973C42.6668 37.0589 42.5721 36.8311 42.4063 36.6643ZM63.9997 24.468C63.997 23.9727 63.5971 23.5701 63.1051 23.5701H53.1174C52.8254 23.5728 52.5517 23.7158 52.386 23.9568L49.5443 28.0965V28.0991C49.4101 28.2925 49.3575 28.5361 49.3996 28.7692C49.4417 29.0049 49.5733 29.2115 49.768 29.3492C49.9627 29.4843 50.2048 29.5346 50.4363 29.4923C50.6705 29.4472 50.8757 29.3122 51.0099 29.1162L53.5857 25.3605H63.1107C63.6001 25.3605 63.997 24.9606 63.9997 24.468ZM59.4715 27.3469H55.6721C55.2117 27.3893 54.8591 27.776 54.8591 28.2448C54.8591 28.7109 55.2117 29.0976 55.6721 29.14H59.4715C59.9319 29.0976 60.2871 28.7109 60.2871 28.2448C60.2871 27.776 59.9319 27.3893 59.4715 27.3469ZM63.1103 27.3469H61.8342C61.3711 27.3893 61.0186 27.776 61.0186 28.2448C61.0186 28.7109 61.3712 29.0976 61.8342 29.14H63.1103C63.5997 29.14 63.9996 28.7374 63.9996 28.2448C63.9996 27.7495 63.5997 27.3469 63.1103 27.3469ZM24.7303 45.463H14.7372C14.4452 45.4657 14.1715 45.6087 14.0058 45.8497L11.1641 49.992C11.0221 50.188 10.9642 50.4317 11.0036 50.6701C11.0431 50.9084 11.1799 51.123 11.3773 51.2607C11.5746 51.3984 11.8193 51.4487 12.0561 51.4011C12.2929 51.3534 12.4981 51.213 12.6297 51.0091L15.2055 47.2561H24.7305C25.1909 47.2164 25.5461 46.827 25.5461 46.3609C25.5461 45.8948 25.1907 45.5054 24.7303 45.463ZM21.0915 49.2398H17.2948C17.0448 49.2187 16.7975 49.3034 16.6133 49.4729C16.4265 49.6424 16.3213 49.8834 16.3213 50.135C16.3213 50.3893 16.4265 50.6303 16.6133 50.7998C16.7975 50.9693 17.0448 51.0541 17.2948 51.0329H21.0941H21.0915C21.5546 50.9905 21.9071 50.6012 21.9071 50.1351C21.9071 49.6689 21.5545 49.2822 21.0915 49.2398ZM24.7303 49.2398H23.4542C22.9938 49.2822 22.6386 49.6689 22.6386 50.135C22.6386 50.6012 22.9938 50.9905 23.4542 51.0329H24.7303C25.1907 50.9905 25.5459 50.6012 25.5459 50.135C25.5459 49.6689 25.1907 49.2822 24.7303 49.2398Z" fill="#C6A95F"/>
</svg>
