<svg width="67" height="76" viewBox="0 0 67 76" fill="none" xmlns="http://www.w3.org/2000/svg">
<path fill-rule="evenodd" clip-rule="evenodd" d="M66.9857 15.8418C67.0553 44.5896 67.8903 57.6717 35.5431 75.4557C34.2273 76.1809 32.7566 76.1809 31.4408 75.4589C-0.0463628 58.1718 -0.0236898 45.9604 0.00141118 15.8482C0.00141118 14.2332 0.830067 12.8493 2.25337 12.0893C9.50278 8.20999 19.1399 4.51123 32.1592 0.223257C33.0606 -0.0744191 33.9209 -0.0744191 34.8224 0.223257C47.8441 4.51423 57.4813 8.20983 64.7314 12.0925C66.1547 12.8494 66.9834 14.2301 66.9866 15.842L66.9857 15.8418ZM43.7131 34.0507L42.2898 30.8428L39.2976 37.5816H45.285L43.7131 34.0507ZM26.1367 34.0507L24.7134 30.8428L21.7213 37.5816H27.7087L26.1367 34.0507ZM32.994 27.5904V29.0947H24.7107C24.4892 29.0947 24.3026 29.2372 24.2331 29.4335L20.5008 37.8347C20.4565 37.9075 20.4344 37.9962 20.4344 38.088C20.4344 39.0634 20.9309 39.9406 21.7344 40.5644C22.5029 41.1629 23.553 41.5303 24.7107 41.5303C25.8683 41.5303 26.9216 41.1598 27.687 40.5644C28.4904 39.9374 28.987 39.0634 28.987 38.088C28.987 37.9962 28.9617 37.9075 28.9174 37.8315L25.4856 30.1047L32.9944 30.1078V47.9049H27.5573C27.279 47.9049 27.0513 48.1329 27.0513 48.4116C27.0513 48.6902 27.279 48.9182 27.5573 48.9182L33.5005 48.9151H39.4436C39.7219 48.9151 39.9496 48.6871 39.9496 48.4084C39.9496 48.1297 39.7219 47.9017 39.4436 47.9017H34.0065V30.1079H41.5121L38.0772 37.838C38.0329 37.9108 38.0107 37.9995 38.0107 38.0913C38.0107 39.0667 38.5073 39.9439 39.3107 40.5677C40.0793 41.1663 41.1326 41.5336 42.2871 41.5336C43.4447 41.5336 44.498 41.1631 45.2634 40.5677C46.0668 39.9407 46.5634 39.0667 46.5634 38.0913C46.5634 37.9995 46.5381 37.9108 46.4938 37.8348L42.7615 29.4337C42.6919 29.2373 42.5053 29.0948 42.2839 29.0948L34.0063 29.0917V27.5874C34.0063 27.3088 33.7785 27.0807 33.5002 27.0807C33.2219 27.0839 32.994 27.3086 32.994 27.5904ZM45.4813 38.598H39.0954C39.2251 39.0445 39.5224 39.4498 39.9336 39.7696C40.5314 40.2352 41.3632 40.5233 42.29 40.5233C43.2168 40.5233 44.0486 40.2352 44.6464 39.7696C45.0576 39.4466 45.3517 39.0445 45.4813 38.598ZM27.905 38.598H21.519C21.6487 39.0445 21.946 39.4498 22.3572 39.7696C22.955 40.2352 23.7869 40.5233 24.7137 40.5233C25.6404 40.5233 26.4723 40.2352 27.0701 39.7696C27.4812 39.4466 27.7753 39.0445 27.905 38.598ZM33.5002 18.2829C28.0632 18.2829 23.1416 20.4902 19.5773 24.0559C16.0127 27.628 13.8081 32.5552 13.8081 37.9989C13.8081 43.4427 16.0127 48.3701 19.5741 51.9387C23.1387 55.5076 28.0599 57.7117 33.4971 57.7117C38.9342 57.7117 43.8557 55.5044 47.42 51.9387C50.9846 48.3698 53.186 43.4427 53.186 37.9989C53.186 32.5552 50.9814 27.6278 47.42 24.0592C43.8586 20.4903 38.9366 18.2829 33.5002 18.2829ZM46.7082 24.7748C43.327 21.3895 38.6585 19.2963 33.5002 19.2963C28.3419 19.2963 23.6728 21.3895 20.2922 24.7748C16.9117 28.16 14.8204 32.8341 14.8204 37.9987C14.8204 43.1633 16.9111 47.838 20.2922 51.2226C23.6734 54.6073 28.3419 56.7011 33.5002 56.7011C38.6585 56.7011 43.3276 54.6079 46.7082 51.2226C50.0887 47.8374 52.18 43.1633 52.18 37.9987C52.18 32.8341 50.0894 28.1594 46.7082 24.7748Z" fill="#C6A95F"/>
</svg>
