<svg width="76" height="69" viewBox="0 0 76 69" fill="none" xmlns="http://www.w3.org/2000/svg">
<path fill-rule="evenodd" clip-rule="evenodd" d="M37.7568 37.5121C41.7724 37.5121 45.0302 40.7699 45.0302 44.7855C45.0302 48.8011 41.7724 52.0589 37.7568 52.0589C33.7412 52.0589 30.4834 48.8011 30.4834 44.7855C30.4834 40.7699 33.7412 37.5121 37.7568 37.5121ZM1.47576 60.1801H21.9018C22.1479 58.1332 22.9526 56.2504 24.1479 54.6645C24.9643 53.5825 25.9643 52.6411 27.0932 51.8833C26.8041 50.2466 26.062 48.7505 25.0112 47.5161C23.8979 46.2114 22.4409 45.1958 20.8003 44.6099C19.8784 45.3365 18.8472 45.9224 17.73 46.3443C16.4488 46.8287 15.062 47.0943 13.6167 47.0943C12.1753 47.0943 10.7886 46.8287 9.50336 46.3443C8.39006 45.9224 7.35496 45.3326 6.43306 44.606C4.61276 45.2544 3.01506 46.438 1.86276 47.9654C0.655761 49.567 -0.0552382 51.5474 0.00336176 53.6802L0.143982 58.899C0.151794 59.2506 0.308042 59.5748 0.546322 59.8052C0.788512 60.0357 1.11638 60.1801 1.47576 60.1801ZM51.3668 54.6645C52.5621 56.2504 53.3668 58.1333 53.6129 60.1801H74.0389C74.3982 60.1801 74.7264 60.0395 74.9607 59.809C75.199 59.5746 75.3514 59.2543 75.3631 58.9028L75.5037 53.684C75.5623 51.5512 74.8553 49.5746 73.6443 47.9692C72.492 46.4419 70.8943 45.2583 69.074 44.6098C68.1521 45.3363 67.1209 45.9262 66.0037 46.3481C64.7225 46.8324 63.3318 47.0981 61.8904 47.0981C60.449 47.0981 59.0623 46.8324 57.7771 46.3481C56.6638 45.9262 55.6287 45.3364 54.7068 44.6137C53.0662 45.1996 51.6091 46.2153 50.4959 47.5199C49.4451 48.7543 48.7068 50.2504 48.4139 51.8871C49.5545 52.641 50.5543 53.5825 51.3668 54.6645ZM26.0078 56.0668C26.7929 55.0277 27.7851 54.1449 28.914 53.4848L28.9569 53.4614C29.4725 53.1645 30.0155 52.9106 30.578 52.7075C31.4999 53.434 32.5311 54.0238 33.6483 54.4457C34.9295 54.9301 36.3163 55.1957 37.7577 55.1957C39.1991 55.1957 40.5858 54.9301 41.871 54.4457C42.9843 54.0239 44.0194 53.4341 44.9413 52.7075C45.5038 52.9106 46.0468 53.1606 46.5585 53.4575L46.6093 53.4887C47.7343 54.1489 48.7265 55.0278 49.5077 56.0668C50.621 57.5434 51.3085 59.3402 51.3671 61.2777V61.3441C51.3671 61.3832 51.3671 61.4183 51.3749 61.4535C51.3749 61.5629 51.3749 61.6683 51.371 61.7777L51.2304 66.9965C51.2226 67.352 51.0663 67.6723 50.8281 67.9028C50.5937 68.1332 50.2656 68.2738 49.9062 68.2738L25.6172 68.2817C25.2578 68.2817 24.9297 68.141 24.6953 67.9106C24.457 67.6762 24.3047 67.3559 24.293 67.0043L24.1523 61.7855C24.1484 61.6761 24.1484 61.5707 24.1484 61.4652C24.1523 61.4261 24.1563 61.391 24.1563 61.3519L24.1523 61.2816C24.207 59.3363 24.8945 57.5433 26.0078 56.0668ZM54.3668 12.4458C54.9918 12.2817 55.6285 12.6489 55.7965 13.2739C55.9605 13.895 55.5933 14.5356 54.9722 14.6997L49.4136 16.188C48.7926 16.3521 48.1519 15.9849 47.9839 15.3638C47.8199 14.7427 48.1871 14.1021 48.8121 13.9341L54.3668 12.4458ZM46.5035 3.9653C46.8316 3.41061 47.5465 3.22702 48.0973 3.55514C48.652 3.88327 48.8355 4.59814 48.5074 5.15284L45.566 10.0981C45.2379 10.6528 44.523 10.8364 43.9722 10.5083C43.4175 10.1802 43.2339 9.4653 43.5621 8.9106L46.5035 3.9653ZM20.5465 14.6993C19.9254 14.5313 19.5543 13.8946 19.7222 13.2735C19.8863 12.6524 20.5269 12.2813 21.148 12.4454L26.7066 13.9337C27.3277 14.0977 27.6988 14.7384 27.5309 15.3634C27.3668 15.9845 26.7262 16.3556 26.1051 16.1876L20.5465 14.6993ZM27.0035 5.1524C26.6753 4.59771 26.8589 3.8829 27.4136 3.5547C27.9683 3.22658 28.6831 3.41017 29.0113 3.96486L31.9527 8.91016C32.2809 9.46485 32.0973 10.1797 31.5426 10.5079C30.9879 10.836 30.2731 10.6524 29.9449 10.0977L27.0035 5.1524ZM36.5894 1.168C36.5894 0.523469 37.1128 0 37.7574 0C38.4019 0 38.9254 0.523439 38.9254 1.168V6.9219C38.9254 7.56643 38.4019 8.0899 37.7574 8.0899C37.1128 8.0899 36.5894 7.56646 36.5894 6.9219V1.168ZM40.6949 18.91L46.4293 19.3358C46.7691 19.3592 47.0465 19.578 47.148 19.9022C47.2535 20.2264 47.1558 20.5624 46.898 20.785L42.5074 24.4998L43.8746 30.0857C43.9566 30.4177 43.8356 30.7459 43.5621 30.9451C43.2848 31.1443 42.9371 31.1599 42.6481 30.9802L37.7575 27.945L32.8708 30.9723C32.5817 31.152 32.2301 31.1364 31.9567 30.9372C31.6833 30.738 31.5622 30.4098 31.6403 30.0778L33.0075 24.4919L28.6169 20.7771C28.3552 20.5584 28.2614 20.2224 28.3669 19.8943C28.4724 19.5701 28.7458 19.3552 29.0856 19.3279L34.82 18.9021L36.9958 13.5818C37.1247 13.2693 37.4177 13.074 37.7576 13.074C38.0974 13.074 38.3904 13.2693 38.5154 13.5857L40.6949 18.91ZM61.8979 29.41C57.8823 29.41 54.6245 32.6678 54.6245 36.6834C54.6245 40.699 57.8823 43.9568 61.8979 43.9568C65.9135 43.9568 69.1713 40.7029 69.1713 36.6834C69.1674 32.6678 65.9135 29.41 61.8979 29.41ZM13.6209 29.41C17.6365 29.41 20.8943 32.6678 20.8943 36.6834C20.8943 40.699 17.6365 43.9568 13.6209 43.9568C9.60526 43.9568 6.34746 40.7029 6.34746 36.6834C6.34746 32.6678 9.60136 29.41 13.6209 29.41Z" fill="#C6A95F"/>
</svg>
