<svg width="77" height="75" viewBox="0 0 77 75" fill="none" xmlns="http://www.w3.org/2000/svg">
<path d="M56.6604 36.2252C56.6604 26.2277 48.513 18.0919 38.5009 18.0919C28.4888 18.0919 20.3414 26.2275 20.3414 36.2252C20.3414 40.8243 22.0672 45.2093 25.2028 48.5735C25.7442 49.1554 26.2405 49.7599 26.6842 50.3868C26.7181 50.4356 26.7519 50.4844 26.7857 50.5332C28.6054 53.1463 29.5754 56.1122 29.677 59.3896H47.3138C47.4454 55.2636 48.953 51.6295 51.7954 48.5849C54.9348 45.2135 56.6604 40.8276 56.6604 36.2252ZM25.1982 45.2093C24.5854 45.2093 24.0854 44.71 24.0854 44.0942V33.2818C24.0854 32.8312 24.3598 32.422 24.7772 32.2531L38.0789 26.798C38.421 26.6554 38.8158 26.6967 39.1241 26.9031C39.4324 27.1096 39.6166 27.455 39.6166 27.8267V31.6186L42.6696 30.3684V25.3751C42.6696 24.7594 43.1658 24.2639 43.7824 24.2639H46.9218C47.5384 24.2639 48.0346 24.7594 48.0346 25.3751V28.1683L51.3809 26.7942C51.723 26.6515 52.1178 26.6928 52.426 26.8993C52.7343 27.1058 52.9186 27.4512 52.9186 27.8229V44.0945C52.9186 44.7102 52.4223 45.2095 51.8057 45.2095L25.1982 45.2093ZM45.8053 29.0848L44.8955 29.4565V26.4868H45.8053V29.0848ZM47.3092 30.8719L44.2714 32.1146L44.1285 32.1747C44.1247 32.1784 44.1172 32.1784 44.1135 32.1784L39.6168 34.0218V42.9796H50.6932L50.6894 29.4866L47.3809 30.842L47.3092 30.8719ZM42.9892 39.1539C42.9892 39.7696 42.493 40.2652 41.8764 40.2652C41.2598 40.2652 40.7636 39.7696 40.7636 39.1539V36.9051C40.7636 36.2932 41.2598 35.7939 41.8764 35.7939C42.493 35.7939 42.9892 36.2932 42.9892 36.9051V39.1539ZM46.2639 39.1539C46.2639 39.7696 45.7677 40.2652 45.1511 40.2652C44.5345 40.2652 44.0383 39.7696 44.0383 39.1539V36.9051C44.0383 36.2932 44.5345 35.7939 45.1511 35.7939C45.7677 35.7939 46.2639 36.2932 46.2639 36.9051V39.1539ZM48.4258 35.7938C49.0424 35.7938 49.5387 36.2931 49.5387 36.905V39.1538C49.5387 39.7696 49.0424 40.2651 48.4258 40.2651C47.8093 40.2651 47.313 39.7695 47.313 39.1538V36.905C47.313 36.2931 47.8093 35.7938 48.4258 35.7938ZM42.4854 73.3443C42.6846 73.3443 42.8839 73.3368 43.0832 73.3181C42.8012 74.2904 41.9026 75 40.8461 75H36.1615C35.0974 75 34.1988 74.2867 33.9169 73.3181C34.1124 73.3368 34.3117 73.3443 34.5147 73.3443H42.4854ZM29.6986 61.6121H47.3017V65.19C47.2002 65.16 47.0912 65.1412 46.9784 65.1412H43.6134C43.0005 65.1412 42.5005 65.6368 42.5005 66.2524C42.5005 66.8681 43.0006 67.3637 43.6134 67.3637H46.9784C47.0498 67.3637 47.1212 67.3561 47.1889 67.3449C46.8242 69.0081 45.5948 70.3484 43.9931 70.874C43.9593 70.8853 43.9255 70.8965 43.8954 70.9078C43.448 71.0429 42.978 71.118 42.4855 71.118H34.511C34.0185 71.118 33.541 71.0429 33.0935 70.904C33.0898 70.904 33.0823 70.9003 33.0823 70.9003C33.0597 70.889 33.0334 70.8815 33.0108 70.8777C31.4167 70.3559 30.191 69.0193 29.8188 67.3675L38.5001 67.3637C39.1167 67.3637 39.6129 66.8682 39.6129 66.2525C39.6129 65.6368 39.1166 65.1413 38.5001 65.1413H29.6985L29.6986 61.6121ZM38.5001 10.2677C38.8799 10.2677 39.2521 10.2339 39.613 10.1664V15.8954C39.2445 15.8767 38.8723 15.8654 38.5001 15.8654C38.128 15.8654 37.7557 15.8767 37.3873 15.8954V10.1664C37.7482 10.2339 38.1205 10.2677 38.5001 10.2677ZM54.6817 23.8549C54.2267 23.2655 53.7417 22.6986 53.2267 22.1617L57.7985 17.5965C58.2121 18.2234 58.761 18.7528 59.404 19.1395L54.6817 23.8549ZM66.8111 37.3297C66.7434 37.6901 66.7096 38.0618 66.7096 38.4409C66.7096 38.82 66.7434 39.1918 66.8111 39.5521H58.6148C58.7351 38.82 58.8179 38.0766 58.8554 37.3296L66.8111 37.3297ZM59.5661 57.907C58.9081 58.2749 58.3404 58.7818 57.9042 59.3937L51.3622 52.8612C51.7344 52.2192 52.1593 51.5997 52.648 50.999L59.5661 57.907ZM24.3559 50.9953C24.841 51.596 25.2658 52.2192 25.638 52.8612L18.9832 59.5026C18.5621 58.8832 18.0094 58.3576 17.3627 57.9747L24.3559 50.9953ZM10.1851 39.5523C10.2527 39.1919 10.2866 38.8202 10.2866 38.4411C10.2866 38.062 10.2527 37.6902 10.1851 37.3299H18.1407C18.1783 38.0807 18.261 38.8203 18.3813 39.5524L10.1851 39.5523ZM17.6444 19.1883C18.2949 18.8092 18.8551 18.2911 19.2762 17.6716L23.7691 22.1581C23.254 22.6949 22.769 23.2618 22.3141 23.8513L17.6444 19.1883ZM30.4649 39.139H33.2283V42.9872H30.4649V39.139ZM26.3141 34.0257L37.3867 29.4866V42.9873H35.458V38.0278C35.458 37.4159 34.9617 36.9166 34.3451 36.9166H29.3522C28.7393 36.9166 28.2393 37.4159 28.2393 38.0278V42.9873H26.3143L26.3141 34.0257ZM34.4691 4.02464C34.4691 1.80208 36.2775 0 38.4996 0C40.7216 0 42.53 1.80583 42.53 4.02464C42.53 6.24346 40.7216 8.04554 38.4996 8.04554C36.2738 8.04178 34.4691 6.23971 34.4691 4.02464ZM77 38.441C77 40.6598 75.1953 42.4656 72.9733 42.4656C70.7513 42.4656 68.9428 40.6598 68.9428 38.441C68.9428 36.2222 70.7513 34.4201 72.9733 34.4201C75.1953 34.4201 77 36.2222 77 38.441ZM8.05717 38.441C8.05717 40.6598 6.24873 42.4656 4.03046 42.4656C1.80844 42.4694 0 40.6598 0 38.441C0 36.2222 1.80844 34.4201 4.03046 34.4201C6.24873 34.4201 8.05717 36.2222 8.05717 38.441ZM12.2944 14.8304C12.2944 13.2761 13.5614 12.0109 15.118 12.0109C16.6708 12.0109 17.9378 13.2761 17.9378 14.8304C17.9378 16.3809 16.6745 17.6462 15.118 17.6462C13.5614 17.6462 12.2944 16.3847 12.2944 14.8304ZM59.1969 14.8304C59.1969 13.2761 60.4602 12.0109 62.0168 12.0109C63.5733 12.0109 64.8404 13.2761 64.8404 14.8304C64.8404 16.3809 63.5733 17.6462 62.0168 17.6462C60.4602 17.6462 59.1969 16.3847 59.1969 14.8304ZM64.8366 62.3111C64.8366 63.8654 63.5696 65.1306 62.013 65.1306C60.4602 65.1306 59.1932 63.8654 59.1932 62.3111C59.1932 60.7605 60.4565 59.4991 62.013 59.4991C63.5696 59.4991 64.8366 60.7605 64.8366 62.3111ZM17.6106 62.3111C17.6106 63.8654 16.3436 65.1306 14.7871 65.1306C13.2343 65.1306 11.971 63.8654 11.971 62.3111C11.971 60.7605 13.2343 59.4991 14.7871 59.4991C16.3436 59.4991 17.6106 60.7605 17.6106 62.3111Z" fill="#C6A95F"/>
</svg>
