<svg width="66" height="69" viewBox="0 0 66 69" fill="none" xmlns="http://www.w3.org/2000/svg">
<path d="M60.2152 20.2042C59.7572 19.4424 60.927 18.7552 61.385 19.517C69.0663 32.3947 67.0088 48.7999 56.3328 59.4019C43.4462 72.1994 22.5565 72.1994 9.67128 59.4019C-1.00612 48.8041 -3.06786 32.3905 4.61334 19.517C4.80619 19.1974 5.22449 19.0904 5.54637 19.2819C5.86825 19.4692 5.97602 19.8846 5.78743 20.2042C-1.5804 32.5538 0.401937 48.2859 10.6313 58.4444C22.9875 70.7151 43.0165 70.7151 55.3686 58.4444C65.5965 48.2887 67.5873 32.5257 60.2152 20.2042ZM20.024 2.35714L21.571 3.8343L23.6894 3.51042C24.2354 3.42312 24.6381 3.99343 24.4055 4.46798L23.4697 6.38731L24.4381 8.28692C24.6877 8.77415 24.2779 9.33319 23.7391 9.26137L21.6121 8.96566L20.0892 10.471C19.6992 10.8582 19.0356 10.6386 18.9435 10.1077H18.9392L18.562 8.00811L16.6563 7.03788C16.1656 6.78582 16.1699 6.09582 16.6477 5.84376L18.5408 4.83833L18.8825 2.73453C18.9718 2.19379 19.6383 1.98961 20.024 2.35714ZM33.6068 0.36599L34.5994 2.24589L36.7136 2.60497C37.2723 2.6965 37.4694 3.36679 37.0667 3.75826L35.5877 5.26359L35.8968 7.37584C35.9777 7.90249 35.4218 8.34184 34.8915 8.06303L32.9985 7.13364L31.0771 8.07992C30.5822 8.32354 30.0236 7.90813 30.1044 7.37725H30.1001L30.4135 5.265L28.9161 3.73855C28.5304 3.3513 28.7559 2.69228 29.2905 2.60497L31.4047 2.24589L32.4015 0.361766C32.6582 -0.129684 33.3572 -0.112786 33.6068 0.36599ZM44.4302 3.8343L45.9773 2.35714C46.363 1.98961 47.0308 2.19379 47.1187 2.73593L47.4605 4.83973L49.3535 5.84516C49.8313 6.09723 49.8356 6.78723 49.345 7.03929L47.4364 8.00951L47.062 10.1091H47.0578C46.9656 10.64 46.302 10.8596 45.912 10.4724L44.3891 8.96707L42.2622 9.26278C41.7233 9.3346 41.3135 8.77556 41.5631 8.28833L42.5316 6.38872L41.5957 4.46939C41.3632 3.99483 41.7645 3.42312 42.3118 3.51183L44.4302 3.8343ZM7.77686 8.5249L9.71807 9.4388L11.6238 8.46154C12.1017 8.21792 12.6973 8.59672 12.6051 9.1797L12.3314 11.2638L13.8586 12.7649C14.2443 13.1437 14.0514 13.8112 13.4885 13.9111L11.3941 14.2984L10.4299 16.2022C10.1888 16.6768 9.48552 16.7176 9.21185 16.1938L8.20367 14.3491L6.08095 14.0252C5.53078 13.9407 5.28972 13.2746 5.73496 12.848L7.16571 11.3469L6.81546 9.24307C6.72755 8.69952 7.299 8.29678 7.77686 8.5249ZM56.2846 9.4388L58.2258 8.5249C58.7036 8.29678 59.2751 8.70092 59.1858 9.24307L58.8355 11.3469L60.2663 12.848C60.7129 13.2746 60.4719 13.9421 59.9203 14.0252L57.7976 14.3491L56.788 16.1938C56.5143 16.7162 55.811 16.6768 55.5699 16.2022L54.6057 14.2984L52.5113 13.9111C51.9484 13.8112 51.7555 13.1451 52.1412 12.7649L53.6684 11.2638L53.3905 9.1797C53.3026 8.59672 53.8924 8.21792 54.3717 8.46154L56.2846 9.4388ZM44.4742 46.3539C44.7238 46.0751 45.1534 46.0511 45.4342 46.2975C45.7149 46.5454 45.739 46.9721 45.4909 47.2509C38.8391 54.679 27.1621 54.679 20.5103 47.2509C20.2608 46.9721 20.2849 46.544 20.567 46.2975C20.8478 46.0497 21.2789 46.0737 21.527 46.3539C27.6456 53.1793 38.3655 53.1793 44.4742 46.3539ZM21.527 26.1115C21.2775 26.3903 20.8478 26.4142 20.567 26.1678C20.2863 25.92 20.2622 25.4933 20.5103 25.2145C27.1621 17.7864 38.8391 17.7864 45.4909 25.2145C45.7405 25.4933 45.7164 25.9214 45.4342 26.1678C45.152 26.4142 44.7224 26.3917 44.4742 26.1115C38.357 19.2819 27.6371 19.2861 21.527 26.1115ZM57.8429 28.8419H8.15829V43.6192H57.8429V28.8419ZM54.013 44.9725H11.9897C15.5063 53.3074 23.7391 58.8471 32.9999 58.8471C42.2636 58.8471 50.4964 53.3074 54.013 44.9725ZM11.9897 27.4887H54.013C50.4964 19.158 42.2636 13.614 32.9985 13.614C23.7377 13.614 15.5063 19.158 11.9897 27.4887Z" fill="#C6A95F"/>
</svg>
