<svg width="95" height="93" viewBox="0 0 95 93" fill="none" xmlns="http://www.w3.org/2000/svg">
<path d="M69.9057 44.9192C69.9057 32.5223 59.8537 22.434 47.5011 22.434C35.1485 22.434 25.0966 32.5221 25.0966 44.9192C25.0966 50.6221 27.2258 56.0595 31.0944 60.2311C31.7624 60.9527 32.3747 61.7022 32.9221 62.4796C32.9638 62.5402 33.0056 62.6007 33.0473 62.6612C35.2924 65.9014 36.4892 69.5791 36.6145 73.6432H58.3742C58.5365 68.5269 60.3966 64.0205 63.9034 60.2452C67.7767 56.0647 69.9057 50.6262 69.9057 44.9192ZM31.0887 56.0596C30.3326 56.0596 29.7157 55.4404 29.7157 54.6768V41.2694C29.7157 40.7107 30.0544 40.2033 30.5692 39.9938L46.9805 33.2295C47.4026 33.0526 47.8896 33.1039 48.27 33.3599C48.6503 33.6159 48.8776 34.0442 48.8776 34.5051V39.207L52.6443 37.6568V31.4651C52.6443 30.7017 53.2566 30.0872 54.0173 30.0872H57.8905C58.6513 30.0872 59.2635 30.7017 59.2635 31.4651V34.9287L63.392 33.2248C63.8141 33.0479 64.3011 33.0991 64.6815 33.3551C65.0618 33.6112 65.2891 34.0395 65.2891 34.5004V54.6771C65.2891 55.4406 64.6768 56.0598 63.9161 56.0598L31.0887 56.0596ZM56.5131 36.0651L55.3905 36.526V32.8437H56.5131V36.0651ZM58.3685 38.2811L54.6205 39.8221L54.4443 39.8966C54.4396 39.9012 54.4304 39.9012 54.4257 39.9012L48.8778 42.1871V53.2948H62.5436L62.5389 36.5634L58.4569 38.2441L58.3685 38.2811ZM53.0387 48.5509C53.0387 49.3144 52.4264 49.9288 51.6657 49.9288C50.905 49.9288 50.2927 49.3143 50.2927 48.5509V45.7624C50.2927 45.0035 50.905 44.3844 51.6657 44.3844C52.4264 44.3844 53.0387 45.0036 53.0387 45.7624V48.5509ZM57.0789 48.5509C57.0789 49.3144 56.4666 49.9288 55.7059 49.9288C54.9452 49.9288 54.3329 49.3143 54.3329 48.5509V45.7624C54.3329 45.0035 54.9452 44.3844 55.7059 44.3844C56.4666 44.3844 57.0789 45.0036 57.0789 45.7624V48.5509ZM59.7461 44.3843C60.5069 44.3843 61.1191 45.0035 61.1191 45.7623V48.5508C61.1191 49.3142 60.5068 49.9287 59.7461 49.9287C58.9855 49.9287 58.3732 49.3142 58.3732 48.5508V45.7623C58.3732 45.0034 58.9855 44.3843 59.7461 44.3843ZM52.417 90.947C52.6629 90.947 52.9087 90.9377 53.1546 90.9144C52.8067 92.1201 51.698 93 50.3946 93H44.6148C43.302 93 42.1934 92.1155 41.8455 90.9144C42.0867 90.9377 42.3326 90.947 42.5831 90.947H52.417ZM36.6411 76.399H58.3593V80.8356C58.234 80.7984 58.0995 80.7751 57.9603 80.7751H53.8087C53.0526 80.7751 52.4357 81.3896 52.4357 82.153C52.4357 82.9164 53.0527 83.5309 53.8087 83.5309H57.9603C58.0485 83.5309 58.1366 83.5216 58.2201 83.5077C57.7701 85.57 56.2534 87.232 54.2772 87.8837C54.2355 87.8977 54.1937 87.9117 54.1566 87.9256C53.6046 88.0932 53.0248 88.1863 52.4172 88.1863H42.5785C41.9709 88.1863 41.3818 88.0932 40.8297 87.921C40.8251 87.921 40.8158 87.9163 40.8158 87.9163C40.788 87.9024 40.7555 87.8931 40.7277 87.8884C38.7609 87.2413 37.2486 85.584 36.7894 83.5357L47.5001 83.531C48.2608 83.531 48.8731 82.9165 48.8731 82.1531C48.8731 81.3897 48.2608 80.7752 47.5001 80.7752H36.641L36.6411 76.399ZM47.5002 12.732C47.9687 12.732 48.4279 12.6901 48.8732 12.6063V19.7103C48.4186 19.6871 47.9593 19.6731 47.5002 19.6731C47.041 19.6731 46.5817 19.6871 46.1272 19.7103V12.6063C46.5725 12.6901 47.0317 12.732 47.5002 12.732ZM67.4644 29.5801C66.9031 28.8492 66.3047 28.1463 65.6693 27.4805L71.3099 21.8196C71.8201 22.5971 72.4974 23.2534 73.2906 23.733L67.4644 29.5801ZM82.4293 46.2888C82.3458 46.7357 82.304 47.1966 82.304 47.6667C82.304 48.1368 82.3458 48.5978 82.4293 49.0446H72.317C72.4654 48.1368 72.5675 47.215 72.6139 46.2887L82.4293 46.2888ZM73.4906 71.8047C72.6788 72.2609 71.9784 72.8894 71.4403 73.6482L63.369 65.5479C63.8282 64.7518 64.3524 63.9837 64.9553 63.2388L73.4906 71.8047ZM30.0495 63.2342C30.6479 63.979 31.1721 64.7518 31.6313 65.5479L23.4208 73.7833C22.9013 73.0151 22.2194 72.3634 21.4215 71.8886L30.0495 63.2342ZM12.566 49.0449C12.6495 48.598 12.6912 48.1371 12.6912 47.667C12.6912 47.1968 12.6495 46.7359 12.566 46.289H22.3814C22.4278 47.2201 22.5298 48.1372 22.6783 49.045L12.566 49.0449ZM21.7691 23.7936C22.5716 23.3234 23.2627 22.6809 23.7823 21.9128L29.3255 27.476C28.69 28.1417 28.0916 28.8447 27.5304 29.5756L21.7691 23.7936ZM37.5866 48.5324H40.996V53.3042H37.5866V48.5324ZM32.4655 42.1918L46.1265 36.5634V53.3043H43.7469V47.1545C43.7469 46.3957 43.1346 45.7766 42.3739 45.7766H36.2137C35.4576 45.7766 34.8407 46.3957 34.8407 47.1545V53.3043H32.4657L32.4655 42.1918ZM42.5268 4.99056C42.5268 2.23458 44.758 0 47.4995 0C50.2409 0 52.4721 2.23923 52.4721 4.99056C52.4721 7.74189 50.2409 9.97647 47.4995 9.97647C44.7534 9.97181 42.5268 7.73724 42.5268 4.99056ZM95 47.6668C95 50.4182 92.7734 52.6574 90.032 52.6574C87.2905 52.6574 85.0593 50.4182 85.0593 47.6668C85.0593 44.9155 87.2905 42.6809 90.032 42.6809C92.7734 42.6809 95 44.9155 95 47.6668ZM9.94067 47.6668C9.94067 50.4182 7.70948 52.6574 4.97265 52.6574C2.23119 52.662 0 50.4182 0 47.6668C0 44.9155 2.23119 42.6809 4.97265 42.6809C7.70948 42.6809 9.94067 44.9155 9.94067 47.6668ZM15.1684 18.3897C15.1684 16.4623 16.7316 14.8935 18.652 14.8935C20.5678 14.8935 22.1311 16.4623 22.1311 18.3897C22.1311 20.3124 20.5725 21.8812 18.652 21.8812C16.7316 21.8812 15.1684 20.317 15.1684 18.3897ZM73.0352 18.3897C73.0352 16.4623 74.5938 14.8935 76.5142 14.8935C78.4346 14.8935 79.9979 16.4623 79.9979 18.3897C79.9979 20.3124 78.4346 21.8812 76.5142 21.8812C74.5938 21.8812 73.0352 20.317 73.0352 18.3897ZM79.9932 77.2658C79.9932 79.1931 78.43 80.7619 76.5096 80.7619C74.5938 80.7619 73.0306 79.1931 73.0306 77.2658C73.0306 75.3431 74.5892 73.7789 76.5096 73.7789C78.43 73.7789 79.9932 75.3431 79.9932 77.2658ZM21.7274 77.2658C21.7274 79.1931 20.1642 80.7619 18.2438 80.7619C16.328 80.7619 14.7694 79.1931 14.7694 77.2658C14.7694 75.3431 16.328 73.7789 18.2438 73.7789C20.1642 73.7789 21.7274 75.3431 21.7274 77.2658Z" fill="#C6A95F"/>
</svg>
