<svg width="83" height="78" viewBox="0 0 83 78" fill="none" xmlns="http://www.w3.org/2000/svg">
<path fill-rule="evenodd" clip-rule="evenodd" d="M61.7571 32.8058C63.2103 31.5026 63.7199 29.3506 62.8705 27.4739C62.8705 27.4739 61.8836 25.3061 59.9115 20.9716C59.0538 19.0985 57.103 18.0835 55.1735 18.3381L61.7571 32.8058ZM34.0415 54.2981L36.4188 55.2184L35.2371 59.3298L37.5904 62.8408C37.4529 62.9625 37.319 63.0908 37.1888 63.2237L31.1822 69.3876L21.2528 59.5789C21.4541 59.4981 21.6544 59.4116 21.852 59.3215L30.7455 55.2174C31.8396 54.8875 32.9382 54.5798 34.0415 54.2981ZM5.41192 53.8696L5.18296 53.9756C3.30232 54.8419 1.14287 54.1773 0.320265 52.4799C-0.502339 50.7816 0.31288 48.6706 2.15658 47.7289L2.53696 47.5532L5.41192 53.8696ZM53.7185 49.3008C45.8331 49.0721 37.8545 50.1867 29.7808 52.6472L20.7183 56.8293C15.7134 59.1225 9.98009 57.2904 7.88712 52.7281L5.01216 46.4117C2.9478 41.8365 5.31221 36.2693 10.306 33.9492L18.136 30.3378L24.8867 45.1699C25.1978 45.8559 26.002 46.158 26.6833 45.8447C27.3646 45.5324 27.6647 44.7218 27.3536 44.0367L20.5198 29.0197C27.1458 24.634 32.8108 19.5271 37.5166 13.6978L53.7185 49.3008ZM45.8442 65.0782C47.7082 66.9187 47.7368 69.9602 45.9088 71.8361L39.9031 78L33.1266 71.3072L39.1322 65.1433C40.9612 63.2665 43.9811 63.2377 45.8442 65.0782ZM58.3559 12.6929C57.6164 12.5702 57.116 11.8666 57.2397 11.122C57.3634 10.3756 58.0632 9.87266 58.8027 9.99536C61.4441 10.4471 63.8879 11.5421 65.9467 13.1336C68.0083 14.7259 69.6886 16.8211 70.8048 19.2724C71.9201 21.7236 72.3974 24.3701 72.2506 26.9775C72.1029 29.5951 71.3311 32.1718 69.949 34.4762C69.5621 35.1232 68.7257 35.3323 68.0831 34.9429C67.4405 34.5515 67.2328 33.7093 67.6206 33.0633C68.7728 31.1419 69.4163 28.9983 69.5381 26.8287C69.6618 24.6517 69.2648 22.444 68.337 20.4083C67.4119 18.3744 66.0132 16.6333 64.2978 15.3078C62.5806 13.9804 60.5486 13.0685 58.3559 12.6929ZM61.8937 2.68624C61.1717 2.48174 60.7508 1.72601 60.9529 0.999094C61.1561 0.27218 61.9057 -0.152628 62.6277 0.0509453C66.5755 1.17292 70.1798 3.1408 73.2237 5.76308C76.2648 8.3863 78.7493 11.6695 80.4591 15.4268C82.1671 19.1785 83.0137 23.2165 82.9998 27.247C82.9869 31.2897 82.1145 35.324 80.3843 39.0599C80.0676 39.7449 79.258 40.0433 78.5766 39.7245C77.8962 39.4038 77.6008 38.5886 77.9183 37.9035C79.486 34.518 80.2772 30.8797 80.2892 27.247C80.3012 23.6004 79.5368 19.9528 77.9931 16.5636C76.4522 13.1754 74.2088 10.2129 71.4594 7.84158C68.7109 5.47306 65.4574 3.69667 61.8937 2.68624ZM47.4635 7.97915L64.5157 45.4469C65.511 47.635 64.548 50.2443 62.3756 51.2445C60.2042 52.2466 57.6136 51.2771 56.6174 49.0917L39.5652 11.6221C38.57 9.43577 39.5329 6.82743 41.7053 5.82536C43.8777 4.8233 46.4692 5.7919 47.4635 7.97915Z" fill="#C6A95F"/>
</svg>
