<svg width="85" height="77" viewBox="0 0 85 77" fill="none" xmlns="http://www.w3.org/2000/svg">
<path d="M26.4685 38.6955L15.2804 16.1943H11.9768L0.798133 38.6955H26.4685ZM13.6336 17.4696L24.1478 38.6343L3.10917 38.6309L13.6336 17.4696ZM83.6782 38.6446L72.9932 16.1934H69.7501L59.0513 38.6446H83.6782ZM71.3662 17.5506L81.3978 38.6352L61.3354 38.6318L71.3662 17.5506ZM84.9996 42.1525C85.0197 42.9469 84.312 43.637 83.5373 43.6201H59.1949C57.9003 43.6773 57.2798 41.9001 58.1619 41.1159C58.447 40.8398 58.8059 40.685 59.1949 40.685H83.5373C84.3456 40.685 84.9996 41.3447 84.9996 42.1525ZM60.731 45.6733H82.004C81.5244 59.979 61.1972 59.9721 60.731 45.6733ZM49.4587 14.1443C49.556 13.4475 49.556 12.707 49.4587 12.0102H83.9358C84.5093 12.0102 84.999 12.5016 84.999 13.0772C84.9319 13.747 84.5999 14.077 83.9358 14.1443H49.4587ZM0.000255736 13.0739C-0.0131596 12.5218 0.503332 11.9934 1.05339 12.0068H34.0889C34.0386 12.3569 34.0185 12.7137 34.0185 13.0739C34.0185 13.434 34.0386 13.7908 34.0889 14.1409L1.05339 14.1443C0.469821 14.1443 0.000255736 13.6596 0.000255736 13.0739ZM39.6323 5.60142V2.12435C39.6859 -0.723262 43.8648 -0.69293 43.9185 2.12435V5.60478C42.5132 5.2076 41.0342 5.2076 39.6323 5.60142ZM47.1985 11.3101C44.6798 4.20118 34.2056 7.59407 36.3486 14.8308C38.864 21.9768 49.3484 18.5603 47.1985 11.3101ZM38.824 12.091C40.2024 8.23693 45.9341 10.1185 44.7267 14.0635C43.3583 17.9276 37.6065 16.0326 38.824 12.091ZM57.4577 77H26.0896C26.5893 73.3244 29.7419 70.4835 33.5451 70.4835H49.9989C53.8055 70.4835 56.9547 73.3278 57.4577 77ZM39.6319 20.5562C41.0405 20.9466 42.5095 20.9332 43.9181 20.5562L43.9148 68.4305H39.6286L39.6319 20.5562ZM25.7942 43.6235H1.46207C0.164158 43.6773 -0.473079 41.9068 0.429116 41.1193C0.704127 40.8433 1.07305 40.6884 1.46207 40.6884H25.7942C26.6025 40.6884 27.2665 41.3448 27.2665 42.156C27.2833 42.9537 26.579 43.6404 25.7942 43.6235ZM2.99807 45.6734H24.2582C23.7853 59.9851 3.46428 59.9653 2.99807 45.6734ZM40.7051 13.0741C40.7219 11.6906 42.8147 11.6671 42.8415 13.0741C42.8281 14.4609 40.7287 14.4844 40.7051 13.0741Z" fill="#C6A95F"/>
</svg>
