<svg width="75" height="78" viewBox="0 0 75 78" fill="none" xmlns="http://www.w3.org/2000/svg">
<path fill-rule="evenodd" clip-rule="evenodd" d="M72.9912 34.4794L68.0137 30.3518V36.8154L72.9912 34.4794ZM37.4998 69.1432C42.7749 63.809 49.1931 60.1987 50.701 52.562C52.2019 44.9658 43.0492 39.7325 37.4998 46.8917C31.9507 39.7358 22.7977 44.9691 24.2987 52.562C25.8063 60.1987 32.2246 63.8083 37.4998 69.1432ZM0 36.1461V72.5747C0 73.6369 0.307538 74.6317 0.839057 75.4687L22.1666 53.8125C21.5682 51.3354 21.6584 49.0497 22.6747 46.7809L0 36.1461ZM2.4938 77.1429L22.9792 56.3403C25.5064 62.5787 31.0422 65.9638 35.8355 70.8099L37.5002 72.4938L39.1649 70.8099C43.9586 65.9631 49.4941 62.5783 52.0212 56.3403L72.5066 77.1429C71.6675 77.6841 70.6714 78 69.605 78H5.39229C4.32592 78 3.32972 77.6841 2.49072 77.1429H2.4938ZM74.1611 75.4724L52.8336 53.8162C53.432 51.3391 53.3417 49.05 52.3255 46.7846L75 36.1501V72.5787C75 73.6409 74.6926 74.6354 74.1611 75.4724ZM9.33996 37.9175V2.46377C9.33996 1.10922 10.4398 0 11.7903 0H63.2135C64.5607 0 65.6638 1.10587 65.6638 2.46377V37.9175L51.1021 44.7474C50.2363 43.645 49.1164 42.7206 47.7726 42.0652C44.1589 40.3039 40.3716 41.124 37.5034 43.5105C34.6352 41.1241 30.8444 40.3039 27.2341 42.0652C25.8903 42.7206 24.7704 43.6449 23.9047 44.7474L9.34287 37.9175H9.33996ZM47.1042 38.2368L37.4999 32.5093L27.8956 38.2368L30.346 27.2831L21.9587 19.8716L33.0769 18.8297L37.4962 8.52134L41.9155 18.8331L53.0336 19.8751L44.6464 27.2865L47.0967 38.2402L47.1042 38.2368ZM6.98659 36.815L2.00909 34.479L6.98659 30.3515V36.815Z" fill="#C6A95F"/>
</svg>
