<svg width="66" height="89" viewBox="0 0 66 89" fill="none" xmlns="http://www.w3.org/2000/svg">
<path d="M41.861 68.7433C41.861 69.175 41.6904 69.59 41.3868 69.8961C41.0831 70.2021 40.6713 70.374 40.2429 70.374H25.8212C24.9768 70.3069 24.3279 69.5942 24.3279 68.7391C24.3279 67.8839 24.9769 67.1713 25.8212 67.1H40.2429C40.6755 67.1 41.0873 67.2719 41.3909 67.5821C41.6946 67.8923 41.8651 68.3073 41.861 68.7433ZM40.2429 72.6126H25.8212C24.9768 72.6797 24.328 73.3923 24.328 74.2475C24.328 75.1026 24.9769 75.8153 25.8212 75.8865H40.2429C41.0873 75.8153 41.7403 75.1026 41.7403 74.2475C41.7403 73.3923 41.0873 72.6797 40.2429 72.6126ZM29.6607 18.1821C29.773 19.4062 30.6798 20.4039 31.8777 20.6303V15.7213C30.6797 15.9519 29.7729 16.9538 29.6607 18.1821ZM34.0991 64.8653H40.1889C41.0333 64.7941 41.6822 64.0814 41.6822 63.2263C41.6822 62.3711 41.0333 61.6585 40.1889 61.5872H34.0991V64.8653ZM25.7922 64.8653H31.8777V61.5871H25.8129C24.9643 61.6584 24.3155 62.371 24.3155 63.2262C24.3155 64.0813 24.9644 64.794 25.8129 64.8652L25.7922 64.8653ZM13.6749 38.8161C13.8538 41.2307 14.7065 47.2799 18.9661 50.9688C21.8945 53.4379 25.8212 54.4566 30.7713 53.9745L17.4603 44.0938C17.2232 43.9177 17.0652 43.6536 17.0194 43.3602C16.9778 43.0667 17.0527 42.7691 17.2274 42.5301C17.4021 42.2912 17.6642 42.1319 17.9553 42.0858C18.2465 42.0438 18.5419 42.1193 18.779 42.2954L31.878 51.9874V51.1364C31.7616 48.2565 30.6426 45.5106 28.7166 43.3768C25.6551 40.1238 20.5966 38.5813 13.6749 38.8161ZM65.9999 33.3161C66.0165 39.3988 64.3693 45.3721 61.237 50.5706C58.1089 55.773 53.6122 60.0029 48.2508 62.7952V73.6525C48.2508 82.1289 41.4331 89 33.022 89C24.6108 89 17.7931 82.1292 17.7931 73.6525V62.7737C10.8298 59.1308 5.38088 53.1026 2.42691 45.7789C-0.526428 38.4511 -0.792649 30.3058 1.67401 22.8021C4.14069 15.2941 9.18225 8.91739 15.8923 4.81785C22.6019 0.722175 30.5386 -0.837258 38.2835 0.428769C46.0288 1.6948 53.0715 5.70247 58.1499 11.7304C63.2288 17.7545 66.0117 25.4091 65.9992 33.3152L65.9999 33.3161ZM54.5652 37.7891C54.5652 37.4914 54.4487 37.2064 54.2407 36.9968C54.0328 36.7872 53.7499 36.6698 53.4546 36.6698C45.2558 36.2003 39.2448 37.9651 35.5635 41.9224V41.9266C35.0186 42.5177 34.5278 43.1591 34.0993 43.8382V37.2315C42.1691 36.6278 48.3176 29.7025 48.0216 21.5534C47.7221 13.4039 41.0791 6.95609 32.9887 6.95609C24.8982 6.95609 18.255 13.4035 17.9558 21.5534C17.6604 29.7029 23.8084 36.6284 31.878 37.2315V43.9388C31.4287 43.2178 30.9129 42.5387 30.3389 41.9141C26.6576 37.9567 20.6343 36.1792 12.4479 36.6614H12.4437C11.853 36.6908 11.3913 37.1812 11.3913 37.7766C11.3913 38.1664 11.304 47.3219 17.4936 52.6883V52.6925C20.551 55.233 24.4319 56.5493 28.3958 56.39C29.5606 56.3648 30.7253 56.2642 31.8775 56.0881V59.3538H25.8127C24.2528 59.3496 22.8426 60.3012 22.2519 61.7559C21.6612 63.2106 22.0023 64.8832 23.1171 65.9815C22.385 66.711 21.9691 67.7045 21.9691 68.7399C21.9691 69.7753 22.385 70.7689 23.1171 71.4941C22.0023 72.5966 21.6612 74.2651 22.2519 75.7239C22.8426 77.1786 24.2527 78.126 25.8127 78.1218H40.2343H40.2302C41.79 78.126 43.2002 77.1786 43.7909 75.7239C44.3816 74.2651 44.0405 72.5966 42.9257 71.4941C43.6578 70.7689 44.0737 69.7753 44.0737 68.7399C44.0737 67.7045 43.6578 66.711 42.9257 65.9815C44.0405 64.8832 44.3816 63.2106 43.7909 61.7559C43.2002 60.3012 41.7901 59.3496 40.2302 59.3538H34.0988V56.0881C35.2385 56.2516 36.3866 56.3355 37.5347 56.348C41.5239 56.5241 45.4382 55.2036 48.5158 52.6464C54.6513 47.2805 54.564 38.1253 54.564 37.7894L54.5652 37.7891ZM32.9886 35.0516C27.7973 35.0474 23.1177 31.8908 21.1376 27.0531C19.1575 22.2154 20.2599 16.6525 23.937 12.9591C27.6142 9.26166 33.1341 8.16326 37.9306 10.1755C42.7226 12.1835 45.8424 16.9079 45.834 22.1392C45.8216 29.2783 40.0728 35.0549 32.9895 35.0506L32.9886 35.0516ZM38.5334 25.6488C38.3962 23.188 36.5243 21.1884 34.0992 20.8991V15.7219C34.9977 15.9398 35.7547 16.5561 36.1499 17.3987C36.3829 17.9772 37.0401 18.2581 37.6141 18.0233C38.1882 17.7886 38.4669 17.1304 38.2339 16.5477C37.4727 14.8709 35.9128 13.6971 34.0992 13.4414V12.5485C34.0992 11.9281 33.6001 11.4292 32.9885 11.4292C32.377 11.4292 31.8779 11.928 31.8779 12.5485V13.433V13.4288C29.4528 13.7181 27.5809 15.7219 27.4436 18.1827C27.585 20.6393 29.4527 22.6388 31.8779 22.9323V28.1096C30.9877 27.8958 30.2389 27.2921 29.8396 26.4663C29.5942 25.8962 28.9411 25.6321 28.3795 25.8794C27.818 26.1226 27.5559 26.7807 27.7972 27.3467C28.5709 28.9815 30.1017 30.1218 31.8778 30.3901V31.2746V31.2704C31.8778 31.8909 32.377 32.3897 32.9885 32.3897C33.6 32.3897 34.0991 31.8909 34.0991 31.2704V30.3985C36.5242 30.105 38.3919 28.1054 38.5334 25.6488ZM34.095 23.188V28.0969H34.0992C35.2972 27.8747 36.2082 26.8728 36.3163 25.6488C36.2081 24.4205 35.3013 23.4144 34.0992 23.188H34.095ZM37.2356 43.3766C35.3886 45.4181 34.2822 48.0256 34.0992 50.7798V51.9871L47.144 42.2614C47.3811 42.0854 47.6764 42.0099 47.9676 42.0518C48.2588 42.0979 48.5208 42.2572 48.6955 42.4962C48.8702 42.7351 48.9451 43.0328 48.8993 43.3262C48.8577 43.6197 48.6997 43.8838 48.4626 44.0598L35.2059 53.9742C40.1517 54.4563 44.0785 53.4585 47.0197 50.9684C51.2792 47.2794 52.1319 41.2302 52.3108 38.8158C45.3559 38.581 40.2886 40.1361 37.2356 43.3766Z" fill="#C6A95F"/>
</svg>
