<svg width="68" height="68" viewBox="0 0 68 68" fill="none" xmlns="http://www.w3.org/2000/svg">
<path d="M34 68C52.7478 68 68 52.7478 68 34C68 15.2522 52.7478 0 34 0C15.2522 0 0 15.2522 0 34C0 52.7478 15.2522 68 34 68ZM34 13.887C39.8786 13.887 44.7391 18.6605 44.7391 24.6261C44.7391 30.5916 39.8791 35.2783 34 35.2783C28.1209 35.2783 23.2609 30.5047 23.2609 24.5392C23.2609 18.5736 28.1209 13.887 34 13.887ZM24.4565 36.3C27.013 38.517 30.3351 39.8785 34 39.8785C37.6649 39.8785 40.9871 38.5136 43.5435 36.3C48.8263 39.539 52.3217 45.3347 52.3217 51.8956C33.6608 56.9221 15.6783 51.8956 15.6783 51.8956C15.6783 45.3346 19.1735 39.5391 24.4565 36.3Z" fill="#C6A95F"/>
</svg>
