<svg width="80" height="80" viewBox="0 0 80 80" fill="none" xmlns="http://www.w3.org/2000/svg">
<path d="M10.9801 12.4692L37.4452 38.9345H0C0.265622 28.6964 4.39063 19.4113 10.9801 12.4692Z" fill="#C6A95F"/>
<path d="M38.9342 37.4453L12.469 10.9801C19.4104 4.39024 28.6961 0.265002 38.9342 0V37.4453Z" fill="#C6A95F"/>
<path d="M39.9885 41.0392C40.1253 41.0392 40.262 41.0119 40.3909 40.9572C40.6487 40.8517 40.8518 40.6447 40.9612 40.3869C41.0159 40.2579 41.0432 40.1212 41.0432 39.9845L41.0393 11.5153C56.2664 12.0739 68.4845 24.6244 68.4845 39.9885C68.4845 55.7036 55.6994 68.4848 39.9883 68.4848C24.6292 68.4848 12.0741 56.2657 11.5151 41.0395L39.9885 41.0392Z" fill="#C6A95F"/>
<path d="M39.9883 80.0006C18.2771 80.0006 0.562004 62.6175 0 41.0393H9.41026C9.96885 57.4264 23.4654 70.5906 39.9885 70.5906C56.8636 70.5906 70.5937 56.8604 70.5937 39.9853C70.5937 23.4621 57.4296 9.96502 41.0425 9.40701L41.0386 0.000732422C62.6167 0.563237 79.9998 18.2779 79.9998 39.9891C79.9998 62.0513 62.0507 80.0014 39.9875 80.0014L39.9883 80.0006Z" fill="#C6A95F"/>
</svg>
