<svg width="83" height="83" viewBox="0 0 83 83" fill="none" xmlns="http://www.w3.org/2000/svg">
<path d="M80.0357 14.8214H77.0715C75.4337 14.8214 74.1072 16.1479 74.1072 17.7857C74.1072 19.4235 75.4337 20.75 77.0715 20.75H80.0357C81.6736 20.75 83 19.4235 83 17.7857C83 16.1479 81.6736 14.8214 80.0357 14.8214Z" fill="#C6A95F"/>
<path d="M74.1074 8.89288C74.867 8.89288 75.6229 8.60386 76.2046 8.02583L79.1689 5.06154C80.325 3.90542 80.325 2.02687 79.1689 0.870751C78.0128 -0.285368 76.1342 -0.285368 74.9781 0.870751L72.0138 3.83504C70.8577 4.99116 70.8577 6.86971 72.0138 8.02583C72.5919 8.60386 73.3478 8.89288 74.1074 8.89288Z" fill="#C6A95F"/>
<path d="M76.2046 27.5457C75.0485 26.3896 73.1699 26.3896 72.0138 27.5457C70.8577 28.7018 70.8577 30.5803 72.0138 31.7365L74.9781 34.7008C75.5561 35.2825 76.312 35.5715 77.0716 35.5715C77.8312 35.5715 78.5871 35.2825 79.1688 34.7045C80.3249 33.5483 80.3249 31.6698 79.1688 30.5137L76.2046 27.5457Z" fill="#C6A95F"/>
<path d="M23.7142 20.75C25.352 20.75 26.6785 19.4235 26.6785 17.7857C26.6785 16.1479 25.352 14.8214 23.7142 14.8214H20.7499C19.1121 14.8214 17.7856 16.1479 17.7856 17.7857C17.7856 19.4235 19.1121 20.75 20.7499 20.75H23.7142Z" fill="#C6A95F"/>
<path d="M25.8115 0.867089C24.6554 -0.28903 22.7769 -0.28903 21.6208 0.867089C20.4646 2.02321 20.4646 3.90176 21.6208 5.05788L24.585 8.02216C25.1631 8.6039 25.9189 8.89292 26.6785 8.89292C27.4382 8.89292 28.1941 8.6039 28.7757 8.02587C29.9318 6.86975 29.9318 4.9912 28.7757 3.83508L25.8115 0.867089Z" fill="#C6A95F"/>
<path d="M24.5814 27.5457L21.6171 30.51C20.461 31.6661 20.461 33.5447 21.6171 34.7008C22.1988 35.2825 22.9548 35.5715 23.7143 35.5715C24.4738 35.5715 25.2298 35.2825 25.8115 34.7045L28.7758 31.7402C29.9319 30.5841 29.9319 28.7055 28.7758 27.5494C27.616 26.3896 25.7412 26.3896 24.5814 27.5457Z" fill="#C6A95F"/>
<path d="M8.89286 38.5357C10.527 38.5357 11.8571 39.8659 11.8571 41.5C11.8571 43.1378 13.1836 44.4643 14.8214 44.4643C16.4592 44.4643 17.7857 43.1378 17.7857 41.5C17.7857 37.639 15.2994 34.382 11.8571 33.1518V32.6071C11.8571 30.9693 10.5307 29.6428 8.89286 29.6428C7.25505 29.6428 5.92857 30.9693 5.92857 32.6071V33.1518C2.4863 34.382 0 37.639 0 41.5C0 46.4022 3.99064 50.3928 8.89286 50.3928C10.527 50.3928 11.8571 51.723 11.8571 53.3571C11.8571 54.9912 10.527 56.3214 8.89286 56.3214C7.25875 56.3214 5.92857 54.9912 5.92857 53.3571C5.92857 51.7193 4.60209 50.3928 2.96429 50.3928C1.32648 50.3928 0 51.7193 0 53.3571C0 57.2181 2.4863 60.4751 5.92857 61.7053V62.25C5.92857 63.8878 7.25505 65.2143 8.89286 65.2143C10.5307 65.2143 11.8571 63.8878 11.8571 62.25V61.7053C15.2994 60.4751 17.7857 57.2181 17.7857 53.3571C17.7857 48.4549 13.7951 44.4643 8.89286 44.4643C7.25875 44.4643 5.92857 43.1341 5.92857 41.5C5.92857 39.8659 7.25875 38.5357 8.89286 38.5357Z" fill="#C6A95F"/>
<path d="M47.4285 47.4286H53.3571C56.6252 47.4286 59.2857 44.7681 59.2857 41.5H41.5151C41.5929 44.8348 44.1529 47.4286 47.4285 47.4286Z" fill="#C6A95F"/>
<path d="M50.3929 0.000123482C49.1294 0.000123482 47.851 0.133512 46.5912 0.396598C39.6029 1.85654 34.089 7.58867 32.8739 14.6584C31.6882 21.5614 34.4857 28.3311 40.1734 32.3255C41.0183 32.9184 41.4999 33.741 41.4999 34.5821V38.5357H59.2856V34.7748C59.2856 33.8188 59.8044 32.8999 60.7085 32.2552C65.3847 28.9241 68.1785 23.5143 68.1785 17.7857C68.1785 7.98128 60.1972 0.000123482 50.3929 0.000123482ZM58.9596 20.1943C58.6669 20.5574 58.2371 20.7501 57.7998 20.7501C57.4737 20.7501 57.1477 20.6426 56.8735 20.424L54.0981 18.2007L51.3191 20.424C50.7781 20.8538 50.0074 20.8538 49.4664 20.424L46.6874 18.2007L43.9084 20.424C43.2674 20.9353 42.3374 20.8279 41.826 20.1943C41.3147 19.5532 41.4184 18.6232 42.0557 18.1119L45.761 15.1476C46.302 14.7178 47.0727 14.7178 47.6137 15.1476L50.3927 17.3708L53.1718 15.1476C53.7127 14.7178 54.4834 14.7178 55.0244 15.1476L58.7297 18.1119C59.367 18.6232 59.471 19.5532 58.9596 20.1943Z" fill="#C6A95F"/>
<path d="M59.2857 83H41.5V53.3571C41.5 51.7193 42.8265 50.3928 44.4643 50.3928H56.3214C57.9592 50.3928 59.2857 51.7193 59.2857 53.3571V83Z" fill="#C6A95F"/>
<path d="M38.5357 83.0001H20.75V62.2501C20.75 60.6122 22.0765 59.2858 23.7143 59.2858H35.5714C37.2092 59.2858 38.5357 60.6122 38.5357 62.2501V83.0001Z" fill="#C6A95F"/>
<path d="M17.7857 83H0V71.1429C0 69.5051 1.32648 68.1786 2.96429 68.1786H14.8214C16.4592 68.1786 17.7857 69.5051 17.7857 71.1429V83Z" fill="#C6A95F"/>
</svg>
