<svg width="72" height="72" viewBox="0 0 72 72" fill="none" xmlns="http://www.w3.org/2000/svg">
<path fill-rule="evenodd" clip-rule="evenodd" d="M22.2586 23.0493C22.2617 18.4593 24.5758 14.18 28.4182 11.6486C32.2605 9.11445 37.1225 8.66725 41.3676 10.4561C45.6092 12.2449 48.6718 16.0337 49.5202 20.5434C50.3686 25.0531 48.8933 29.6862 45.5874 32.8822C44.0935 34.2642 43.2296 36.1897 43.1922 38.2176H39.1533L41.8293 28.7392L41.8261 28.7423C41.8355 28.674 41.8355 28.6088 41.8261 28.5436V24.6709C42.9053 24.3076 43.5571 23.2206 43.3731 22.1026C43.1891 20.9846 42.216 20.1678 41.0807 20.1678C39.9424 20.1678 38.9725 20.9845 38.7884 22.1026C38.6013 23.2206 39.2563 24.3075 40.3354 24.6709V28.438L37.6033 38.2176H34.4096L31.6464 28.438V24.6709C32.7255 24.3076 33.3774 23.2206 33.1933 22.1026C33.0093 20.9846 32.0363 20.1678 30.901 20.1678C29.7626 20.1678 28.7927 20.9845 28.6087 22.1026C28.4215 23.2206 29.0765 24.3075 30.1556 24.6709V28.5436C30.1462 28.6088 30.1462 28.674 30.1556 28.7423L32.8316 38.2207L28.8208 38.2176C28.7834 36.1896 27.9195 34.2641 26.4256 32.8822C23.7527 30.3046 22.2495 26.7549 22.2588 23.0501L22.2586 23.0493ZM45.4684 41.3969C45.4622 40.4653 44.7012 39.7137 43.7656 39.7137H28.246C27.3104 39.7137 26.5494 40.4653 26.5432 41.3969C26.5525 42.3286 27.3104 43.0833 28.246 43.0926H43.7656C44.7012 43.0833 45.4591 42.3286 45.4684 41.3969ZM29.3629 44.5771C28.4709 44.6392 27.7785 45.3783 27.7785 46.2665C27.7785 47.1578 28.4709 47.8969 29.3629 47.9559H42.6492C43.5412 47.8969 44.2336 47.1578 44.2336 46.2665C44.2336 45.3783 43.5412 44.6392 42.6492 44.5771H29.3629ZM13.6501 23.7942H17.8979C18.3127 23.7942 18.6495 23.4619 18.6495 23.0489C18.6495 22.6359 18.3127 22.3005 17.8979 22.3005H13.6501C13.2353 22.3005 12.8985 22.6359 12.8985 23.0489C12.8985 23.4619 13.2353 23.7942 13.6501 23.7942ZM20.7391 39.3442L23.7425 36.3535V36.3566C23.8829 36.2169 23.9608 36.0275 23.9608 35.8287C23.9608 35.6299 23.8829 35.4405 23.7425 35.3007C23.44 35.0306 22.9815 35.0306 22.679 35.3007L19.6382 38.2883C19.345 38.5802 19.345 39.0554 19.6382 39.3473C19.9314 39.6392 20.4054 39.6392 20.6986 39.3473L20.7391 39.3442ZM49.4101 35.2977V35.3008C49.1076 35.0306 48.6522 35.0306 48.3497 35.3008C48.2094 35.4405 48.1283 35.63 48.1283 35.8287C48.1283 36.0275 48.2094 36.2169 48.3497 36.3567L51.3531 39.3473H51.35C51.6432 39.6392 52.1203 39.6392 52.4135 39.3473C52.7067 39.0554 52.7067 38.5802 52.4135 38.2883L49.4101 35.2977ZM22.6418 10.7981C22.7821 10.9378 22.9723 11.0155 23.1719 11.0155C23.3715 11.0155 23.5618 10.9378 23.7021 10.7981C23.8456 10.6583 23.9236 10.472 23.9236 10.2732C23.9236 10.0745 23.8456 9.88504 23.7021 9.74839L20.6988 6.75153C20.3962 6.48135 19.9409 6.48135 19.6384 6.75153C19.498 6.89128 19.417 7.08072 19.417 7.27948C19.417 7.47824 19.498 7.66768 19.6384 7.80743L22.6418 10.7981ZM36.0056 5.72668C36.4204 5.72668 36.7572 5.39127 36.7572 4.97823V0.748447C36.7572 0.335406 36.4204 0 36.0056 0C35.5908 0 35.2539 0.335406 35.2539 0.748447V4.99374C35.2633 5.40057 35.597 5.72668 36.0056 5.72668ZM49.3694 10.7981L52.3728 7.80743C52.5131 7.66768 52.5942 7.47824 52.5942 7.27948C52.5942 7.08072 52.5131 6.89128 52.3728 6.75153C52.0702 6.48135 51.6149 6.48135 51.3124 6.75153L48.309 9.76397C48.1656 9.90062 48.0876 10.0901 48.0876 10.2888C48.0876 10.4876 48.1656 10.677 48.309 10.8137C48.4525 10.9503 48.6427 11.0279 48.8423 11.0248C49.0419 11.0217 49.2322 10.9409 49.3694 10.7981ZM54.1599 23.7984H58.4076V23.7953C58.8224 23.7953 59.1593 23.463 59.1593 23.0499C59.1593 22.6369 58.8224 22.3015 58.4076 22.3015H54.1536C53.7388 22.3015 53.402 22.6369 53.402 23.0499C53.402 23.463 53.7388 23.7953 54.1536 23.7953L54.1599 23.7984ZM25.9376 57.7453C25.8534 57.7266 25.7723 57.6925 25.7068 57.6397L18.911 53.7359C17.8568 53.0744 16.6436 52.7142 15.3992 52.6956C14.4761 52.68 13.5966 53.0807 13.004 53.7856C12.7451 54.0993 12.6422 54.5154 12.7233 54.913C12.8044 55.326 13.0695 55.68 13.4406 55.8757L20.8353 60.0807C21.1939 60.2856 21.3156 60.739 21.1097 61.0961C20.907 61.4502 20.4486 61.5744 20.093 61.3694L12.7171 57.1241H12.714C12.0185 56.7297 11.5194 56.0621 11.3354 55.2856C11.1514 54.5092 11.3011 53.6925 11.7502 53.031L6.00851 43.1552C5.43778 42.0496 4.57073 41.1272 3.50102 40.4844C2.65582 39.9844 1.61725 39.9285 0.722148 40.3415C0.425865 40.5061 0.195069 40.7701 0.0765602 41.0868C-0.057549 41.475 -0.0138839 41.8974 0.195076 42.2483L9.96923 59.056C10.3528 59.7361 10.8269 60.3572 11.382 60.9069C11.9372 61.4597 12.561 61.9318 13.2408 62.3168L17.8161 64.9472C18.4492 65.2578 18.9982 65.7174 19.4129 66.2826C19.8714 67.0218 20.0897 67.882 20.0367 68.7485V71.2516C20.0367 71.6615 20.3673 71.9938 20.779 72H31.7883C32.2031 72 32.5399 71.6646 32.5399 71.2516V68.7485C32.5399 68.4224 32.5867 68 32.6366 67.5156C32.9297 64.8354 33.4819 59.7638 25.9376 57.7453ZM71.9333 41.087C71.821 40.7734 71.5996 40.5094 71.3095 40.3417C70.4176 39.9287 69.379 39.9846 68.5307 40.4846C67.4547 41.1243 66.5783 42.0466 66.0013 43.1554L60.2752 53.0312C60.7243 53.6927 60.874 54.5095 60.69 55.2858C60.506 56.0622 60.007 56.7299 59.3114 57.1243L51.9729 61.3696C51.6143 61.5901 51.1464 61.4783 50.9281 61.1243C50.7067 60.7672 50.8158 60.3013 51.1745 60.0808L58.5691 55.8758C58.9216 55.674 59.168 55.3293 59.2459 54.9286C59.327 54.5311 59.2241 54.115 58.9683 53.8013C58.3727 53.0963 57.4931 52.6988 56.5731 52.7112C55.3256 52.7392 54.1093 53.1087 53.0583 53.7764L46.303 57.6398C46.2375 57.6926 46.1564 57.7267 46.0722 57.7454C38.5278 59.764 39.0767 64.8385 39.373 67.5154C39.4198 67.9999 39.4697 68.4223 39.4697 68.7484V71.2514C39.4697 71.6645 39.8066 71.9999 40.2214 71.9999H51.2466C51.6583 71.9937 51.9889 71.6614 51.9889 71.2514V68.7484C51.9234 67.8913 52.1261 67.0372 52.5628 66.2981C52.9807 65.7329 53.5296 65.2732 54.1596 64.9627L58.7349 62.3323C59.4179 61.9472 60.0416 61.4751 60.5968 60.9255C61.1613 60.3727 61.6478 59.7422 62.0408 59.0559L71.7902 42.2482C72.0054 41.9004 72.0581 41.4783 71.9333 41.087ZM41.731 49.4444H30.2786C31.077 51.9226 33.3911 53.6028 36.0047 53.6028C38.6183 53.6028 40.9326 51.9226 41.731 49.4444Z" fill="#C6A95F"/>
</svg>
