<svg width="57" height="57" viewBox="0 0 57 57" fill="none" xmlns="http://www.w3.org/2000/svg">
<path d="M35.625 49.875H30.875V45.125H35.625V49.875ZM30.875 33.25H26.125V45.125H30.875V33.25ZM49.875 28.5H45.125V38H49.875V28.5ZM45.125 23.75H40.375V28.5H45.125V23.75ZM16.625 28.5H11.875V33.25H16.625V28.5ZM11.875 23.75H7.125V28.5H11.875V23.75ZM28.5 11.875H33.25V7.125H28.5V11.875ZM10.6875 10.6875V17.8125H17.8125V10.6875H10.6875ZM21.375 21.375H7.125V7.125H21.375V21.375ZM10.6875 39.1875V46.3125H17.8125V39.1875H10.6875ZM21.375 49.875H7.125V35.625H21.375V49.875ZM39.1875 10.6875V17.8125H46.3125V10.6875H39.1875ZM49.875 21.375H35.625V7.125H49.875V21.375ZM45.125 45.125V38H35.625V42.75H40.375V49.875H49.875V45.125H45.125ZM40.375 28.5H30.875V33.25H40.375V28.5ZM30.875 23.75H16.625V28.5H21.375V33.25H26.125V28.5H30.875V23.75ZM33.25 21.375V16.625H28.5V11.875H23.75V21.375H33.25ZM16.0312 12.4688H12.4688V16.0312H16.0312V12.4688ZM16.0312 40.9688H12.4688V44.5312H16.0312V40.9688ZM44.5312 12.4688H40.9688V16.0312H44.5312V12.4688Z" fill="black"/>
</svg>
