<svg width="75" height="59" viewBox="0 0 75 59" fill="none" xmlns="http://www.w3.org/2000/svg">
<path d="M34.7621 44.2631L30.6645 31.9971H15.5665L11.4688 44.2631H34.7621Z" fill="#C6A95F"/>
<path d="M40.559 30.3451H47.5512L43.4574 18.0791H28.3594L24.2617 30.3451H40.559Z" fill="#C6A95F"/>
<path d="M3.15969 45.9189L0.425293 58.1849H23.9483L21.2139 45.9189H3.15969Z" fill="#C6A95F"/>
<path d="M37.0547 44.2631H60.3477L56.25 31.9971H41.152L37.0547 44.2631Z" fill="#C6A95F"/>
<path d="M55.8091 45.9189L51.7075 58.1849H75.0045L70.9068 45.9189H55.8091Z" fill="#C6A95F"/>
<path d="M30.2227 45.9189L26.1289 58.1849H49.4179L45.3202 45.9189H30.2227Z" fill="#C6A95F"/>
<path d="M8.83609 30.466C8.74234 30.466 8.65639 30.4504 8.56264 30.4231L0.554844 27.6262C0.125154 27.4738 -0.105316 27.0051 0.0470339 26.5754C0.199374 26.1457 0.668124 25.9152 1.09783 26.0675L9.10563 28.8644C9.53532 29.0168 9.76579 29.4855 9.61344 29.9152C9.49625 30.2551 9.17593 30.466 8.83609 30.466Z" fill="#C6A95F"/>
<path d="M24.3361 13.1069C24.0276 13.1069 23.7346 12.935 23.594 12.6382L19.9104 5.00146C19.7111 4.5913 19.8869 4.09912 20.2971 3.89986C20.7072 3.70064 21.1994 3.87642 21.3987 4.28658L25.0823 11.9233C25.2815 12.3334 25.1057 12.8256 24.6956 13.0249C24.5784 13.0796 24.4572 13.1069 24.3361 13.1069Z" fill="#C6A95F"/>
<path d="M47.5739 11.79C47.488 11.79 47.3942 11.7743 47.3004 11.7431C46.8708 11.5907 46.6403 11.122 46.7926 10.6923L49.5895 2.68448C49.7419 2.25479 50.2106 2.02432 50.6403 2.17667C51.07 2.32901 51.3005 2.79776 51.1482 3.22747L48.3512 11.2353C48.2302 11.5751 47.9137 11.79 47.5739 11.79Z" fill="#C6A95F"/>
<path d="M64.9338 27.2939C64.6252 27.2939 64.3322 27.1221 64.1916 26.8252C63.9924 26.415 64.1682 25.9229 64.5783 25.7236L72.215 22.04C72.6252 21.8408 73.1174 22.0166 73.3166 22.4267C73.5158 22.8369 73.3401 23.3291 72.9299 23.5283L65.2932 27.2119C65.1799 27.2627 65.0588 27.2939 64.9338 27.2939Z" fill="#C6A95F"/>
<path d="M15.0551 20.029C14.8558 20.029 14.6605 19.9547 14.5004 19.8141L8.22697 14.1071C7.89103 13.7985 7.86759 13.279 8.17228 12.9391C8.48087 12.6032 9.0004 12.5797 9.34028 12.8844L15.6098 18.5914C15.9457 18.9 15.9692 19.4196 15.6645 19.7594C15.5043 19.9352 15.2777 20.029 15.0551 20.029Z" fill="#C6A95F"/>
<path d="M36.117 10.1219C35.6795 10.1219 35.3162 9.77426 35.2928 9.33676L34.8982 0.864055C34.8787 0.410925 35.2303 0.0242159 35.6834 0.000775938C36.1365 -0.0187551 36.5232 0.332806 36.5467 0.785936L36.9412 9.25864C36.9607 9.71176 36.6092 10.0985 36.156 10.1219H36.117Z" fill="#C6A95F"/>
<path d="M58.0121 18.0131C57.8129 18.0131 57.6176 17.9389 57.4574 17.7983C57.1215 17.4897 57.0981 16.9701 57.4028 16.6303L63.1098 10.3608C63.4183 10.0248 63.9379 10.0014 64.2778 10.3061C64.6137 10.6147 64.6371 11.1342 64.3324 11.4741L58.6254 17.7436C58.4614 17.9194 58.2387 18.0131 58.0121 18.0131Z" fill="#C6A95F"/>
</svg>
