<svg width="53" height="71" viewBox="0 0 53 71" fill="none" xmlns="http://www.w3.org/2000/svg">
<path fill-rule="evenodd" clip-rule="evenodd" d="M35.5696 13.2106H39.5071V13.1676C39.7688 13.1676 40.0345 12.9489 40.0345 12.6442V2.4492C40.0345 1.0937 38.9407 0 37.5814 0C36.2259 0 35.1322 1.0938 35.1322 2.4492V12.0742C35.1322 12.1367 35.1126 12.1953 35.0931 12.2617C35.0697 12.3359 35.0462 12.4179 35.0462 12.5117C35.0032 12.6875 35.0462 12.8633 35.1322 12.9922C35.265 13.125 35.5696 13.2106 35.5696 13.2106ZM27.1282 13.4333C27.2141 13.5231 27.4329 13.5231 27.4329 13.5231H27.6517C28.1321 13.3473 28.7025 13.2614 29.4017 13.2614H31.4134C31.5891 13.2614 31.7649 13.1715 31.8509 13.0426C31.9407 12.9098 32.0266 12.7341 31.9407 12.5583C31.8509 12.3864 31.8509 12.1208 31.8509 12.1208V2.49576C31.8509 1.18326 30.8001 0.0465631 29.4017 0.0465631C28.0033 0.0465631 26.9095 1.14036 26.9095 2.49576V12.9958C26.9095 13.1715 26.9954 13.3473 27.1282 13.4333ZM21.0657 15.9724H21.0891H21.0462H21.0657ZM23.4954 13.5232C23.4954 14.8748 22.4134 15.9607 21.0657 15.9724C19.7219 15.9607 18.6399 14.8747 18.6399 13.5232V2.50017C18.6399 1.14467 19.7337 0.0509691 21.0891 0.0509691C22.4445 0.0509691 23.5813 1.14477 23.5813 2.50017L23.4954 13.5232ZM10.4564 12.2146C10.4564 13.5701 11.5072 14.6638 12.9056 14.6638C14.265 14.6638 15.3587 13.57 15.3587 12.2146V5.25757C15.3587 3.94507 14.2649 2.80837 12.9056 2.80837C11.5501 2.80837 10.4564 3.90217 10.4564 5.25757V12.2146ZM6.17121 42.8786C6.25715 42.9645 6.43293 42.9645 6.43293 42.9645C6.4759 42.9645 6.51887 42.9528 6.56184 42.945C6.60872 42.9333 6.65169 42.9215 6.69465 42.9215C6.87043 42.8356 6.99934 42.6598 6.99934 42.484C7.43684 38.8082 8.96814 35.3981 11.3313 32.5543C11.5071 32.3786 11.4212 31.9411 11.4212 31.9411L9.10089 27.2575C9.0462 27.152 8.99542 27.0504 8.94073 26.945C8.7337 26.5348 8.53057 26.1364 8.3587 25.6833C8.26885 25.4645 8.09308 25.3356 7.87432 25.3356C7.70244 25.2887 7.35088 25.5973 7.35088 25.5973L0.218077 37.9333C0.0891673 38.2419 -0.000672735 38.5896 0.0891673 38.9411C0.175104 39.2458 0.393857 39.5544 0.702447 39.7263L6.17121 42.8786ZM43.6632 64.6166C43.882 64.7494 44.2765 64.7494 44.2765 64.7494C44.3507 64.7494 44.421 64.7338 44.4874 64.722C44.5382 64.7142 44.589 64.7025 44.6281 64.7025C44.9328 64.6595 45.2374 64.4408 45.4132 64.1361L52.7218 51.4481C52.9406 51.0536 52.9406 50.702 52.8507 50.4833C52.8078 50.3543 52.6789 49.9598 52.2414 49.6981L46.8586 46.5887C46.6828 46.5028 46.507 46.5028 46.3312 46.5887C46.1593 46.6785 46.0265 46.8543 46.0265 47.0262C45.5031 52.409 42.7023 57.3972 38.3703 60.6782C38.2375 60.8071 38.1516 60.9829 38.1516 61.1587C38.1516 61.3344 38.4133 61.5962 38.4133 61.5962L43.6632 64.6166ZM19.1632 70.8314H33.8192C34.5653 70.8314 35.0887 70.3079 35.0887 69.5619V63.6557C35.0887 63.4799 35.0028 63.308 34.827 63.2182C34.6512 63.1322 34.4754 63.0893 34.2997 63.1752C29.2685 65.3197 23.6707 65.3197 18.6827 63.1752C18.5069 63.0893 18.3311 63.1322 18.1553 63.2182C17.9834 63.308 17.8936 63.6557 17.8936 63.6557V69.5619C17.8936 70.2611 18.4211 70.8314 19.1632 70.8314ZM8.26821 64.7025C8.40102 64.7454 8.61977 64.7454 8.61977 64.7454L8.66274 64.7923C8.83852 64.7923 9.05727 64.7454 9.27602 64.6165L14.483 61.597C14.6119 61.5111 14.7447 61.3353 14.7447 61.1595C14.7447 60.9838 14.6549 60.808 14.526 60.6791C10.194 57.3979 7.39319 52.4096 6.86979 47.0271C6.82682 46.8513 6.73698 46.6794 6.5612 46.5896C6.38932 46.5036 6.03776 46.5896 6.03776 46.5896L0.654961 49.699C0.350271 49.8708 0.131522 50.1794 0.0455824 50.5271C-0.0442616 50.8357 -0.0012925 51.1833 0.174493 51.449L7.48309 64.047C7.65497 64.4415 7.92055 64.6595 8.26821 64.7025ZM14.4362 56.14C14.5261 56.2728 14.8307 56.3158 14.8307 56.3158V56.2728H15.0495C15.2682 56.1829 15.4011 55.9642 15.4011 55.7454V46.0345C15.4011 42.7533 14.7448 39.472 13.5183 36.5384C13.4753 36.3197 13.2995 36.1908 13.0808 36.1908C12.862 36.1908 12.6433 36.2767 12.5573 36.4525C10.9362 39.0345 10.1081 42.0072 10.1081 45.0697C10.1081 49.2259 11.6393 53.1638 14.4362 56.14ZM46.5222 42.964H46.5496H46.5066H46.5222ZM46.7683 42.878C46.7683 42.878 46.612 42.9562 46.5222 42.964C46.4675 42.9601 46.3542 42.9522 46.2878 42.921C46.1121 42.8312 46.0261 42.7022 45.9831 42.4835C45.5456 39.2882 44.4089 36.3585 42.5261 33.7335C42.3933 33.5577 42.3933 33.296 42.5261 33.1202L45.9831 27.9132C45.9831 27.9132 46.2449 27.6945 46.4636 27.6515C46.6394 27.6515 46.8152 27.7374 46.9011 27.9132L52.7214 37.9752C53.0691 38.5455 52.8073 39.4205 52.237 39.7252L46.7683 42.878ZM38.2371 55.991H38.4129V56.034C38.5457 56.034 38.7215 55.991 38.8074 55.8621C41.3894 52.8855 42.8308 49.0809 42.8308 45.1431C42.8308 42.4712 42.2214 39.8462 40.9949 37.5728C40.909 37.3541 40.6902 37.2681 40.5144 37.2681C40.2957 37.2681 40.1199 37.397 40.034 37.5728C38.6317 40.8111 37.8895 44.3111 37.8895 47.8968V55.4671C37.8895 55.7288 38.0184 55.9051 38.2371 55.991ZM18.8581 59.6433C21.2175 60.866 23.7995 61.4792 26.4675 61.4792H26.5144C29.2683 61.4792 31.9832 60.737 34.3464 59.4245C34.5182 59.3347 34.6081 58.9402 34.6081 58.9402V47.8742C34.6081 42.0969 36.3151 36.4991 39.5065 31.7292L44.7995 23.7644C45.3268 22.9362 45.5886 22.0613 45.5886 21.1394C45.5886 18.6042 43.4441 16.5027 40.862 16.5027H29.358C27.9557 16.5027 26.8619 17.5965 26.8619 18.9519C26.8619 20.3113 27.9986 21.405 29.358 21.405H36.2252C37.1002 21.405 37.8893 22.1471 37.8893 23.0651C37.8893 23.9831 37.1432 24.7292 36.2252 24.7292H29.358C26.3385 24.7292 23.8424 22.409 23.6236 19.4363C23.5806 19.2605 23.4946 19.0847 23.3618 18.9988C23.2329 18.9519 23.0571 18.9089 22.8814 18.9519C20.6939 19.7409 18.1119 18.9988 16.6705 17.2019C16.4947 16.9831 16.233 16.9402 15.9673 17.073C15.0923 17.6394 13.9985 17.948 12.8618 17.948C12.2056 17.948 11.6391 17.8581 11.1118 17.6862C10.9829 17.6394 10.7642 17.6862 10.6314 17.7722C10.4986 17.8581 10.4126 18.2097 10.4126 18.2097V19.2175C10.4126 19.9597 10.4986 20.7917 10.6314 21.6667C10.8501 23.1081 11.2876 24.5105 11.9439 25.8659L15.5767 33.0847C17.5884 37.155 18.6392 41.6589 18.6392 46.0807V58.8967C18.5064 59.1584 18.5925 59.5105 18.8581 59.6433Z" fill="#C6A95F"/>
</svg>
