<svg width="69" height="69" viewBox="0 0 69 69" fill="none" xmlns="http://www.w3.org/2000/svg">
<path d="M30.0322 30.5882C31.3878 30.5882 32.6174 31.1387 33.5048 32.027C34.1287 32.65 34.586 33.4424 34.8024 34.3289H36.0194C36.666 34.3289 37.1912 34.8531 37.1912 35.4997C37.1912 36.1462 36.666 36.6705 36.0194 36.6705H34.8024C34.586 37.557 34.1287 38.3493 33.5048 38.9723C32.6174 39.8606 31.3878 40.4112 30.0322 40.4112C28.6767 40.4112 27.4479 39.8606 26.5596 38.9723C25.9366 38.3493 25.4784 37.557 25.262 36.6705H14.6711C14.0255 36.6705 13.5003 36.1462 13.5003 35.4997C13.5003 34.8531 14.0255 34.3289 14.6711 34.3289H25.262C25.4784 33.4424 25.9366 32.65 26.5596 32.027C27.4479 31.1387 28.6767 30.5882 30.0322 30.5882ZM31.8487 33.6832C31.385 33.2187 30.7412 32.9307 30.0322 32.9307C29.3232 32.9307 28.6794 33.2187 28.2157 33.6832C27.715 34.184 27.4633 34.8296 27.4633 35.5332C27.4723 36.2286 27.7594 36.8598 28.2157 37.3161C28.6794 37.7798 29.3232 38.0686 30.0322 38.0686C30.7412 38.0686 31.385 37.7798 31.8487 37.3161C32.3494 36.8154 32.6011 36.1698 32.6011 35.4662C32.5921 34.7698 32.305 34.1396 31.8487 33.6832ZM30.0322 10.2812C31.3878 10.2812 32.6174 10.8317 33.5048 11.72C34.1287 12.343 34.586 13.1354 34.8024 14.0209H36.0194C36.666 14.0209 37.1912 14.5461 37.1912 15.1927C37.1912 15.8392 36.666 16.3635 36.0194 16.3635H34.8024C34.586 17.25 34.1287 18.0414 33.5048 18.6653C32.6174 19.5536 31.3878 20.1042 30.0322 20.1042C28.6767 20.1042 27.4479 19.5536 26.5596 18.6653C25.9366 18.0414 25.4784 17.25 25.262 16.3635H14.6711C14.0255 16.3635 13.5003 15.8392 13.5003 15.1927C13.5003 14.5461 14.0255 14.0209 14.6711 14.0209H25.262C25.4784 13.1354 25.9366 12.343 26.5596 11.72C27.4479 10.8317 28.6767 10.2812 30.0322 10.2812ZM31.8487 13.3762C31.385 12.9117 30.7412 12.6237 30.0322 12.6237C29.3232 12.6237 28.6794 12.9117 28.2157 13.3762C27.715 13.877 27.4633 14.5217 27.4633 15.2253C27.4723 15.9216 27.7594 16.5528 28.2157 17.0091C28.6794 17.4728 29.3232 17.7616 30.0322 17.7616C30.7412 17.7616 31.385 17.4728 31.8487 17.0091C32.3494 16.5084 32.6011 15.8628 32.6011 15.1592C32.5921 14.4628 32.305 13.8326 31.8487 13.3762ZM20.6602 20.4347C22.0157 20.4347 23.2445 20.9852 24.1328 21.8735C24.7558 22.4965 25.2131 23.2889 25.4304 24.1754H36.0194C36.666 24.1754 37.1912 24.6996 37.1912 25.3462C37.1912 25.9927 36.666 26.517 36.0194 26.517H25.4304C25.2131 27.4035 24.7558 28.1958 24.1328 28.8188C23.2445 29.7071 22.0157 30.2577 20.6602 30.2577C19.3046 30.2577 18.0749 29.7071 17.1866 28.8188C16.5636 28.1958 16.1063 27.4035 15.8899 26.517H14.6711C14.0255 26.517 13.5003 25.9927 13.5003 25.3462C13.5003 24.6996 14.0255 24.1754 14.6711 24.1754H15.8899C16.1063 23.2889 16.5636 22.4965 17.1866 21.8735C18.0749 20.9852 19.3046 20.4347 20.6602 20.4347ZM22.4766 23.5297C22.013 23.0652 21.3692 22.7772 20.6602 22.7772C19.9502 22.7772 19.3073 23.0652 18.8428 23.5297C18.342 24.0305 18.0903 24.6752 18.0903 25.3788C18.1003 26.0751 18.3864 26.7063 18.8428 27.1626C19.3073 27.6263 19.9502 27.9151 20.6602 27.9151C21.3692 27.9151 22.013 27.6263 22.4766 27.1626C22.9774 26.6619 23.2291 26.0163 23.2291 25.3127C23.22 24.6163 22.933 23.9861 22.4766 23.5297ZM9.4789 9.4789C13.8598 5.09803 19.6043 2.90669 25.3462 2.90669C31.0835 2.90669 36.8263 5.09803 41.2089 9.48161C45.4322 13.704 47.7848 19.3752 47.7848 25.3462C47.7848 31.0844 45.5934 36.8254 41.2135 41.2062C36.8308 45.5934 31.088 47.7848 25.3462 47.7848C19.3653 47.7848 13.6189 45.4024 9.41461 41.1419C5.07539 36.7674 2.90669 31.0536 2.90669 25.3462C2.90669 19.6043 5.09803 13.8598 9.4789 9.4789ZM25.3462 5.24925C20.202 5.24925 15.0587 7.2115 11.1351 11.1351C7.2115 15.0587 5.24925 20.202 5.24925 25.3462C5.24925 30.4678 7.19248 35.5884 11.0771 39.502C15.1728 43.3378 19.6596 45.4431 25.3462 45.4431C30.4877 45.4431 35.6328 43.48 39.5555 39.5573C43.4809 35.6346 45.4431 30.4904 45.4431 25.3462C45.4431 20.2264 43.499 15.1057 39.6152 11.1903C35.516 7.35276 31.0364 5.24925 25.3462 5.24925ZM46.45 52.1738L63.2772 69L69 63.2772L52.1738 46.45C50.2659 48.358 48.358 50.2659 46.45 52.1738ZM46.6103 43.0797C46.0806 43.7127 45.5183 44.3293 44.9233 44.9233C44.3293 45.5183 43.7127 46.0806 43.0797 46.6103L45.8904 49.421L49.421 45.8904L46.6103 43.0797ZM25.3462 0C18.8609 0 12.3729 2.47657 7.42429 7.42429C2.47657 12.3729 0 18.8609 0 25.3462C0 31.8315 2.47657 38.3195 7.42429 43.2672C12.3729 48.2158 18.8609 50.6915 25.3462 50.6915C32.1366 50.6915 38.5304 48.0048 43.2672 43.2672C48.0048 38.5304 50.6915 32.1384 50.6915 25.3462C50.6915 18.8609 48.2158 12.3729 43.2672 7.42429C38.3195 2.47657 31.8315 0 25.3462 0Z" fill="#C6A95F"/>
</svg>
