<svg width="78" height="78" viewBox="0 0 78 78" fill="none" xmlns="http://www.w3.org/2000/svg">
<path d="M68.7221 53.2863C70.7747 48.9347 72.0063 44.0905 72.0063 39C72.0063 33.9095 70.8568 29.0653 68.7221 24.7137C74.0589 23.2358 78 18.3916 78 12.5621C78 5.66526 72.3347 0 65.4379 0C59.6084 0 54.7642 3.94105 53.2863 9.27789C48.9347 7.22526 44.0905 5.99368 39 5.99368C33.9095 5.99368 29.0653 7.14316 24.7137 9.27789C23.2358 3.94105 18.3916 0 12.5621 0C5.66526 0 0 5.66526 0 12.5621C0 18.3916 3.94105 23.2358 9.27789 24.7137C7.22526 29.0653 5.99368 33.9095 5.99368 39C5.99368 44.0905 7.14316 48.9347 9.27789 53.2863C3.94105 54.7642 0 59.6084 0 65.4379C0 72.3347 5.66526 78 12.5621 78C18.3916 78 23.2358 74.0589 24.7137 68.7221C29.0653 70.7747 33.9095 72.0063 39 72.0063C44.0905 72.0063 48.9347 70.8568 53.2863 68.7221C54.7642 74.0589 59.6084 78 65.4379 78C72.3347 78 78 72.3347 78 65.4379C78 59.6084 74.0589 54.7642 68.7221 53.2863ZM69.4611 61.8253C69.4611 64.0421 67.6547 65.8484 65.4379 65.8484C63.2211 65.8484 61.4147 64.0421 61.4147 61.8253C61.4147 59.6084 63.2211 57.8021 65.4379 57.8021C67.6547 57.8021 69.4611 59.6084 69.4611 61.8253ZM65.4379 4.92632C67.6547 4.92632 69.4611 6.73263 69.4611 8.94947C69.4611 11.1663 67.6547 12.9726 65.4379 12.9726C63.2211 12.9726 61.4147 11.1663 61.4147 8.94947C61.4147 6.73263 63.2211 4.92632 65.4379 4.92632ZM58.7874 18.4737C58.7874 16.4211 60.1011 14.7789 61.9074 14.1221C62.8926 14.7789 64.1242 15.2716 65.4379 15.2716C66.7516 15.2716 67.9832 14.8611 68.9684 14.1221C70.7747 14.7789 72.0884 16.4211 72.0884 18.4737V19.1305C70.3642 20.8547 68.0653 21.9221 65.4379 21.9221C62.8105 21.9221 60.5116 20.8547 58.7874 19.1305V18.4737ZM12.5621 4.92632C14.7789 4.92632 16.5853 6.73263 16.5853 8.94947C16.5853 11.1663 14.7789 12.9726 12.5621 12.9726C10.3453 12.9726 8.53895 11.1663 8.53895 8.94947C8.53895 6.73263 10.3453 4.92632 12.5621 4.92632ZM5.91158 19.1305V18.4737C5.91158 16.4211 7.22526 14.7789 9.03158 14.1221C10.0168 14.7789 11.2484 15.2716 12.5621 15.2716C13.8758 15.2716 15.1074 14.8611 16.0926 14.1221C17.8989 14.7789 19.2126 16.4211 19.2126 18.4737V19.1305C17.4884 20.8547 15.1895 21.9221 12.5621 21.9221C9.93474 21.9221 7.63579 20.8547 5.91158 19.1305ZM12.5621 57.8021C14.7789 57.8021 16.5853 59.6084 16.5853 61.8253C16.5853 64.0421 14.7789 65.8484 12.5621 65.8484C10.3453 65.8484 8.53895 64.0421 8.53895 61.8253C8.53895 59.6084 10.3453 57.8021 12.5621 57.8021ZM19.2126 71.9242C17.4884 73.6484 15.1895 74.7158 12.5621 74.7158C9.93474 74.7158 7.63579 73.6484 5.91158 71.9242V71.3495C5.91158 69.2968 7.22526 67.6547 9.03158 66.9979C10.0168 67.6547 11.2484 68.1474 12.5621 68.1474C13.8758 68.1474 15.1074 67.7368 16.0926 66.9979C17.8989 67.6547 19.2126 69.2968 19.2126 71.3495V71.9242ZM52.8758 64.2063C48.7705 66.5053 44.0084 67.8189 39 67.8189C33.9916 67.8189 29.2295 66.5053 25.1242 64.2063C24.5495 58.2126 19.7874 53.5326 13.8758 52.9579C11.5768 48.8526 10.2632 44.0905 10.2632 39.0821C10.2632 34.0737 11.5768 29.3116 13.8758 25.2063C19.8695 24.6316 24.5495 19.8695 25.1242 13.9579C29.2295 11.6589 33.9916 10.3453 39 10.3453C44.0084 10.3453 48.7705 11.6589 52.8758 13.9579C53.4505 19.9516 58.2126 24.6316 64.1242 25.2063C66.4232 29.3116 67.7368 34.0737 67.7368 39.0821C67.7368 44.0905 66.4232 48.8526 64.1242 52.9579C58.2126 53.4505 53.4505 58.2126 52.8758 64.2063ZM72.0884 71.9242C70.3642 73.6484 68.0653 74.7158 65.4379 74.7158C62.8105 74.7158 60.5116 73.6484 58.7874 71.9242V71.3495C58.7874 69.2968 60.1011 67.6547 61.9074 66.9979C62.8926 67.6547 64.1242 68.1474 65.4379 68.1474C66.7516 68.1474 67.9832 67.7368 68.9684 66.9979C70.7747 67.6547 72.0884 69.2968 72.0884 71.3495V71.9242Z" fill="#C6A95F"/>
<path d="M38.9998 18.0625C27.423 18.0625 18.063 27.5046 18.063 39.0814C18.063 50.6583 27.5051 60.0183 38.9998 60.0183C50.5767 60.0183 59.9367 50.5762 59.9367 39.0814C59.9367 27.4225 50.5767 18.0625 38.9998 18.0625ZM38.7535 55.7488C38.6714 55.8309 38.6714 55.9951 38.6714 56.0772C29.3935 55.913 21.9219 48.3593 21.9219 38.9993C21.9219 34.8941 23.3998 30.953 26.1093 27.833C26.1093 28.0793 26.0272 28.9004 26.1093 29.3109C26.1914 29.7214 26.7661 31.0351 26.1914 32.1846C25.3704 33.9088 25.4525 36.5362 26.0272 37.3572C26.3556 37.8499 28.0798 40.0667 28.3261 40.313C28.4904 40.4772 28.983 41.7909 28.983 42.0372C29.0651 42.5299 30.3788 44.0078 31.7746 44.0078H31.8567C32.3493 44.0078 33.0883 44.3362 33.4988 44.5825C33.663 44.6646 33.8272 44.7467 33.9914 44.8288C33.9914 44.8288 34.484 45.732 35.223 46.1425C35.3872 46.2246 36.4546 46.7993 36.7009 46.9636C36.2904 47.4562 35.7156 48.2772 35.8798 49.3446C36.1261 50.8225 38.0146 52.4646 38.7535 52.9572C39.0819 53.3678 38.9998 55.3383 38.7535 55.7488ZM54.1072 33.4983C54.1072 33.6625 54.1072 33.8267 55.0104 34.4014C54.9282 34.5657 54.8461 34.6478 54.764 34.7299C54.1893 34.8941 54.1072 36.2899 54.1072 36.2899C54.1072 36.7825 54.5998 37.5214 55.0925 37.8499C55.2567 37.932 55.5851 38.0962 56.0777 37.8499C56.0777 38.0141 56.0777 38.0962 56.0777 38.2604C55.6672 38.3425 55.0925 38.5888 54.9283 38.8351C54.764 38.9993 54.5998 39.4099 54.1893 40.2309C54.0251 40.6414 53.7788 41.2162 53.6967 41.3804C53.204 41.7088 52.6293 44.9109 52.6293 44.993C52.5472 45.4036 53.204 47.0457 53.7788 47.7025C51.5619 51.3972 48.0314 54.1888 43.9261 55.4204C43.9261 55.4204 44.0083 55.2562 44.0904 55.1741C44.2546 54.9278 45.1577 54.1067 45.3219 54.0246C45.7325 53.8604 47.3746 52.1362 47.5388 51.7257C47.8672 50.9046 48.524 50.1657 48.6882 50.0014C49.0167 49.7551 49.1809 48.5236 48.524 47.7846C48.1956 47.4562 47.4567 47.4562 47.1283 47.5383C46.964 47.4562 46.4714 47.2099 46.3072 47.1278C46.0609 46.4709 45.0756 45.5678 44.583 45.5678C44.5009 45.5678 44.0904 45.4036 43.9261 45.2393C43.3514 44.5825 41.7093 44.2541 41.2988 44.2541C40.9704 44.2541 40.4777 44.172 40.2314 44.0078C39.6567 43.7614 38.9998 44.0078 38.1788 44.3362C38.0967 44.3362 38.0146 44.4183 38.0146 44.4183C37.8504 44.4183 37.2756 44.3362 36.9472 44.2541C36.9472 44.172 36.9472 44.0899 36.9472 43.9257C36.9472 43.5972 36.8651 43.3509 36.783 43.1046C36.6188 42.8583 36.3725 42.6941 35.9619 42.612L36.044 42.4478C36.1261 42.2836 36.044 42.1193 35.9619 42.0372C35.7156 41.6267 35.5514 41.4625 35.3051 41.4625C35.223 41.4625 35.1409 41.4625 35.1409 41.3804C34.8125 41.2162 34.2377 41.052 33.7451 41.4625C33.663 41.4625 33.5809 41.6267 33.4988 41.6267C33.3346 41.6267 33.1704 41.4625 32.7598 41.2983C32.7598 41.1341 32.8419 40.8057 33.0883 40.1488C33.1704 39.9846 33.1704 39.9025 33.1704 39.8204C33.4167 39.7383 34.1556 39.7383 35.0588 39.5741C35.223 39.5741 35.4693 39.492 35.5514 39.492C35.7156 39.5741 35.9619 39.7383 35.9619 39.8204C36.044 39.9025 36.044 39.9846 36.1261 40.0667C36.2083 40.2309 36.3725 40.6414 36.9472 40.5593C37.7683 40.3951 37.6861 39.492 37.6861 39.1636C37.6861 39.0814 37.6861 38.9993 37.6861 39.0814C37.7683 38.9172 38.0967 38.4246 38.2609 38.2604C38.6714 38.0141 39.4104 37.193 39.4104 36.4541C39.4925 36.372 39.7388 36.2078 40.1493 35.9614C40.3135 35.8793 40.3956 35.7972 40.4777 35.7972C40.5598 35.7972 40.5598 35.7151 40.6419 35.7151C40.8883 35.5509 41.3809 35.3046 41.463 34.7299C41.5451 34.7299 41.7914 34.6478 42.284 34.5657L42.6125 34.4836C42.9409 34.4014 43.3514 34.3193 43.5977 33.9088C43.844 33.4983 43.6798 33.0878 43.5156 32.8414L43.4335 32.6772C43.3514 32.513 43.3514 32.513 43.5156 32.4309C43.5977 32.3488 43.844 32.3488 44.0904 32.3488C44.4188 32.3488 44.8293 32.2667 45.2398 32.1025C45.6504 31.9383 45.8967 31.692 45.9788 31.3636C46.143 30.8709 45.8146 30.5425 45.6504 30.2962L45.5683 30.132C45.3219 29.7214 44.9935 29.393 44.7472 29.2288C44.7472 29.1467 44.6651 28.9825 44.583 28.572C44.5009 28.3257 44.5009 28.1614 44.4188 27.9972C44.3367 27.7509 44.0904 27.5046 43.844 27.4225C43.5977 27.3404 43.3514 27.3404 43.1051 27.4225C43.023 27.2583 43.023 27.1762 42.8588 27.0941C42.7767 27.012 42.6946 26.9299 42.4483 26.6836C42.2019 26.5193 42.0377 26.4372 41.8735 26.4372C41.6272 26.1909 41.3809 26.1088 41.0525 26.1909C40.5598 26.273 40.3135 26.6836 40.1493 27.012C40.0672 27.0941 40.0672 27.1762 39.9851 27.3404C39.5746 27.7509 39.3283 28.0793 39.3283 28.4078C39.3283 28.4078 38.9998 28.7362 38.9177 28.7362C38.9177 28.7362 38.9177 28.7362 38.8356 28.6541C38.5893 28.4078 38.2609 28.4078 38.0967 28.4078C37.9325 28.2436 37.5219 27.9972 36.8651 27.7509C36.8651 27.5867 36.8651 27.3404 36.8651 27.2583C36.9472 27.1762 37.0293 27.012 37.1935 26.7657C37.3577 26.5193 37.7682 26.0267 37.8504 25.9446C38.0146 25.8625 38.2609 25.7804 38.5072 25.6162C38.9177 25.3699 39.5746 25.0414 39.903 25.0414C40.1493 25.0414 40.3135 24.8772 40.3956 24.7951C40.5598 24.6309 40.6419 24.3846 40.5598 23.9741C40.4777 23.3993 39.903 23.2351 39.5746 23.0709H39.4925C39.164 22.5783 38.7535 22.7425 38.5072 22.7425C38.4251 22.7425 38.343 22.8246 38.2609 22.8246C38.1788 22.8246 36.783 22.332 36.783 22.332C36.2083 22.2499 35.7156 22.1678 35.223 22.1678C38.5893 21.4288 42.1198 21.7572 45.2398 23.0709C45.2398 23.153 45.3219 23.2351 45.3219 23.3172C45.404 23.4814 45.5683 23.7278 45.7325 23.9741C45.9788 24.3025 46.3072 24.7951 46.3072 25.1236C46.3072 25.7804 46.964 26.1088 47.3746 26.3551C47.4567 26.3551 47.5388 26.4372 47.5388 26.4372C47.6209 26.6014 47.7851 26.8478 48.1135 27.0941C48.6882 27.5046 49.4272 27.7509 49.9198 27.4225C50.084 27.3404 50.4946 27.1762 51.2335 27.2583C51.7261 27.7509 52.1367 28.3257 52.5472 28.9004C52.0546 29.393 51.4798 30.0499 51.644 30.7067C51.7261 31.3636 52.383 32.1846 53.204 32.5951C54.1072 32.9236 54.1072 33.4983 54.1072 33.4983Z" fill="#C6A95F"/>
</svg>
