<svg width="94" height="94" viewBox="0 0 94 94" fill="none" xmlns="http://www.w3.org/2000/svg">
<path d="M80.2688 15.3555C79.6165 14.668 78.5266 14.6407 77.8391 15.293C77.1516 15.9454 77.1243 17.0352 77.7766 17.7227C85.4133 25.7618 89.6206 36.2967 89.6206 47.3907C89.6206 71.1487 70.2886 90.4767 46.5266 90.4767C36.2886 90.4767 26.5966 86.922 18.8506 80.4107L26.0772 80.0592C27.0264 80.0123 27.7569 79.2076 27.71 78.2584C27.6631 77.3091 26.8584 76.5631 25.9092 76.6256L14.6122 77.1764C13.6708 77.2232 12.9403 78.0201 12.9794 78.9616L13.413 89.7976C13.4521 90.7233 14.2099 91.446 15.1278 91.446H15.1981C16.1473 91.4069 16.8856 90.61 16.8465 89.6608L16.577 82.985C24.952 90.0514 35.44 93.911 46.526 93.911C72.182 93.911 93.057 73.04 93.057 47.391C93.057 35.414 88.5148 24.0355 80.2688 15.3555Z" fill="#C6A95F"/>
<path d="M3.43287 47.3942C3.43287 23.6362 22.7649 4.30824 46.5269 4.30824C54.9761 4.30824 63.0699 6.72624 70.0739 11.3082L62.7223 12.3316C61.7809 12.4645 61.1285 13.3316 61.2575 14.2691C61.3786 15.1285 62.1129 15.7496 62.9567 15.7496C63.0348 15.7496 63.1168 15.7457 63.1949 15.734L74.3979 14.1754C75.3315 14.0465 75.9877 13.1871 75.8627 12.2496L74.4566 1.49562C74.3355 0.554206 73.4683 -0.109884 72.5307 0.0151156C71.5893 0.136206 70.9252 0.999495 71.0502 1.94092L71.894 8.39792C64.3432 3.47212 55.621 0.870616 46.523 0.870616C20.871 0.870616 0 21.7416 0 47.3936C0 57.6006 3.2461 67.2916 9.3828 75.4136C9.71874 75.8589 10.2344 76.0972 10.7539 76.0972C11.1133 76.0972 11.4766 75.9839 11.7891 75.7495C12.5469 75.1792 12.6953 74.1011 12.125 73.3433C6.44144 65.8199 3.43754 56.8473 3.43754 47.3943L3.43287 47.3942Z" fill="#C6A95F"/>
<path d="M75.2298 54.9453C76.7298 54.9453 77.9486 53.7305 77.9486 52.2305V43.1602C77.9486 41.6602 76.7298 40.4453 75.2298 40.4453H69.9056C69.4876 38.9922 68.9251 37.5821 68.2376 36.2344L72.0306 32.4493C72.5384 31.9336 72.8197 31.254 72.8197 30.5313C72.8197 29.8047 72.5384 29.121 72.0228 28.6054L65.6087 22.1914C64.5501 21.1328 62.8235 21.1328 61.7728 22.1914L58.1087 25.8516C56.7532 25.1172 55.3196 24.5156 53.847 24.0546V18.8085C53.847 17.3085 52.6322 16.0938 51.1322 16.0938H42.0619C40.5619 16.0938 39.3471 17.3085 39.3471 18.8085V24.0546C37.894 24.5078 36.4877 25.1015 35.1479 25.8202L31.3471 22.0195C30.8393 21.5038 30.1557 21.2226 29.4291 21.2226C28.7025 21.2226 28.0189 21.5038 27.5111 22.0195L21.0931 28.4335C20.0345 29.4921 20.0345 31.2108 21.0931 32.2694L24.9876 36.1639C24.3274 37.4569 23.7845 38.8046 23.3626 40.1913H17.7103C16.2103 40.1913 14.9955 41.41 14.9955 42.906V51.9842C14.9955 53.4803 16.2103 54.699 17.7103 54.699H23.4955C23.9174 56.0115 24.4564 57.2888 25.101 58.5115L20.9213 62.6912C20.4057 63.199 20.1244 63.8826 20.1244 64.6092C20.1244 65.3357 20.4057 66.0194 20.9213 66.5272L27.3354 72.9413C27.851 73.4569 28.5307 73.7381 29.2534 73.7381H29.2573C29.9799 73.7381 30.6596 73.4569 31.1753 72.9413L35.3667 68.7538C36.562 69.3788 37.8159 69.9061 39.0933 70.3163V76.3279C39.0933 77.8241 40.3121 79.0428 41.8081 79.0428H50.8862C52.3823 79.0428 53.601 77.8239 53.601 76.3279V70.4763C54.9174 70.0818 56.2026 69.5701 57.433 68.9529L61.5971 73.1209C62.6557 74.1796 64.3823 74.1796 65.4409 73.1209L71.855 66.7069C72.3706 66.1912 72.6519 65.5116 72.6519 64.7811C72.6519 64.0584 72.3706 63.3788 71.855 62.8631L67.8902 58.8982C68.5816 57.6326 69.1675 56.3085 69.6246 54.9413H75.2379L75.2298 54.9453ZM58.2528 47.5702C58.2528 54.0663 52.9716 59.3512 46.4718 59.3512C39.9757 59.3512 34.6868 54.07 34.6868 47.5702C34.6868 41.0742 39.9759 35.7893 46.4718 35.7893C52.9677 35.7893 58.2528 41.0704 58.2528 47.5702Z" fill="#C6A95F"/>
</svg>
